<svg xmlns="http://www.w3.org/2000/svg"><style>:root svg:not(:target){display:none}</style><svg fill="none" id="LogoIKI" viewBox="0 0 225 82"><path d="M82.8 7.164h1.6v8.3c0 1.5 0 2.9-.1 4.2h.1l8.4-12.5h1.9v15h-1.6v-8.3c0-1.4.1-2.8.2-4.3h-.2l-8.4 12.6h-1.9v-15ZM100.2 10.964v4.7h6.3v-4.7h1.7v11.2h-1.7v-5.1h-6.3v5.1h-1.7v-11.2h1.7ZM116.3 22.364c-1.6 0-2.9-.5-3.8-1.5-.9-1-1.3-2.4-1.3-4.3s.5-3.3 1.4-4.4c.9-1 2.2-1.5 3.9-1.5.5 0 1.1.1 1.6.2s1 .3 1.3.4l-.5 1.4c-.4-.2-.8-.3-1.2-.4-.4-.1-.8-.1-1.2-.1-2.3 0-3.4 1.5-3.4 4.4 0 1.4.3 2.4.8 3.2.6.7 1.4 1.1 2.5 1.1.9 0 1.9-.2 2.9-.6v1.5c-.9.4-1.9.6-3 .6ZM129.4 12.364h-3.7v9.8H124v-9.8h-3.6v-1.5h9v1.5ZM133.2 10.964v7.1l-.1 1.9v.6l6.1-9.6h2.1v11.2h-1.6v-8.3l.1-1.3-6.1 9.6h-2.1v-11.2h1.6ZM152.5 12.364h-3.7v9.8h-1.7v-9.8h-3.6v-1.5h9v1.5ZM152.9 10.964h1.8l2.5 6.4c.5 1.5.9 2.5 1 3.2h.1l.6-1.8c.3-.8 1.2-3.4 2.8-7.8h1.8l-4.8 12.8c-.5 1.3-1 2.2-1.7 2.7-.6.5-1.4.8-2.4.8-.5 0-1-.1-1.5-.2v-1.4c.4.1.8.1 1.3.1 1.2 0 2-.7 2.5-2l.6-1.6-4.6-11.2ZM172.9 12.364h-3.7v9.8h-1.7v-9.8h-3.6v-1.5h9v1.5ZM89 35.964h1.9l-4.8 5.4 5.2 5.8h-2l-5.1-5.7v5.7h-1.7v-11.2h1.7v5.5l4.8-5.5ZM103.1 41.564c0 1.8-.5 3.3-1.4 4.3-.9 1-2.2 1.5-3.8 1.5-1 0-1.9-.2-2.7-.7-.8-.5-1.4-1.1-1.8-2-.4-.9-.6-1.9-.6-3.1 0-1.8.5-3.3 1.4-4.3.9-1 2.2-1.5 3.8-1.5 1.6 0 2.8.5 3.7 1.6.9 1 1.4 2.4 1.4 4.2Zm-8.6 0c0 1.4.3 2.5.9 3.3.6.8 1.4 1.1 2.5 1.1s2-.4 2.5-1.1c.6-.7.9-1.8.9-3.3 0-1.4-.3-2.5-.9-3.3-.6-.7-1.4-1.1-2.6-1.1-1.1 0-2 .4-2.5 1.1-.5.7-.8 1.8-.8 3.3ZM107.7 37.364v9.8h-1.6v-11.2h6.8v1.4h-5.2ZM116.8 35.964v4.7h6.3v-4.7h1.7v11.2h-1.7v-5.1h-6.3v5.1h-1.7v-11.2h1.7ZM130 35.964v7.1l-.1 1.9v.6l6.1-9.6h2.1v11.2h-1.6v-8.3l.1-1.3-6.1 9.6h-2.1v-11.2h1.6ZM149.3 37.364h-3.7v9.8h-1.7v-9.8h-3.6v-1.5h9v1.5ZM153.1 35.964v7.1l-.1 1.9v.6l6.1-9.6h2.1v11.2h-1.6v-8.3l.1-1.3-6.1 9.6h-2.1v-11.2h1.6ZM173.9 38.764c0 .7-.2 1.3-.6 1.7-.4.4-1 .6-1.8.8v.1c1 .1 1.7.4 2.1.8.4.4.7 1 .7 1.8 0 1-.4 1.9-1.2 2.4-.8.6-1.9.9-3.4.9h-5v-11.2h4.9c2.9-.1 4.3.8 4.3 2.7Zm-1.7.2c0-.5-.2-.9-.6-1.2-.4-.2-1.1-.3-1.9-.3h-3.2v3.2h2.9c1.1 0 1.8-.1 2.2-.4.4-.3.6-.8.6-1.3Zm.4 4.8c0-.6-.2-1.1-.7-1.3-.5-.3-1.2-.4-2.3-.4h-3.1v3.7h3.1c2 0 3-.7 3-2ZM178.4 35.964v4.7h6.3v-4.7h1.7v11.2h-1.7v-5.1h-6.3v5.1h-1.7v-11.2h1.7ZM191.8 40.564h3.1c1.4 0 2.5.3 3.2.8.7.5 1 1.3 1 2.4 0 1.1-.4 2-1.1 2.6-.7.6-1.8.9-3.2.9h-4.7v-11.2h1.7v4.5Zm0 1.5v3.7h2.9c1.8 0 2.7-.6 2.7-1.9 0-.6-.2-1.1-.6-1.4-.4-.3-1.1-.4-2.1-.4h-2.9Zm10.8 5.1h-1.7v-11.2h1.7v11.2ZM208.9 41.464l-3.9-5.5h1.9l3 4.3 3-4.3h1.9l-3.9 5.5 4.1 5.8h-1.9l-3.1-4.6-3.2 4.6h-1.9l4-5.8ZM84.1 60.964v7.1l-.1 1.9v.6l6.1-9.6h2.1v11.2h-1.6v-8.3l.1-1.3-6.1 9.6h-2.1v-11.2h1.6ZM100.3 72.364c-1.6 0-2.9-.5-3.8-1.5-.9-1-1.3-2.4-1.3-4.3s.5-3.3 1.4-4.4c.9-1 2.2-1.5 3.9-1.5.5 0 1.1.1 1.6.2s1 .3 1.3.4l-.5 1.4c-.4-.2-.8-.3-1.2-.4-.4-.1-.8-.1-1.2-.1-2.3 0-3.4 1.5-3.4 4.4 0 1.4.3 2.4.8 3.2.6.7 1.4 1.1 2.5 1.1.9 0 1.9-.2 2.9-.6v1.5c-.9.4-1.9.6-3 .6ZM110.3 72.364c-1.6 0-2.9-.5-3.8-1.5-.9-1-1.3-2.4-1.3-4.3s.5-3.3 1.4-4.4c.9-1 2.2-1.5 3.9-1.5.5 0 1.1.1 1.6.2s1 .3 1.3.4l-.5 1.4c-.4-.2-.8-.3-1.2-.4-.4-.1-.8-.1-1.2-.1-2.3 0-3.4 1.5-3.4 4.4 0 1.4.3 2.4.8 3.2.6.7 1.4 1.1 2.5 1.1.9 0 1.9-.2 2.9-.6v1.5c-.9.4-1.9.6-3 .6ZM124.2 72.164h-1.7v-9.8h-3.4c-.2 2.4-.4 4.4-.8 5.8-.4 1.4-.8 2.5-1.3 3.1-.5.7-1.2 1-2 1-.4 0-.7 0-.9-.1v-1.3c.2 0 .3.1.5.1.8 0 1.4-.8 1.9-2.5s.8-4.2 1.1-7.6h6.6v11.3ZM132.5 72.364c-1.7 0-3-.5-3.9-1.5-1-1-1.4-2.4-1.4-4.2 0-1.8.4-3.2 1.3-4.3.9-1.1 2.1-1.6 3.6-1.6 1.4 0 2.5.5 3.3 1.4.8.9 1.2 2.1 1.2 3.7v1.1h-7.7c0 1.3.4 2.3 1 3 .6.7 1.5 1 2.7 1 1.2 0 2.4-.3 3.6-.8v1.5c-.6.3-1.2.4-1.7.6-.6.1-1.2.1-2 .1Zm-.4-10.2c-.9 0-1.6.3-2.2.9-.5.6-.9 1.4-.9 2.4h5.9c0-1.1-.2-1.9-.7-2.5-.6-.5-1.2-.8-2.1-.8ZM149.3 76.064h-1.7v-3.9h-7.9v3.9h-1.6v-5.4h.9c.9-1.2 1.6-2.7 2.2-4.4.6-1.7.8-3.5.8-5.4h5.7v9.8h1.6v5.4Zm-3.2-5.4v-8.4h-2.5c-.1 1.5-.4 3.1-.9 4.6-.5 1.6-1.1 2.8-1.9 3.8h5.3ZM161.3 66.564c0 1.8-.5 3.3-1.4 4.3-.9 1-2.2 1.5-3.8 1.5-1 0-1.9-.2-2.7-.7-.8-.5-1.4-1.1-1.8-2-.4-.9-.6-1.9-.6-3.1 0-1.8.5-3.3 1.4-4.3.9-1 2.2-1.5 3.8-1.5 1.6 0 2.8.5 3.7 1.6.9 1 1.4 2.4 1.4 4.2Zm-8.6 0c0 1.4.3 2.5.9 3.3.6.8 1.4 1.1 2.5 1.1s2-.4 2.5-1.1c.6-.7.9-1.8.9-3.3 0-1.4-.3-2.5-.9-3.3-.6-.7-1.4-1.1-2.6-1.1-1.1 0-2 .4-2.5 1.1-.5.7-.8 1.8-.8 3.3ZM173.4 63.764c0 .7-.2 1.3-.6 1.7-.4.4-1 .6-1.8.8v.1c1 .1 1.7.4 2.1.8.4.4.7 1 .7 1.8 0 1-.4 1.9-1.2 2.4-.8.6-1.9.9-3.4.9h-5v-11.2h4.9c2.9-.1 4.3.8 4.3 2.7Zm-1.7.2c0-.5-.2-.9-.6-1.2-.4-.2-1.1-.3-1.9-.3H166v3.2h2.9c1.1 0 1.8-.1 2.2-.4.4-.3.6-.8.6-1.3Zm.3 4.8c0-.6-.2-1.1-.7-1.3-.5-.3-1.2-.4-2.3-.4h-3.1v3.7h3.1c2 0 3-.7 3-2ZM183.1 72.164l-.3-1.6h-.1c-.6.7-1.1 1.2-1.7 1.4-.6.2-1.3.4-2.1.4-1.1 0-2-.3-2.6-.9-.6-.6-.9-1.4-.9-2.5 0-2.3 1.8-3.5 5.4-3.6l1.9-.1v-.7c0-.9-.2-1.5-.6-2-.4-.4-1-.6-1.8-.6-.9 0-2 .3-3.2.9l-.5-1.3c.6-.3 1.2-.5 1.8-.7.7-.2 1.3-.3 2-.3 1.3 0 2.3.3 3 .9.6.6 1 1.5 1 2.9v7.7h-1.3v.1Zm-3.8-1.2c1.1 0 1.9-.3 2.5-.9.6-.6.9-1.4.9-2.4v-1l-1.7.1c-1.4 0-2.3.3-2.9.6-.6.4-.9 1-.9 1.7 0 .6.2 1.1.6 1.4.3.3.8.5 1.5.5ZM189.6 60.964v4.7h6.3v-4.7h1.7v11.2h-1.7v-5.1h-6.3v5.1h-1.7v-11.2h1.7ZM202.8 60.964v7.1l-.1 1.9v.6l6.1-9.6h2.1v11.2h-1.6v-8.3l.1-1.3-6.1 9.6h-2.1v-11.2h1.6ZM216.1 60.964v7.1l-.1 1.9v.6l6.1-9.6h2.1v11.2h-1.6v-8.3l.1-1.3-6.1 9.6h-2.1v-11.2h1.6Zm3.2-1.5c-1.3 0-2.2-.2-2.8-.7-.6-.5-.9-1.3-1-2.4h1.6c.1.7.2 1.2.6 1.5.3.3.9.4 1.6.4.7 0 1.2-.2 1.6-.5.3-.3.5-.8.6-1.5h1.6c-.1 1.1-.4 1.9-1 2.4s-1.5.8-2.8.8ZM27.776 9.621c.026.058.05.117.075.171.441.94 1.247 1.846 1.247 1.846s.009-.004.013-.008h.004s.116-.088.35-.221l.278-.146c.258-.13.586-.276.998-.422.968-.346 2.262-.455 2.262-.455s-1.206-1.679-1.43-4.11c-.13-1.373-.075-2.095-.059-2.138-.083-.004-.162-.012-.245-.012a3.81 3.81 0 0 0-2.412.857l-.05.037a3.869 3.869 0 0 0-1.263 3.938c.061.196.145.446.232.663ZM34.52 9.956c.246.267.49.384.712.384h.058c.224 0 .47-.117.715-.384.54-.526 1.11-1.412 1.492-2.485.553-1.558.391-2.874-.253-3.496a2.185 2.185 0 0 0-1.148-.547 4.584 4.584 0 0 0-.428-.029 1.723 1.723 0 0 0 1.302-1.67C36.97.772 36.2 0 35.249 0c-.953 0-1.722.772-1.722 1.729 0 .81.553 1.482 1.301 1.67-.145.005-.3.017-.4.03a2.187 2.187 0 0 0-1.146.546c-.645.623-.807 1.938-.254 3.496.382 1.073.952 1.958 1.492 2.485ZM50.956 21.402c.395.627.374 1.412.374 1.412.005.004.794.141 1.185.53 0 0 .063-.059.07-.071.533-.66 1.518-1.742 1.801-3.308.233-1.278.083-3.07-.187-3.641-.009-.021-.017-.055-.03-.071.259-.297.678-.986 1.843-.986.428 0 .81.117 1.118.267.512.247.827.572.827.572s-1.005 1.796-1.53 2.652c-.27.439-.465.781-1.005 1.98-.454.997-.574 1.657-.495 2.376.066.597.382 1.746.52 2.902.261 2.21-.172 3.291-.172 3.291s.01-.008.026-.016c-.005.008-.01.025-.01.025s2.612-1.733 4.259-5.6c-.005 0-.009 0-.017-.005h.004a2.724 2.724 0 0 1-.769-.255 3.57 3.57 0 0 1-.615-.4c-1.464-1.12-1.135-2.314-.657-2.874.133-.163.274-.317.42-.472.366-.392.765-.789 1.18-1.277.53-.619.72-1.237.787-1.78.02-.187.05-.375.05-.571 0-1.625-.786-2.732-1.788-3.287a3.306 3.306 0 0 0-1.048-.376c-1.119-.192-2.49.23-3.493.915-.378.259-1.01.84-1.185 1.278-.22 1.094.108 1.373.437 2.505.009.026.02.042.029.067.687 2.518.333 3.737-1.929 4.218ZM39.747 19.151c.295.627.836 1.236.836 1.236l.004-.003.079.083s.296-.263 1.073-.564c.64-.25 1.464-.338 1.464-.338s-.807-1.128-.961-2.752c-.087-.944-.045-1.428-.037-1.436h-.017v-.01c-.412-.07-.836.013-1.226.197-.267.15-.508.318-.703.497-.35.31-.582.66-.674 1.032a2.47 2.47 0 0 0-.108 1.286c.008.042.15.51.27.772ZM43.322 17.485c.35.973.923 1.791 1.368 1.963.07.03.137.046.2.046.457-.055 1.068-.986 1.363-2.126.275-1.07.088-1.963-.377-2.343a1.91 1.91 0 0 0-.74-.334.391.391 0 0 1-.063-.02c.382-.189.64-.61.615-1.09a1.15 1.15 0 0 0-.699-1.032 1.065 1.065 0 0 0-.432-.08c-.587.03-1.043.565-1.014 1.2.025.48.32.88.714 1.03h.005c-.295.08-.557.226-.77.418-.432.418-.54 1.328-.17 2.368ZM46.465 19.477s1.377.009 2.745.547c.025.008.042.025.066.034.183-.234.45-.606.628-.986.12-.263.262-.73.27-.768a2.486 2.486 0 0 0-.108-1.29c-.091-.376-.324-.723-.67-1.032a4 4 0 0 0-.706-.497c-.004 0-.009 0-.013-.004 0 0-.004-.004-.008-.004a2.083 2.083 0 0 0-1.223-.196c.01.008.05.496-.037 1.436-.153 1.625-.96 2.752-.96 2.752h.02l-.004.008ZM37.522 10.386s1.289.108 2.262.455c.411.145.74.292.998.421l.278.146c.234.134.35.221.35.221h.005a.046.046 0 0 0 .012.009s.806-.907 1.247-1.846a8.34 8.34 0 0 0 .308-.835 3.869 3.869 0 0 0-1.314-3.976 3.817 3.817 0 0 0-2.412-.856c-.082 0-.162.008-.245.012.017.042.071.764-.058 2.138-.23 2.431-1.431 4.11-1.431 4.11Z" fill="#fff"></path><path d="M38.375 14.123s.15.756.241 1.098a.33.33 0 0 1 .092.005c.577-.23 1.7-.568 1.7-.948v-1.207c0-.221-.216-.426-.607-.605-.794-.372-2.282-.631-3.975-.665h-.985c-1.747.017-3.314.28-4.133.665-.387.179-.616.384-.616.605v1.207c0 .38 1.14.718 1.713.948a.36.36 0 0 1 .096-.005c.091-.342.245-1.098.245-1.098s-.124-.05-.145-.1c-.07-.155.058-.242.27-.36.212-.116.562-.187.857-.2.183.668.207 1.708.17 2.602-.078 1.792-.415 4.042-1.476 5.575.404.393.844.902 1.301 1.553 1.098-2.113 1.269-4.426 1.364-6.807.038-1.048-.004-2.276 0-3.115.1 0 .441-.042.778-.042.336 0 .673.042.777.042 0 .84-.042 2.067 0 3.115.091 2.427.262 4.778 1.414 6.92.415-.61.827-1.106 1.206-1.495.025-.037.049-.07.078-.108-1.089-1.533-1.434-3.821-1.513-5.638-.037-.894-.012-1.934.17-2.602.296.013.645.084.858.2.212.118.34.205.27.36-.026.05-.15.1-.15.1ZM53.165 31.05c-.01 0-.01-.01-.017-.01-.017-.003-.033-.008-.05-.003h-.029c-.062.008-.12.012-.178.02-.628.038-1.24-.008-1.743-.208-.287-.092-.533-.255-.769-.426a67.695 67.695 0 0 1-.81-.719c-.462-.434-1.335-1.073-2.237-1.16-1.02-.105-1.672.27-2.4.559a.209.209 0 0 0-.124.171.205.205 0 0 0 .116.197.2.2 0 0 0 .087.025c.72.054 1.41.175 2.063.367.482.15.965.305 1.343.576.499.355.931.81 1.218.994.375.238.707.468 1.131.552.45.079.92.045 1.356-.067.02-.009.042-.013.058-.021.117-.025.229-.071.341-.113.154-.063.3-.13.441-.213.004 0 .008-.004.017-.008.087-.055.183-.096.266-.159 0-.004.004-.004.008-.004a.207.207 0 0 0 .075-.18.189.189 0 0 0-.163-.17Z" fill="#fff"></path><path d="M50.366 24.296c.046.142.2.297.374.397.54.317.736.785-.08.881-.593.071-1.209-.326-3.404.276-1.285.354-2.803 1.662-3.33 2.263a7.319 7.319 0 0 0-.487.627c-.507.739-.503 1.732.045 2.438.329.422.695.693.803.769 1.925 1.307 3.734.225 3.93.024.157-.158.166-.22.136-.258-.004-.009-.009-.004-.012-.009h-.005c-.004-.008-.61.322-1.463.322-.486 0-.981-.084-1.393-.272-.304-.137-.998-.51-1.41-1.17a1.176 1.176 0 0 1 .112-1.37 6.546 6.546 0 0 1 1.082-1.026c.827-.614 1.775-.981 2.877-.998.025 0 .05-.005.079-.005.553 0 1.081.097 1.584.264.25.083.495.183.728.304a5.15 5.15 0 0 1 1.784 1.52l.004-.004.012.013c.18-.31.383-.768.553-1.416a6.04 6.04 0 0 0 .092-.355c.241-1.081.17-3.6-2.213-3.6-.041 0-.087.021-.128.034-.253.067-.316.205-.27.351ZM11.219 18.433c.416.489.815.886 1.18 1.278.146.154.283.309.42.472.475.56.803 1.754-.656 2.873a3.562 3.562 0 0 1-.615.4 2.724 2.724 0 0 1-.77.256h.005c-.009.004-.013.004-.021.004 1.65 3.867 4.262 5.6 4.262 5.6s-.004-.017-.009-.025a.1.1 0 0 1 .025.017s-.432-1.082-.17-3.291c.137-1.157.453-2.305.52-2.903.079-.718-.042-1.378-.495-2.376-.54-1.198-.736-1.541-1.006-1.98-.524-.855-1.53-2.651-1.53-2.651s.312-.326.823-.572c.312-.15.694-.267 1.122-.267 1.165 0 1.585.689 1.842.985-.012.017-.02.05-.029.071-.27.572-.42 2.364-.187 3.642.283 1.566 1.268 2.648 1.8 3.307.008.013.07.071.07.071.388-.388 1.182-.526 1.186-.53 0 0-.02-.785.374-1.412-2.262-.48-2.615-1.7-1.93-4.217.009-.025.022-.042.03-.067.328-1.132.657-1.412.436-2.506-.174-.438-.806-1.019-1.185-1.278-1.002-.685-2.374-1.106-3.492-.915a3.262 3.262 0 0 0-1.048.376c-1.002.556-1.788 1.662-1.788 3.287 0 .197.025.384.05.572.066.543.258 1.16.786 1.779ZM27.115 19.565s.819.088 1.463.338c.777.3 1.073.563 1.073.563l.08-.083.003.004s.54-.61.836-1.236c.12-.263.262-.73.27-.772.084-.451.034-.89-.108-1.287-.091-.371-.325-.722-.674-1.031-.2-.18-.436-.347-.706-.497-.387-.184-.811-.268-1.223-.197v.01h-.016c.008.007.05.491-.042 1.436-.15 1.624-.956 2.752-.956 2.752ZM25.426 19.494a.503.503 0 0 0 .196-.046c.449-.172 1.023-.99 1.372-1.963.37-1.04.262-1.95-.17-2.368a1.89 1.89 0 0 0-.77-.417c.4-.15.695-.551.72-1.032.025-.634-.428-1.169-1.015-1.198-.153-.004-.299.025-.432.079-.39.159-.682.556-.703 1.031-.02.48.237.902.62 1.09-.02.009-.042.018-.063.021a1.896 1.896 0 0 0-.74.334c-.465.38-.656 1.274-.378 2.343.295 1.14.906 2.072 1.363 2.126ZM20.412 19.072c.179.38.445.752.628.985.025-.008.042-.025.066-.033a8.56 8.56 0 0 1 2.74-.547l-.003-.009h.02s-.802-1.127-.956-2.752c-.088-.94-.05-1.428-.037-1.436a2.094 2.094 0 0 0-1.227.196l-.004.004c-.005.004-.009.004-.013.004a4.02 4.02 0 0 0-.707.497c-.345.31-.578.656-.67 1.031a2.486 2.486 0 0 0-.107 1.29c.008.04.15.507.27.77ZM25.306 29.496a.191.191 0 0 0 .087-.025.207.207 0 0 0 .117-.197.209.209 0 0 0-.125-.171c-.732-.289-1.38-.664-2.4-.56-.902.088-1.775.727-2.236 1.161-.117.105-.753.672-.81.719-.238.171-.487.334-.77.426-.507.2-1.115.246-1.742.208-.059-.008-.117-.012-.18-.02h-.028a.098.098 0 0 0-.05.004c-.009 0-.009.008-.017.008a.194.194 0 0 0-.166.171.209.209 0 0 0 .079.18c.004 0 .004 0 .008.004.083.063.179.105.266.159.009.004.013.008.017.008.137.084.287.15.44.213.113.042.221.088.338.113.02.008.041.012.062.02.436.113.902.147 1.355.068.425-.084.757-.314 1.131-.552.287-.184.716-.639 1.219-.994.378-.271.857-.426 1.343-.576a9.922 9.922 0 0 1 2.062-.367Z" fill="#fff"></path><path d="M17.34 27.512c.028.125.057.242.09.354.171.648.375 1.107.554 1.416l.012-.012.004.004a5.112 5.112 0 0 1 2.512-1.825 4.977 4.977 0 0 1 1.583-.263c.03 0 .055.004.08.004 1.101.017 2.05.384 2.877.998a6.54 6.54 0 0 1 1.08 1.027c.321.389.38.94.114 1.37-.412.66-1.107 1.032-1.41 1.17-.412.188-.906.271-1.393.271-.852 0-1.46-.33-1.463-.322h-.005c-.004.005-.008 0-.012.01-.034.037-.021.1.137.258.195.2 2.004 1.282 3.929-.025.108-.075.474-.347.798-.768.553-.706.557-1.7.05-2.44a6.549 6.549 0 0 0-.49-.626c-.524-.6-2.042-1.908-3.326-2.263-2.196-.601-2.816-.205-3.406-.276-.814-.096-.623-.563-.079-.88.175-.1.329-.255.375-.397.046-.147-.017-.285-.27-.351-.042-.013-.088-.033-.13-.033-2.382 0-2.453 2.517-2.212 3.599ZM46.32 64.417l.005.027c.004 0 .01.005.014 0-.005-.01-.01-.019-.019-.027ZM36.512 40.028c.08.159.391.409.458.898.008.05 1.201-1.274 1.201-1.274v-1.274l-1.272.543-.387 1.107ZM28.728 73.412c.578-.154 1.106-.33 1.663-.547.275-.109.553-.23.828-.368.278-.142.553-.305.819-.493.262-.183.507-.418.715-.68a2.28 2.28 0 0 0 .366-.673l.054-.208v-.009a.283.283 0 0 0-.204-.342.322.322 0 0 0-.3.1 1.934 1.934 0 0 1-.56.455 3.45 3.45 0 0 1-.641.255c-.466.134-.977.205-1.501.276-.515.066-1.077.12-1.593.171-.515.05-1.035.075-1.567.096l-1.65.05c-.57.034-1.17.063-1.851.222-.258.062-.54.137-.828.275a2.417 2.417 0 0 0-.29.16c-.375.233-.75.612-.932 1.056a2.107 2.107 0 0 0-.141 1.253c.087.375.237.697.507.98a.365.365 0 0 0 .403.08c.042-.016.162-.12.162-.12.475-.77 1.489-1.182 1.689-1.228.819-.197 1.991-.246 3.122-.413a15.503 15.503 0 0 0 1.73-.348ZM23.564 70.225a.274.274 0 0 0 .254.297.278.278 0 0 0 .175-.046l.008-.008h.004l.091-.063c.129-.088.262-.159.395-.222a3.07 3.07 0 0 1 1.218-.259c.554-.02 1.115.05 1.763.167.7.126 1.485.18 2.25.122A6.31 6.31 0 0 0 30.899 70c.2-.067.399-.134.607-.243 0-.004.004-.004.004-.004.004 0 .008-.004.012-.004.188-.109.45-.247.583-.54a.218.218 0 0 0-.113-.296.115.115 0 0 0-.05-.017s-.777-.145-1.093-.237l-.985-.255a25.955 25.955 0 0 0-2.042-.434c-.769-.135-1.684-.13-2.536.204a3.131 3.131 0 0 0-.316.146c-.728.373-1.348 1.05-1.406 1.905ZM24.674 67.486c.038-.009.491-.172.704-.243h-.005c.008-.004-2.665-.972-1.148-2.702l.005-.066c-.005.004-.009-.012-.013-.009a1.473 1.473 0 0 0-.748.088 1.519 1.519 0 0 0-.624.472c-.723.902.27 1.883.295 1.904-.146-.013-.503-.067-.653-.084-.644-.442-1.717-1.536-.178-3.85-.042-.004-.08-.004-.117-.009-.224-.012-.44.03-.644.122a2.85 2.85 0 0 0-.345.142c-.757.371-1.273 1.09-1.273 1.92 0 .343.091.66.245.948.113.21.258.393.433.56-.112-.012-.603-.042-.72-.075-.702-.814-1.48-2.334.022-4.114-.042-.004-.08-.008-.117-.008a1.416 1.416 0 0 0-.645.121c-.136.05-.261.108-.382.18-.827.476-1.235 1.386-1.235 2.138 0 .342.12.893.245 1.198.986 2.424 5.639 1.689 6.898 1.367ZM48.345 72.15a2.437 2.437 0 0 0-.29-.158 4.102 4.102 0 0 0-.828-.276c-.686-.158-1.28-.188-1.855-.221l-1.646-.05a26.688 26.688 0 0 1-1.572-.096c-.511-.05-1.073-.105-1.589-.172-.523-.07-1.035-.142-1.5-.276a3.46 3.46 0 0 1-.64-.254 1.907 1.907 0 0 1-.566-.455.279.279 0 0 0-.13-.088.32.32 0 0 0-.166-.013.283.283 0 0 0-.208.343l.005.008.05.209c.029.075.066.163.103.242.076.154.158.3.266.43.208.263.45.498.715.68.267.189.541.352.82.494.274.137.548.259.827.367.557.217 1.081.393 1.659.547.578.155 1.16.263 1.734.347 1.127.167 2.303.217 3.122.413.196.046 1.215.46 1.689 1.228 0 0 .116.104.162.121.137.059.295.03.403-.08.266-.283.42-.605.504-.98a2.07 2.07 0 0 0-.138-1.254c-.183-.442-.557-.822-.931-1.055ZM39.01 69.75s.009.004.013.004h.004c.204.113.407.18.607.246.395.108.79.184 1.176.213a9.09 9.09 0 0 0 2.25-.121c.648-.117 1.21-.188 1.762-.167.404.008.811.075 1.219.259.133.062.262.133.395.221l.087.063h.005l.012.009c.05.033.108.05.175.045a.274.274 0 0 0 .253-.297c-.059-.856-.682-1.532-1.405-1.904a3.639 3.639 0 0 0-.316-.146c-.852-.334-1.767-.338-2.537-.205-.723.121-1.367.267-2.041.435l-.99.254c-.316.092-1.09.238-1.09.238a.138.138 0 0 0-.053.017.225.225 0 0 0-.113.297c.134.292.4.43.587.539ZM51.763 62.784a2.09 2.09 0 0 0-.379-.18 1.42 1.42 0 0 0-.761-.112c1.501 1.779.723 3.299.02 4.113-.116.033-.606.063-.723.076.175-.168.325-.351.437-.56.15-.288.245-.606.245-.948 0-.831-.515-1.55-1.272-1.921a3.116 3.116 0 0 0-.346-.142 1.376 1.376 0 0 0-.644-.121c-.037.004-.079.004-.117.009 1.54 2.313.466 3.407-.178 3.85-.15.017-.508.07-.657.083.029-.02 1.022-1.002.299-1.904a1.544 1.544 0 0 0-.623-.472 1.472 1.472 0 0 0-.75-.087c-.003-.005-.008.012-.012.008l.005.067c1.517 1.729-1.156 2.697-1.148 2.702h-.004c.212.07.665.234.703.242 1.255.322 5.912 1.057 6.898-1.366.12-.305.245-.856.245-1.198 0-.753-.407-1.663-1.238-2.14ZM39.605 55.68c-.026-.033-.108-.05-.108-.05a.169.169 0 0 0-.113.012 1.935 1.935 0 0 0-.495.443c-.112.15-.207.309-.266.468-.058.158-.103.321-.07.492.041.172.124.351.361.547.055.046.258.122.4.076.291-.096.436-.23.54-.376.096-.146.113-.313.117-.484a1.73 1.73 0 0 0-.07-.53 1.938 1.938 0 0 0-.296-.598Z" fill="#fff"></path><path d="M39.992 46.146c-.004-.004-.009-.009-.009-.013l-.078.05a4.113 4.113 0 0 0-.978.623c-1.292 1.102-2.411 3.161-2.898 5.63-.466 2.364-.25 4.556.461 6.017.474.97 1.164 1.62 2.021 1.767.844.142 1.722-.221 2.523-.948 1.244-1.128 2.304-3.124 2.774-5.512.482-2.44.237-4.707-.533-6.16-.47-.894-1.134-1.487-1.954-1.625-.435-.076-.884-.009-1.329.17Zm-2.756 6.406c.028-.167.137-.651.17-.81.009.009.108.26.358.43.295.2.478.209.623.23 0 0-.212-.305-.266-.698a1.554 1.554 0 0 1 .167-.902c.12.2.719 1.662.952 2.147-.042.13-.08.263-.108.41-.017.078-.026.153-.034.233-.008.046-.016.087-.02.13-.038.037-1.672 2.029-2.059 2.425-.224-1.357.042-2.596.217-3.595Zm1.588 6.423c-.553-.071-.86-.392-1.04-.606-.507-.593-.565-1.16-.569-1.165l1.971-2.414c.104.3.324.406.383.413.004 0 .004.005.008.005.183.038.374-.071.553-.271.05.125 1.193 2.242 1.239 2.276-.716 1.173-1.805 1.858-2.545 1.762Zm3.854-5.162a9.03 9.03 0 0 1-.3 1.232c-.103.33-.29.806-.427 1.102-.27-.363-.786-1.231-1.323-2.221.021-.084.046-.172.063-.26.033-.179.054-.354.063-.517.552-.547 1.076-1.186 1.63-1.813 0 0 .253.251.161.698-.082.418-.465.68-.465.68.358.01.503.026.823-.112-.038.326-.167.873-.225 1.211Zm-.731-6.076c.095.088.182.192.27.305.033.054.054.087.079.137l.1.192c.178.376.29.765.377 1.22a.66.66 0 0 0-.24-.038c-1.081-.029-1.68.59-1.864 1.558 0 0 .346-.263.637-.338.258-.063.62-.017.62-.017-.408.497-.844.977-1.298 1.45-.087-.218-.22-.36-.382-.393-.179-.034-.366.066-.537.254-.183-.409-.599-1.436-.686-1.678 0 0 .316-.03.578.091.291.135.578.506.578.506.046-.238 0-.697-.083-.952-.17-.527-.557-.86-1.193-.944a1.581 1.581 0 0 0-.374.008c.486-.755 1.048-1.311 1.613-1.587-.159 1.195 1.472 1.437 1.804.226Z" fill="#fff"></path><path d="M70.467 40.852a.783.783 0 0 0-.4-.48.774.774 0 0 0-.61-.067l-.038.009c-.923.275-1.887.567-2.835.785a44.76 44.76 0 0 1-1.422.338c-.47.1-.936.18-1.447.25-.994.13-1.992.243-2.99.33-.636.054-1.293.097-1.929.125.092-.024.183-.045.28-.074a26.7 26.7 0 0 0 .818-.238c.537-.172 1.065-.351 1.589-.543a53.156 53.156 0 0 0 3.072-1.25c1.01-.434 2.075-.93 3.01-1.536.949-.627 1.834-1.282 2.665-2.096a.81.81 0 0 0 .134-.978.787.787 0 0 0-.35-.322.795.795 0 0 0-.76.021l-.034.02c-.873.506-1.8 1.028-2.723 1.475-.936.46-1.826.898-2.823 1.24-.986.347-1.996.673-3.002.953-.504.142-1.007.271-1.506.388l-.333.071c.254-.109.5-.221.74-.338a28.189 28.189 0 0 0 1.58-.844c1.023-.593 2-1.227 2.957-1.884.977-.663 1.954-1.386 2.807-2.209.847-.839 1.63-1.7 2.316-2.714.199-.3.182-.714-.071-.994a.78.78 0 0 0-.266-.188.787.787 0 0 0-.881.13l-.03.025c-.785.718-1.63 1.457-2.486 2.109-.864.668-1.708 1.32-2.652 1.862-.175.105-.358.2-.533.301-.785.447-1.58.877-2.378 1.266-.158.075-.312.145-.465.217-.292.134-.587.259-.878.38.054-.037.109-.071.162-.109.341-.242.666-.497.982-.752.174-.142.35-.283.52-.43a39.95 39.95 0 0 0 2.648-2.506c.012-.012.025-.02.033-.033.89-.907 1.722-1.846 2.428-2.878.695-1.043 1.319-2.096 1.805-3.294a.803.803 0 0 0-.279-.957c-.004-.004-.012-.004-.016-.008a.792.792 0 0 0-1.114.192l-.026.034a34.788 34.788 0 0 1-2.091 2.722c-.22.263-.445.522-.67.781-.523.602-1.064 1.186-1.654 1.708-.291.26-.59.51-.89.765a37.04 37.04 0 0 1-1.634 1.32c.083-.114.17-.226.253-.339.462-.635.882-1.278 1.29-1.925.278-.451.552-.902.819-1.357a23.95 23.95 0 0 0 1.264-2.427c.166-.372.324-.747.46-1.127.446-1.245.804-2.48.99-3.826a.798.798 0 0 0-.52-.864l-.008-.004c-.004 0-.004-.005-.012-.005a.796.796 0 0 0-1.019.485l-.012.042a34.202 34.202 0 0 1-1.181 2.881c-.071.15-.133.305-.204.455-.499 1.024-1.015 2.034-1.622 2.982-.032.055-.066.113-.103.172a44.697 44.697 0 0 1-1.41 1.95c-1.493 1.67-4.012 3.34-5.372 4.009-.665.322-1.339.764-2.02 1.098-.01.004-.022.013-.03.017-.457.221-.852.58-1.085 1.036a2.723 2.723 0 0 0-.146.359c-.07.22-.116.455-.116.701 0 .873.474 1.712 1.19 2.088.236.13.498.205.78.213.046 0 .084-.005.125-.008.245-.026.379-.134.379-.134s-.191-.514.1-.744c.049-.033.1-.062.153-.083.137-.062.283-.096.44-.096.15 0 .288.03.417.08.378.17.644.547.644.99 0 .546-.407.994-.931 1.064-.242.096-.698.109-.99.109a9.518 9.518 0 0 1-4-.885c-.852-.393-2.415-1.542-2.39-1.608-1.61-1.5-2.624-3.558-2.711-5.839-.005-.104-.017-.209-.017-.313 0-.33.021-.685.063-1.002.062-.564.19-1.116.366-1.65a8.508 8.508 0 0 1 1.397-2.614c.063-.075.336-.38.69-.731.02-.021.046-.042.066-.063.005-.004.005-.008.01-.012.394-.389.868-.823 1.276-1.086 0 0-.005 0-.005-.004h.005c-.026-.017-.071-.058-.117-.1a3.745 3.745 0 0 1-.134-.142c-.74-.072-1.002-.426-1.126-.723-.004-.012-.009-.02-.013-.029-.008-.025-.02-.05-.029-.071a1.611 1.611 0 0 1-.02-.497c.054-.276.22-.547.357-.68.066-.076.137-.143.208-.197.224-.175.478-.267.748-.322.067-.012.133-.024.2-.033.012 0 .021-.004.029-.004.686-.072 1.363.225 1.638.931v.005c-.038.029-.432.104-.432.104h-.005c-.141-.305-.374-.43-.648-.41a.946.946 0 0 0-.287.068.511.511 0 0 0-.166.1c-.441.375-.055 1.332.56 1.399a.705.705 0 0 0 .3-.042c.004 0 .008-.005.012-.005.267-.108 1.971-.517 2.998-.68.196-.03.37-.054.503-.063 0 0 .009-.004.012-.008h.005c.174-.292.183-2.192-1.31-2.814-1.176-.49-2.203-.569-3.127-.569-.84-.004-1.605.084-2.386.26-3.036.668-4.885 2.434-6.578 6.256-1.144 2.259-1.555 4.426-1.721 5.023 0 0-.063 0-.171.005-.17-.643-.582-2.798-1.709-5.024-1.692-3.821-3.55-5.588-6.586-6.26a10.97 10.97 0 0 0-2.395-.26c-.927.005-1.95.084-3.13.573-1.494.618-1.486 2.522-1.306 2.81.004.005.008.005.012.009.129.008.303.033.503.063 1.027.162 2.732.572 2.998.68.004 0 .008.004.013.004.104.038.203.05.3.042.673-.075 1.076-1.228.398-1.495a.958.958 0 0 0-.287-.07c-.274-.022-.511.108-.652.408 0 0-.42-.075-.441-.1l.004-.008c.274-.706.952-1.003 1.638-.932.008 0 .017.005.025.005.07.008.137.02.204.033.358.07.69.217.956.522a1.4 1.4 0 0 1 .362.68c.013.046.017.385-.025.497-.004.021-.017.046-.025.071l-.013.026c-.125.3-.386.655-1.127.726-.029.033-.083.088-.133.138a.975.975 0 0 1-.12.104c.432.285.943.756 1.35 1.161.358.355.633.66.691.735a8.528 8.528 0 0 1 1.767 4.264c.038.317.063.68.063 1.006 0 .105-.012.218-.017.322-.008.188-.025.376-.041.564-.204.956-.628 2.505-1.414 3.817a4.431 4.431 0 0 1-.12.18h.012a5.74 5.74 0 0 1-1.056 1.26c.024.067-1.54 1.215-2.387 1.608a9.593 9.593 0 0 1-4.004.886c-.291 0-.749-.013-.985-.11a1.075 1.075 0 0 1-.936-1.064c0-.443.266-.819.645-.99.128-.05.27-.08.415-.08.158 0 .308.034.441.097a.78.78 0 0 1 .154.083c.291.23.1.744.1.744s.137.108.383.133c.037.004.074.008.12.008a1.74 1.74 0 0 0 .786-.212c.71-.376 1.184-1.216 1.184-2.088 0-.247-.045-.48-.116-.702a2.675 2.675 0 0 0-.146-.359 2.366 2.366 0 0 0-1.08-1.036c-.013-.004-.021-.012-.034-.016-.678-.334-1.355-.777-2.017-1.099-1.363-.668-3.879-2.338-5.372-4.009a41.84 41.84 0 0 1-1.414-1.95c-.033-.058-.066-.117-.104-.171-.602-.948-1.122-1.959-1.617-2.982-.074-.15-.133-.305-.203-.455-.441-.948-.849-1.93-1.186-2.882l-.012-.041a.792.792 0 0 0-1.019-.485c-.004 0-.008.004-.012.004 0 0-.004 0-.004.004a.8.8 0 0 0-.524.865c.19 1.345.549 2.58.99 3.825.14.38.299.756.465 1.128.37.83.794 1.637 1.264 2.426.266.455.536.906.82 1.357.403.648.827 1.29 1.284 1.926.083.112.171.225.258.338a37.293 37.293 0 0 1-1.638-1.32c-.299-.254-.595-.505-.89-.764-.586-.522-1.127-1.107-1.654-1.708-.225-.26-.45-.518-.67-.781a34.814 34.814 0 0 1-2.091-2.723l-.025-.033a.793.793 0 0 0-1.115-.192c-.004.004-.008.004-.012.008a.8.8 0 0 0-.283.956c.49 1.198 1.11 2.251 1.809 3.295.707 1.031 1.538 1.971 2.424 2.877.012.013.025.021.033.034.84.86 1.713 1.704 2.653 2.506.17.146.345.288.52.43.316.255.636.51.981.752.05.037.104.07.158.109a26.156 26.156 0 0 1-1.339-.598A40.75 40.75 0 0 1 8.69 34.53c-.179-.1-.357-.197-.537-.301-.943-.543-1.787-1.194-2.648-1.863-.86-.651-1.705-1.39-2.49-2.109l-.03-.025a.785.785 0 0 0-.881-.13.76.76 0 0 0-.262.189.809.809 0 0 0-.07.994c.686 1.014 1.467 1.875 2.315 2.714.849.823 1.826 1.545 2.807 2.209.957.656 1.934 1.29 2.952 1.884a28.43 28.43 0 0 0 1.584.843c.237.117.487.23.74.339l-.336-.071a34.435 34.435 0 0 1-1.505-.389 49.052 49.052 0 0 1-3.002-.952c-.998-.342-1.884-.78-2.82-1.24-.922-.447-1.85-.97-2.727-1.474l-.033-.021a.787.787 0 0 0-.757-.02.789.789 0 0 0-.35.32.798.798 0 0 0 .134.978c.827.815 1.717 1.47 2.66 2.096.94.606 2 1.103 3.015 1.537 1.01.447 2.025.865 3.073 1.25.52.191 1.047.371 1.588.542.27.083.541.163.82.238.095.029.187.05.278.075a49.75 49.75 0 0 1-1.933-.125c-.994-.087-1.995-.2-2.99-.33-.51-.07-.972-.15-1.446-.25a44.21 44.21 0 0 1-1.417-.339c-.948-.217-1.917-.51-2.84-.785l-.034-.009a.785.785 0 0 0-.615.067.809.809 0 0 0-.4.48.808.808 0 0 0 .35.915c.936.58 1.888 1.003 2.886 1.395.99.38 2.087.622 3.093.83a68.55 68.55 0 0 0 3.073.598c.927.154 1.83.288 2.798.389-.59.07-1.18.137-1.775.2a93.5 93.5 0 0 1-2.857.234c-.237.017-.47.025-.715.033l-.686.013-1.38-.026c-.928-.012-1.884-.08-2.803-.13h-.029a.81.81 0 0 0-.457.114.806.806 0 0 0 .137 1.462c.977.338 1.942.538 2.944.701.503.075 1.006.121 1.517.142.254.013.512.017.77.021l.735.012c.982.022 1.967.025 2.948.013.683-.009.828-.009 1.514-.033l.087.296a86.712 86.712 0 0 1-3.023.907c-.885.25-1.721.413-2.59.592-.86.196-1.755.351-2.624.53l-.021.01a.803.803 0 0 0-.64.956.8.8 0 0 0 .715.642c.964.088 1.896.064 2.852 0 .948-.062 1.909-.28 2.811-.446.91-.171 2.253-.489 3.156-.68l.07.229c-.374.217-1.189.651-1.563.86-.378.209-.752.397-1.127.585-.374.18-.748.359-1.118.547h-.004c-.004.004-.009.004-.013.009-.752.388-1.53.764-2.283 1.169l-.012.009a.808.808 0 0 0 .536 1.503c.886-.171 1.726-.422 2.578-.697.844-.285 1.663-.677 2.47-1.032.212-.092 1.052-.456 1.268-.551l.142.672c-.13.092-.6.422-.603.426l-.928.806a18.903 18.903 0 0 0-1.725 1.783.816.816 0 0 0 .091 1.149.8.8 0 0 0 .898.1c.005 0 .009-.004.013-.004l.004-.004a17.668 17.668 0 0 0 2.116-1.303l.707-.413c.004.012.39 2.347.49 3.31.317 3.012.225 6.478.55 6.883.27.338.81.263 1.292.276-.033-.113-.05-.221-.074-.334 0-.009.004-.021 0-.034-.345-1.611.133-2.806.428-3.29.004-.01.004-.017.008-.026a.965.965 0 0 0 .034-.13c-.109-1.916-.362-5.006-.794-7.404-.687-3.825-1.838-9.951-2.167-11.684a.294.294 0 0 1 .08-.263.32.32 0 0 1 .282-.071c1.168.296 3.085.472 4.324.551.928.063 3.135.059 5.414-.643-.965 2.284-1.518 4.907-1.518 7.692 0 5.467 2.113 10.299 5.331 13.197-.383.059-.665.113-.744.142-.828.293-1.477.71-1.842.923a.044.044 0 0 0-.021.02.437.437 0 0 0-.075.034c-.125.071-.133.213-.104.355.087.392.304.885.52 1.178.045.066.091.129.17.133 3.01.15 5.222.38 6.994 1.508a.112.112 0 0 1 .025.017c.045.029.091.066.141.1.836.66 1.173 2.03.49 3.006-.236.243-.477.48-.723.701a12.204 12.204 0 0 1-2.656 1.78c-.94.46-1.921.743-2.915.89-1.002.183-2.005.317-3.31.626l-.008.004a.3.3 0 0 0-.117.054.317.317 0 0 0-.137.334.384.384 0 0 0 .08.147c.96 1.04 2.378 1.448 3.741 1.374 1.036-.08 2.042-.38 2.957-.82a9.54 9.54 0 0 0 3.75-3.199l.046-.07c-.004.012-.008.025-.008.037-.171.585-.728 2.126-1.173 2.64-.449.521-.86 1.019-1.339 1.411a6.407 6.407 0 0 1-1.143.752 6.9 6.9 0 0 1-.424.188c-.599.25-1.29.413-2.1.59h-.009a.37.37 0 0 0-.108.05.299.299 0 0 0-.02.496c.72.514 1.63.756 2.573.698a4.348 4.348 0 0 0 1.406-.33c.444-.18.865-.435 1.23-.74.126-.1.22-.212.333-.325.208.413.428.831.587 1.244.212.493.378.99.648 1.483.059.113.196.163.246.154 0 .009.212-.042.274-.154.27-.493.461-.99.67-1.483.162-.413.383-.83.59-1.244.108.113.208.226.328.326.37.304.79.56 1.236.739.449.188.927.3 1.4.33.945.058 1.855-.184 2.574-.698a.304.304 0 0 0 .12-.18.305.305 0 0 0-.136-.317.466.466 0 0 0-.113-.05h-.004c-.81-.175-1.501-.338-2.104-.589a5.607 5.607 0 0 1-.42-.188 6.398 6.398 0 0 1-1.148-.752c-.474-.392-.885-.89-1.338-1.411-.445-.514-1.003-2.055-1.169-2.64a.115.115 0 0 1-.008-.037c.012.025.029.046.041.07a9.566 9.566 0 0 0 2.861 2.711c.287.176.583.338.89.489.919.438 1.921.739 2.956.819 1.368.075 2.786-.335 3.747-1.374a.376.376 0 0 0 .075-.147.311.311 0 0 0-.138-.334.272.272 0 0 0-.116-.054l-.004-.004c-1.31-.31-2.308-.443-3.31-.626a9.89 9.89 0 0 1-2.919-.89 12.219 12.219 0 0 1-2.657-1.78c-.241-.22-.486-.459-.719-.7-.686-.978-.35-2.348.49-3.007.046-.034.092-.071.142-.1a.093.093 0 0 1 .025-.017c1.771-1.128 3.983-1.357 6.99-1.508.079-.004.124-.066.174-.133.212-.293.428-.786.516-1.178.029-.142.02-.284-.104-.355a.394.394 0 0 0-.075-.033.09.09 0 0 0-.026-.021c-.365-.213-1.018-.63-1.85-.923-.075-.03-.35-.08-.707-.138 3.223-2.893 5.339-7.73 5.339-13.2 0-2.786-.553-5.4-1.518-7.689 2.266.694 4.458.702 5.38.64 1.24-.08 3.16-.255 4.329-.552a.314.314 0 0 1 .279.071c.066.067.1.158.082.263a1516.17 1516.17 0 0 0-2.17 11.685c-.428 2.397-.686 5.487-.79 7.404 0 .021.025.117.033.13.005.008 0 .016.005.025.299.484.773 1.679.428 3.29 0 .013.004.026 0 .034-.025.113-.037.221-.07.335.481-.013 1.018.062 1.288-.276.324-.406.237-3.872.553-6.883.1-.964.487-3.299.487-3.311l.706.413c.67.48 1.377.915 2.117 1.303l.008.005c.005 0 .005.004.009.004.286.15.644.12.902-.1a.816.816 0 0 0 .087-1.15 18.815 18.815 0 0 0-1.721-1.782l-.932-.807c0-.004-.47-.334-.602-.426l.145-.672c.212.096 1.056.46 1.268.551.803.355 1.622.748 2.47 1.032.848.276 1.692.526 2.578.697a.808.808 0 0 0 .532-1.503l-.012-.009c-.749-.405-1.526-.78-2.279-1.169-.004-.004-.008-.004-.016-.009-.375-.188-.75-.367-1.119-.546a26.536 26.536 0 0 1-1.127-.586c-.378-.208-1.189-.643-1.567-.86l.075-.23c.902.192 2.24.51 3.152.681.906.167 1.866.385 2.814.447.952.063 1.884.088 2.852 0a.801.801 0 0 0 .715-.643.805.805 0 0 0-.474-.902 1.08 1.08 0 0 0-.166-.054l-.025-.01c-.865-.178-1.76-.333-2.624-.53-.869-.179-1.705-.342-2.586-.592a86.833 86.833 0 0 1-3.027-.906l.091-.297c.682.025.832.025 1.51.033.985.012 1.966.009 2.952-.012l.736-.013c.254-.004.511-.008.765-.02.511-.021 1.019-.067 1.517-.142 1.003-.163 1.971-.364 2.949-.702a.817.817 0 0 0 .54-.806.821.821 0 0 0-.861-.769h-.033c-.919.05-1.87.117-2.798.13l-1.385.025-.681-.012a20.215 20.215 0 0 1-.72-.034 95.504 95.504 0 0 1-2.856-.233c-.59-.064-1.185-.13-1.771-.201.968-.1 1.87-.234 2.798-.388 1.03-.176 2.05-.376 3.068-.598 1.01-.208 2.108-.45 3.094-.83 1.002-.393 1.954-.815 2.89-1.396a.812.812 0 0 0 .344-.914Zm-34.951 24.63c-.012 0-.025-.003-.042-.003-3.575-.017-6.735-2.43-8.648-6.105.89-1.509 2.732-4.803 2.732-4.803.175.677 1.201 5.14 1.201 5.14s-1.3.565-.644.97c.657.4 2.054.104 2.054.104s.353.322.736.59c.457.346.969.6 1.526.751.212.08.353.13.353.13s-.128.618.071.94c.075.124.15.233.4.233.07 0 .145-.017.215-.041a1.72 1.72 0 0 0 .545-.377c.299-.313.407-.534.632-.835-.012-.012 0-.033.02-.054.533-.146 1.094-.342 1.627-1.01-1.298-.51-2.4-1.7-2.823-3.671-.154-.719-.242-1.5-.25-2.327a14.21 14.21 0 0 1 .233-2.697c.004-.034.012-.063.017-.096.61-3.224 2.606-5.688 3.185-5.902-.18-.409-.105-1.461-1.502-2.041-.303-.126-1.239-.184-1.326-.614.44-.3.777-.865.857-1.545.112-.911-.27-1.73-.882-2.022.15-.334.507-.793.507-.793l-.698-.752-.142.075-.76.41s.228.655.228 1.01c-.603.205-1.047.676-1.151 1.525-.05.413.174 1.056.644 1.528.254.255.303.472.146.626-.341.346-1.056.263-1.422.798-.229.338-.508 1.119-.508 1.119-.174.35-1.185 2.79-1.683 3.65-.125.213-.628 1.01-.628 1.01s-.22.155-.466.355c-.2.158-.416.35-.549.526-.386.489-.228 1.374.005 1.746l-2.948 5.408c-.113-.246-.171-.384-.171-.384-.828-2.03-1.297-4.36-1.297-6.836 0-7.576 4.416-13.79 9.97-14.233h1.289c.611.05 1.21.172 1.788.355.307.1.603.213.898.343 4.22 1.883 7.272 7.237 7.272 13.535 0 7.867-4.757 14.265-10.611 14.265Zm-1.09-15.447s-2.066.785-3.052 1.182l2.013-3.504c.008.017.096.493.914.836-.024.13.125 1.486.125 1.486Z" fill="#fff"></path><path d="M18.217 52.861h-.686v-.551h1.339v2.664h-.653V52.86ZM19.801 55.684l1.43-2.785H19.66v-.59h2.229v.46l-1.522 3.107-.566-.192ZM48.403 54.498c.337-.26 1.343-.864 1.343-1.228 0-.288-.204-.372-.49-.372-.246 0-.508.092-.628.142l-.158-.455c.129-.083.482-.205.81-.205.861 0 1.077.443 1.077.869 0 .572-.765 1.04-1.164 1.257h1.293v.51h-2.083v-.518ZM52.224 55.016H50.79v-.514l1.151-2.05h.907v2.05h.486v.514h-.486v.898h-.624v-.898Zm0-.514v-1.39l-.782 1.39h.782Z" fill="#fff"></path></svg><svg fill="none" id="LogoIKIsmall" viewBox="0 0 53 61"><path fill-rule="evenodd" clip-rule="evenodd" d="M21.352 7.29c.018.045.036.087.054.126.327.693.924 1.364.924 1.364l.01-.008.002.002s.086-.065.26-.164a5.69 5.69 0 0 1 .945-.42c.72-.254 1.676-.335 1.676-.335s-.89-1.24-1.059-3.032c-.095-1.015-.056-1.548-.045-1.58-.06-.002-.12-.008-.18-.008-.678 0-1.299.237-1.789.63l-.036.03a2.847 2.847 0 0 0-.937 2.905c.046.145.11.332.175.49Zm4.996.247c.181.196.363.282.528.282h.043c.165 0 .347-.086.53-.282.4-.387.82-1.042 1.105-1.834.41-1.148.291-2.118-.189-2.578a1.611 1.611 0 0 0-.85-.404 3.627 3.627 0 0 0-.318-.02 1.273 1.273 0 0 0-.31-2.51 1.274 1.274 0 1 0-.313 2.51c-.107.003-.219.01-.293.02a1.618 1.618 0 0 0-.85.404c-.48.46-.6 1.43-.19 2.578.285.792.706 1.447 1.107 1.834Zm12.178 8.445c.292.463.278 1.043.278 1.043.004 0 .59.102.88.39l.051-.052c.395-.487 1.124-1.284 1.334-2.442.171-.943.06-2.264-.139-2.686-.007-.015-.013-.038-.02-.051.188-.22.5-.727 1.364-.727.317 0 .6.086.83.195.378.183.611.424.611.424s-.744 1.325-1.134 1.957c-.2.323-.345.574-.746 1.458-.334.737-.424 1.226-.366 1.753.048.443.283 1.29.385 2.142.195 1.632-.127 2.429-.127 2.429l.02-.013-.008.019s1.935-1.278 3.158-4.131l-.013-.003.001-.003a2.048 2.048 0 0 1-.57-.185 2.949 2.949 0 0 1-.456-.296c-1.082-.828-.838-1.708-.486-2.122.1-.118.204-.232.311-.347.273-.291.567-.583.876-.944.39-.455.532-.91.582-1.312.017-.138.036-.277.036-.42 0-1.2-.582-2.017-1.323-2.426a2.454 2.454 0 0 0-.777-.277c-.83-.143-1.846.169-2.588.674-.282.193-.748.62-.879.942-.162.809.08 1.015.325 1.85.005.018.015.03.02.048.51 1.859.248 2.759-1.43 3.113Zm-8.305-1.661c.218.464.618.913.618.913l.004-.003.06.059s.217-.191.793-.415c.476-.185 1.084-.25 1.084-.25s-.597-.83-.709-2.03c-.065-.694-.036-1.054-.03-1.06h-.013l.001-.005a1.53 1.53 0 0 0-.907.145 2.898 2.898 0 0 0-.524.365c-.257.229-.43.486-.497.76a1.811 1.811 0 0 0-.08.953c.006.029.11.375.2.568Zm2.65-1.23c.257.72.684 1.324 1.014 1.45.046.02.095.032.145.034.341-.04.794-.728 1.012-1.571.205-.788.066-1.447-.279-1.726-.08-.06-.166-.11-.257-.15a1.428 1.428 0 0 0-.29-.098c-.018-.003-.033-.01-.048-.014a.85.85 0 0 0 .457-.806.851.851 0 0 0-.519-.76.747.747 0 0 0-.32-.057c-.435.02-.773.414-.75.882.015.356.234.65.53.762-.219.057-.41.167-.57.309-.32.309-.4.978-.126 1.746Zm2.33 1.47s1.017.008 2.033.405c.018.007.031.016.048.025.136-.174.333-.448.465-.728.091-.193.195-.54.2-.568.06-.319.032-.648-.08-.952-.067-.275-.24-.532-.497-.761a2.898 2.898 0 0 0-.524-.365l-.007-.003-.005-.003a1.53 1.53 0 0 0-.907-.145c.007.005.036.365-.029 1.06-.113 1.199-.71 2.029-.71 2.029h.016l-.003.006Zm-6.629-6.706s.957.08 1.676.335c.326.114.642.254.945.42.175.099.26.164.26.164l.002-.002.011.008s.597-.671.923-1.364l.055-.126c.064-.158.128-.345.174-.49a2.828 2.828 0 0 0-.937-2.905l-.036-.03a2.838 2.838 0 0 0-1.787-.63c-.062 0-.12.006-.182.009.011.03.051.564-.045 1.579-.167 1.792-1.059 3.032-1.059 3.032Z" fill="#fff"></path><path fill-rule="evenodd" clip-rule="evenodd" d="M29.204 10.61s.112.56.179.81a.38.38 0 0 1 .069.007c.425-.171 1.26-.421 1.26-.7v-.892c0-.162-.163-.314-.452-.446-.588-.275-1.692-.466-2.946-.489l-.728-.002c-1.295.013-2.456.207-3.062.49-.29.133-.458.285-.458.447v.892c0 .279.844.529 1.269.7 0-.003.068-.007.072-.006.068-.251.182-.81.182-.81s-.092-.037-.11-.074c-.051-.112.044-.177.2-.265.158-.086.417-.137.637-.146.134.49.153 1.258.125 1.918-.058 1.323-.308 2.984-1.092 4.113.298.29.627.665.964 1.146.812-1.56.94-3.264 1.008-5.021.03-.773 0-1.678 0-2.298.076-.001.328-.031.579-.031.249 0 .498.03.574.031 0 .62-.03 1.525 0 2.298.069 1.789.197 3.524 1.049 5.106.309-.452.612-.816.893-1.103l.059-.082c-.808-1.131-1.062-2.82-1.121-4.16-.028-.66-.01-1.427.125-1.917.22.009.478.06.635.146.158.088.252.153.2.265-.017.037-.11.074-.11.074ZM9.08 13.79c.31.36.603.653.876.944.107.115.21.229.31.347.354.414.597 1.294-.485 2.122a2.914 2.914 0 0 1-.456.296c-.18.09-.372.152-.57.185v.003l-.012.003c1.223 2.853 3.158 4.13 3.158 4.13l-.007-.018a.424.424 0 0 1 .019.013s-.322-.797-.127-2.43c.102-.85.337-1.698.385-2.141.058-.527-.032-1.016-.366-1.753-.401-.884-.546-1.135-.746-1.458-.39-.632-1.134-1.957-1.134-1.957s.233-.241.612-.424c.23-.11.512-.195.829-.195.864 0 1.176.507 1.365.727-.008.013-.014.036-.021.05-.2.423-.31 1.744-.14 2.687.21 1.158.94 1.955 1.336 2.442.006.008.05.053.05.053.29-.289.876-.39.88-.391 0 0-.014-.58.278-1.043-1.678-.354-1.94-1.254-1.43-3.113.005-.017.015-.03.02-.047.246-.836.487-1.042.325-1.851-.131-.322-.597-.75-.88-.942-.741-.505-1.757-.817-2.587-.674-.266.046-.53.139-.776.277-.742.409-1.324 1.226-1.324 2.426 0 .143.019.282.036.42.05.402.192.857.582 1.312Z" fill="#fff"></path><path fill-rule="evenodd" clip-rule="evenodd" d="M20.86 14.625s.608.065 1.084.25c.576.224.794.415.794.415l.06-.06.003.004s.4-.45.618-.913c.091-.193.195-.54.2-.568a1.81 1.81 0 0 0-.08-.952c-.067-.275-.24-.532-.497-.761a2.898 2.898 0 0 0-.524-.365 1.53 1.53 0 0 0-.907-.145l.001.005H21.6c.007.006.035.366-.03 1.06-.112 1.2-.709 2.03-.709 2.03Zm-1.25-.05a.39.39 0 0 0 .145-.034c.33-.126.757-.73 1.016-1.45.274-.767.194-1.436-.127-1.745a1.377 1.377 0 0 0-.569-.31.85.85 0 0 0 .531-.761c.021-.468-.317-.862-.752-.882a.747.747 0 0 0-.32.058.852.852 0 0 0-.519.759.85.85 0 0 0 .457.806l-.046.014c-.103.022-.2.056-.292.098-.092.04-.178.09-.257.15-.345.279-.484.938-.279 1.726.22.843.67 1.53 1.011 1.57Zm-3.717-.312c.132.28.33.554.466.728.016-.01.03-.018.047-.025 1.016-.397 2.033-.405 2.033-.405l-.003-.005.016-.001s-.597-.83-.71-2.03c-.065-.694-.036-1.054-.029-1.06a1.53 1.53 0 0 0-.907.146l-.005.003c-.19.102-.368.226-.53.368-.258.229-.43.486-.498.76a1.812 1.812 0 0 0-.08.953c.005.029.11.375.2.568Zm3.628 7.69a.149.149 0 0 0 .062-.02.148.148 0 0 0 .088-.142.15.15 0 0 0-.093-.127c-.54-.213-1.023-.49-1.777-.415-.669.067-1.317.537-1.659.857-.085.08-.559.498-.6.53a2.16 2.16 0 0 1-.57.316c-.375.146-.826.18-1.29.152a4.6 4.6 0 0 0-.135-.013l-.02-.002c-.013-.001-.025.002-.038.004-.004 0-.007.005-.01.006a.143.143 0 0 0-.122.128c-.006.052.017.1.056.13l.006.003c.062.046.132.079.198.118l.013.007c.102.06.211.11.324.156.083.03.166.064.252.085l.043.013c.325.084.672.108 1.005.05.317-.062.561-.231.838-.407.213-.134.532-.47.903-.733.281-.2.638-.315.996-.424a7.306 7.306 0 0 1 1.53-.272Z" fill="#fff"></path><path fill-rule="evenodd" clip-rule="evenodd" d="M13.617 20.49c.02.093.043.179.065.262.128.477.278.817.412 1.045l.009-.012.003.006a3.77 3.77 0 0 1 1.862-1.348 3.757 3.757 0 0 1 1.173-.193c.02 0 .039.002.058.003.816.012 1.519.284 2.132.735.272.2.562.471.802.758a.867.867 0 0 1 .082 1.01c-.304.487-.82.763-1.044.865-.305.137-.672.2-1.031.2-.633 0-1.083-.243-1.086-.24v.002l-.003-.001c-.002.003-.007.002-.01.006-.022.03-.015.076.102.193.146.146 1.485.947 2.912-.02.079-.054.35-.255.593-.566a1.522 1.522 0 0 0 .035-1.799 5.012 5.012 0 0 0-.361-.464c-.391-.443-1.514-1.406-2.467-1.667-1.625-.447-2.084-.154-2.524-.206-.603-.071-.46-.414-.056-.648.127-.075.24-.188.275-.295.034-.107-.011-.209-.2-.259-.031-.007-.064-.022-.096-.022-1.765 0-1.818 1.856-1.637 2.655Zm20.506 1.463a.145.145 0 0 1-.062-.019.146.146 0 0 1 .005-.27c.54-.213 1.022-.489 1.777-.415.669.067 1.317.537 1.659.857.085.08.558.498.6.531.177.126.359.245.57.315.374.146.826.181 1.29.152l.134-.013.02-.002c.014-.001.026.002.038.004.005.001.008.005.012.006a.143.143 0 0 1 .11.2.146.146 0 0 1-.045.058l-.006.003c-.062.046-.132.079-.198.118l-.013.007c-.102.06-.212.111-.325.156-.082.031-.165.064-.251.085l-.044.013c-.328.087-.67.105-1.004.051-.317-.063-.562-.232-.838-.408-.213-.134-.532-.469-.903-.733-.281-.2-.638-.315-.997-.424a7.282 7.282 0 0 0-1.53-.272Z" fill="#fff"></path><path fill-rule="evenodd" clip-rule="evenodd" d="M40.027 20.49c-.02.088-.042.175-.066.262-.09.365-.228.716-.411 1.045l-.01-.012-.002.006a3.786 3.786 0 0 0-1.862-1.348 3.763 3.763 0 0 0-1.173-.193l-.06.003c-.814.012-1.517.284-2.13.735-.272.2-.562.471-.802.758a.867.867 0 0 0-.082 1.01c.304.487.82.763 1.044.865.304.137.672.2 1.03.2.634 0 1.084-.243 1.087-.24v.002l.002-.001c.003.003.008.002.01.006.023.03.015.076-.101.193-.146.146-1.486.947-2.913-.02a2.876 2.876 0 0 1-.593-.566 1.524 1.524 0 0 1-.034-1.799c.116-.168.24-.327.36-.464.39-.443 1.515-1.406 2.468-1.667 1.625-.447 2.084-.154 2.523-.206.604-.071.46-.414.057-.648-.128-.075-.241-.188-.275-.295-.034-.107.01-.209.198-.259.033-.007.066-.022.098-.022 1.765 0 1.818 1.856 1.637 2.655ZM35.09 47.717l.003.019h.01l-.013-.019Zm-13.034 6.637c.428-.114.817-.246 1.23-.404.205-.08.41-.17.614-.273.205-.105.409-.223.606-.363.196-.136.376-.308.53-.503.078-.096.14-.203.197-.316.027-.06.056-.123.076-.178l.038-.155.002-.005a.209.209 0 0 0-.152-.253.199.199 0 0 0-.124.01.204.204 0 0 0-.097.063c-.13.152-.268.256-.417.337-.152.077-.311.14-.475.187-.344.1-.724.152-1.112.202-.383.049-.8.092-1.18.129-.38.035-.77.054-1.163.068l-1.221.04c-.424.022-.865.044-1.372.161-.192.046-.4.104-.613.205a2.058 2.058 0 0 0-.216.115c-.277.173-.554.454-.69.781a1.492 1.492 0 0 0 .27 1.647.269.269 0 0 0 .299.059.763.763 0 0 0 .12-.088c.352-.568 1.105-.873 1.252-.908.608-.142 1.478-.18 2.315-.303.425-.062.854-.142 1.283-.255Zm-3.83-2.351a.205.205 0 0 0 .19.218.2.2 0 0 0 .128-.035l.007-.005h.004l.067-.045c.092-.063.19-.118.292-.165.3-.137.604-.186.903-.193.41-.012.827.038 1.307.124.517.093 1.1.135 1.666.089.287-.021.577-.076.872-.156.147-.05.297-.099.449-.179l.003-.002.009-.004c.14-.079.335-.18.434-.396a.168.168 0 0 0-.053-.203.165.165 0 0 0-.07-.03s-.574-.108-.808-.176l-.73-.187c-.5-.126-1.006-.232-1.514-.32-.57-.098-1.247-.094-1.878.152-.08.031-.16.067-.236.107-.537.276-1 .773-1.042 1.406Zm.825-2.021c.026-.006.36-.127.52-.179l-.004-.002c.006-.002-1.975-.717-.851-1.993l.005-.049c-.004.004-.006-.009-.01-.005a1.084 1.084 0 0 0-1.016.411c-.538.667.2 1.391.22 1.405-.11-.009-.375-.048-.485-.06-.48-.328-1.272-1.134-.134-2.841-.03-.004-.058-.005-.087-.007a1.059 1.059 0 0 0-.477.091 1.94 1.94 0 0 0-.254.104c-.561.273-.943.803-.943 1.418 0 .251.068.485.18.697.083.154.194.292.323.414-.085-.007-.448-.03-.534-.056-.522-.599-1.098-1.721.014-3.034a1.053 1.053 0 0 0-.563.083 1.77 1.77 0 0 0-.282.132c-.615.351-.916 1.024-.916 1.579 0 .251.09.66.182.882.73 1.787 4.179 1.245 5.112 1.01Zm17.539 3.439a2.048 2.048 0 0 0-.216-.115 3.058 3.058 0 0 0-.613-.205c-.507-.117-.948-.139-1.372-.161l-1.221-.04a20.952 20.952 0 0 1-1.164-.068c-.38-.037-.796-.08-1.18-.129-.387-.05-.767-.102-1.111-.202a2.794 2.794 0 0 1-.475-.187c-.16-.085-.3-.2-.417-.337a.204.204 0 0 0-.097-.063.199.199 0 0 0-.198.024.208.208 0 0 0-.078.219l.002.005.038.155c.02.055.049.118.076.178.056.113.118.22.197.316.154.195.334.367.53.503.197.14.4.258.606.363.204.103.409.193.613.273.414.158.803.29 1.23.404.43.113.859.193 1.285.255.837.123 1.706.161 2.314.303.147.035.9.34 1.25.908 0 0 .088.075.122.088.1.042.219.023.298-.059a1.492 1.492 0 0 0 .27-1.647c-.135-.327-.412-.608-.69-.781Zm-6.916-1.771.008.004.003.001c.153.081.303.13.45.18.295.08.585.135.87.156a6.591 6.591 0 0 0 1.668-.089c.48-.086.897-.136 1.307-.124.299.007.602.056.903.193.102.047.2.102.292.165l.065.044h.004l.009.006a.205.205 0 0 0 .293-.074.204.204 0 0 0 .024-.109c-.042-.633-.504-1.13-1.041-1.406a2.34 2.34 0 0 0-.236-.107c-.631-.246-1.308-.25-1.878-.152-.536.091-1.013.197-1.514.32l-.731.187c-.234.068-.808.176-.808.176a.165.165 0 0 0-.118.087.166.166 0 0 0-.004.146c.098.216.294.317.434.396Zm9.45-5.139a1.77 1.77 0 0 0-.282-.132 1.055 1.055 0 0 0-.563-.083c1.112 1.313.535 2.435.014 3.034-.087.026-.45.049-.534.056.129-.122.24-.26.322-.414.112-.212.18-.446.18-.697 0-.615-.381-1.145-.942-1.418a1.94 1.94 0 0 0-.254-.104 1.059 1.059 0 0 0-.477-.091c-.03.002-.058.003-.087.007 1.138 1.707.345 2.513-.134 2.841-.11.012-.375.051-.485.06.02-.014.758-.738.22-1.405a1.085 1.085 0 0 0-1.017-.411c-.003-.004-.005.009-.01.005l.006.049c1.124 1.276-.857 1.991-.851 1.993l-.004.002c.159.052.494.173.52.179.933.235 4.382.777 5.112-1.01.09-.222.182-.631.182-.882 0-.555-.301-1.228-.916-1.579Zm-9.011-5.239c-.02-.025-.08-.039-.08-.039a.115.115 0 0 0-.081.011 1.385 1.385 0 0 0-.564.67c-.044.118-.08.237-.053.364.029.127.09.259.267.405.039.032.19.088.297.054.216-.071.324-.169.398-.276.073-.107.084-.232.088-.357.003-.3-.093-.592-.272-.832Z" fill="#fff"></path><path fill-rule="evenodd" clip-rule="evenodd" d="M52.768 30.294a.593.593 0 0 0-.296-.357.595.595 0 0 0-.455-.05l-.025.009c-.684.204-1.4.418-2.104.58-.352.087-.702.17-1.052.248-.35.074-.693.134-1.072.184a48.95 48.95 0 0 1-2.214.245c-.474.039-.96.072-1.431.093l.205-.054c.205-.057.407-.116.607-.18.399-.124.79-.258 1.177-.4.768-.282 1.528-.59 2.277-.92.75-.321 1.537-.685 2.233-1.135.7-.462 1.358-.944 1.973-1.544a.594.594 0 0 0-.161-.96.596.596 0 0 0-.562.016l-.024.014c-.66.388-1.334.751-2.02 1.089-.693.339-1.35.662-2.09.914-.733.257-1.481.497-2.225.705-.372.104-.745.2-1.115.285l-.248.052c.187-.08.37-.162.548-.248a20 20 0 0 0 1.172-.624 33.894 33.894 0 0 0 2.19-1.39c.726-.488 1.449-1.021 2.079-1.628.629-.62 1.208-1.254 1.717-2.005a.595.595 0 0 0-.25-.871.59.59 0 0 0-.652.095l-.022.02a26.747 26.747 0 0 1-1.844 1.556c-.64.493-1.263.973-1.963 1.373-.131.077-.265.148-.396.222-.583.33-1.17.649-1.763.934-.115.055-.23.107-.345.16-.214.098-.43.192-.648.28l.118-.08c.254-.18.493-.366.727-.555.13-.105.26-.21.385-.316a29.638 29.638 0 0 0 1.965-1.85l.024-.023c.658-.67 1.275-1.361 1.798-2.123.516-.771.977-1.547 1.338-2.43a.592.592 0 0 0-.206-.708l-.012-.005v-.001a.593.593 0 0 0-.826.143l-.018.025c-.484.695-1.001 1.365-1.55 2.009-.164.193-.33.385-.496.575-.39.444-.791.874-1.226 1.26-.218.193-.438.378-.66.564-.398.337-.801.665-1.212.972.063-.082.128-.164.189-.247.34-.468.654-.942.954-1.421.208-.332.41-.666.607-1.002.347-.581.663-1.177.937-1.79.123-.273.24-.55.343-.832.329-.917.594-1.828.734-2.821a.591.591 0 0 0-.388-.64h-.003l-.01-.006a.59.59 0 0 0-.754.36l-.01.029c-.25.704-.551 1.428-.877 2.126-.051.11-.097.227-.151.336-.367.757-.751 1.5-1.2 2.2-.026.042-.05.085-.077.126-.336.493-.687.972-1.046 1.439-1.106 1.233-2.971 2.467-3.98 2.958-.491.238-.993.565-1.496.81a1.759 1.759 0 0 0-.825.775 2.064 2.064 0 0 0-.11.268c-.055.166-.084.34-.085.516 0 .645.352 1.265.88 1.54.175.096.37.152.58.158.035 0 .062-.004.092-.007a.584.584 0 0 0 .28-.097s-.14-.38.076-.55a.82.82 0 0 1 .748-.071.794.794 0 0 1-.215 1.515c-.176.069-.515.08-.731.08a7.118 7.118 0 0 1-2.966-.653c-.63-.291-1.787-1.14-1.77-1.188-1.191-1.106-1.944-2.625-2.01-4.306-.002-.078-.012-.154-.012-.232 0-.665.108-1.325.318-1.955.23-.7.58-1.353 1.037-1.93.044-.055.248-.28.51-.54l.048-.046.008-.01c.29-.284.643-.604.944-.801l.002-.002a1.72 1.72 0 0 1-.186-.177c-.55-.054-.744-.314-.836-.535l-.008-.021a.912.912 0 0 1-.02-.052 1.222 1.222 0 0 1-.018-.367c.042-.203.163-.403.267-.502.049-.055.1-.104.154-.146.165-.127.353-.197.552-.236.05-.01.1-.02.15-.025l.02-.003c.509-.053 1.013.168 1.215.689v.003c-.027.02-.321.075-.321.075h-.001c-.105-.224-.28-.318-.483-.303a.755.755 0 0 0-.212.05.425.425 0 0 0-.122.074c-.327.278-.04.982.413 1.032a.497.497 0 0 0 .224-.03l.008-.003c.199-.08 1.462-.382 2.223-.502.146-.023.275-.04.372-.047a.028.028 0 0 0 .009-.005v-.001l.003-.001c.13-.213.137-1.617-.97-2.074-.873-.362-1.632-.42-2.318-.421a7.943 7.943 0 0 0-1.767.19c-2.25.495-3.62 1.799-4.873 4.618-.85 1.667-1.155 3.266-1.278 3.706h-.124c-.127-.47-.431-2.06-1.268-3.703-1.255-2.82-2.63-4.124-4.881-4.618a7.998 7.998 0 0 0-1.773-.191c-.687 0-1.446.059-2.32.42-1.105.458-1.1 1.862-.968 2.075l.009.005c.097.007.227.024.372.047.76.12 2.024.423 2.223.502.073.03.153.04.232.033.499-.055.797-.904.293-1.103a.746.746 0 0 0-.212-.051c-.204-.015-.378.079-.482.303h-.002s-.31-.058-.324-.076l.002-.004c.202-.521.705-.742 1.214-.69l.019.004c.05.006.1.015.15.025.266.052.512.159.71.384.104.098.225.299.266.502.01.035.012.285-.017.367l-.021.052-.008.02c-.092.222-.287.482-.835.536a2.22 2.22 0 0 1-.186.177c.32.21.699.56 1 .859.264.26.468.486.512.54.456.578.807 1.231 1.036 1.93.21.633.317 1.294.318 1.96 0 .078-.01.158-.012.236-.007.14-.017.278-.032.417-.15.705-.463 1.849-1.045 2.816l-.091.13h.01c-.215.347-.479.66-.782.932.018.048-1.14.897-1.77 1.188a7.112 7.112 0 0 1-2.966.653c-.215 0-.554-.011-.731-.08a.795.795 0 0 1-.214-1.515.792.792 0 0 1 .748.07c.216.172.075.55.075.55s.1.079.28.098c.03.003.058.008.093.007a1.29 1.29 0 0 0 .58-.157c.528-.276.88-.896.88-1.541 0-.181-.033-.353-.087-.516a1.949 1.949 0 0 0-.108-.267 1.756 1.756 0 0 0-.803-.763l-.022-.012c-.503-.246-1.005-.573-1.496-.811-1.01-.491-2.874-1.725-3.981-2.958-.362-.47-.71-.95-1.045-1.44-.027-.04-.052-.083-.078-.125-.448-.7-.832-1.443-1.2-2.2-.053-.11-.1-.225-.151-.336a24.626 24.626 0 0 1-.876-2.126l-.01-.03a.591.591 0 0 0-.755-.36l-.01.007H6.22a.591.591 0 0 0-.388.64c.14.993.405 1.904.734 2.82.103.283.22.56.343.834.274.612.59 1.208.937 1.789.197.336.399.67.607 1.002.3.479.613.953.954 1.42.06.084.125.166.189.248a26.004 26.004 0 0 1-1.213-.972c-.221-.186-.442-.371-.66-.564a14.338 14.338 0 0 1-1.225-1.26c-.167-.19-.333-.382-.496-.575a26.026 26.026 0 0 1-1.551-2.01l-.017-.024a.592.592 0 0 0-.825-.143h-.001l-.012.006a.594.594 0 0 0-.207.708c.362.883.823 1.659 1.339 2.43.523.762 1.14 1.453 1.798 2.123l.024.024a29.845 29.845 0 0 0 1.964 1.849c.126.107.256.21.385.316.235.189.474.376.728.555l.118.08a15.217 15.217 0 0 1-.648-.28c-.115-.053-.23-.105-.345-.16a29.366 29.366 0 0 1-1.763-.934c-.132-.074-.265-.145-.396-.222-.7-.4-1.324-.88-1.963-1.373a26.488 26.488 0 0 1-1.844-1.556l-.023-.02a.59.59 0 0 0-.653-.095.593.593 0 0 0-.248.87c.508.752 1.088 1.386 1.717 2.006.63.607 1.353 1.14 2.079 1.629.708.485 1.432.952 2.19 1.389.379.217.767.427 1.17.624.179.086.362.168.55.248l-.248-.052c-.37-.085-.743-.181-1.116-.285a36.597 36.597 0 0 1-2.225-.705c-.74-.252-1.396-.575-2.09-.914-.686-.338-1.36-.7-2.02-1.09l-.023-.013a.596.596 0 0 0-.563-.016.593.593 0 0 0-.16.96c.615.6 1.273 1.082 1.973 1.544.695.45 1.482.814 2.232 1.135.75.33 1.503.637 2.278.92.386.142.778.276 1.177.4.2.064.4.123.607.18l.205.054a38.648 38.648 0 0 1-1.431-.093 48.784 48.784 0 0 1-2.214-.245c-.38-.05-.723-.11-1.072-.184-.35-.077-.701-.161-1.053-.247-.703-.163-1.42-.377-2.103-.581l-.025-.008a.597.597 0 0 0-.456.049.593.593 0 0 0-.038 1.03c.693.428 1.399.742 2.14 1.03.73.279 1.545.458 2.293.613.755.165 1.51.312 2.274.44.688.114 1.356.214 2.074.288-.436.052-.876.102-1.313.146-.705.069-1.412.127-2.118.173-.177.012-.354.02-.531.025l-.506.009-1.026-.02c-.686-.007-1.393-.055-2.075-.093h-.023a.582.582 0 0 0-.338.084.59.59 0 0 0 .1 1.076c.726.249 1.442.398 2.184.519.37.054.746.088 1.124.104.189.009.379.014.57.016l.545.008c.728.016 1.456.019 2.185.01.504-.006.614-.007 1.12-.025l.067.22a66.21 66.21 0 0 1-2.242.668c-.654.184-1.274.306-1.918.439-.64.144-1.302.258-1.943.39l-.018.005a.616.616 0 0 0-.124.04.594.594 0 0 0 .18 1.14c.715.065 1.406.045 2.113 0 .703-.046 1.414-.204 2.084-.33.675-.124 1.668-.36 2.337-.5l.053.169c-.278.159-.88.48-1.16.634-.277.154-.555.294-.834.43-.276.135-.552.266-.83.405h-.001l-.011.006c-.557.288-1.133.563-1.69.864l-.008.005a.595.595 0 0 0 .395 1.11 16.24 16.24 0 0 0 1.91-.514c.627-.21 1.236-.5 1.83-.761.159-.07.783-.337.94-.407l.108.496-.448.313-.688.596c-.453.404-.876.846-1.277 1.316a.6.6 0 0 0 .388.985.6.6 0 0 0 .345-.065l.008-.004.004-.002c.55-.286 1.073-.605 1.568-.961l.524-.307c.002.012.288 1.732.363 2.445.234 2.222.168 4.779.407 5.078.2.249.599.192.957.203-.024-.085-.036-.164-.054-.246 0-.008.002-.016 0-.025-.256-1.191.098-2.07.317-2.43.004-.005.002-.012.005-.018a.474.474 0 0 0 .025-.095c-.078-1.413-.268-3.692-.587-5.462-.51-2.822-1.364-7.342-1.606-8.622a.212.212 0 0 1 .06-.193.227.227 0 0 1 .207-.051c.866.219 2.288.347 3.207.407.686.045 2.322.04 4.009-.477-.715 1.687-1.122 3.62-1.122 5.678 0 4.03 1.564 7.595 3.947 9.733-.185.026-.369.06-.55.105-.614.215-1.095.525-1.365.682l-.017.015c-.018.008-.038.016-.053.024-.094.052-.1.158-.077.262.063.29.225.655.383.87.035.048.07.094.129.097 2.229.11 3.867.28 5.18 1.113l.018.012c.036.022.069.05.104.074.62.488.87 1.5.365 2.219-.174.179-.355.353-.535.518a9.07 9.07 0 0 1-1.97 1.31 7.314 7.314 0 0 1-2.161.658c-.742.135-1.482.234-2.451.463l-.006.002a.225.225 0 0 0-.085.039.23.23 0 0 0-.045.354c.71.768 1.762 1.072 2.775 1.015a6.206 6.206 0 0 0 2.19-.605 7.034 7.034 0 0 0 2.778-2.36l.033-.05-.006.026c-.125.433-.537 1.569-.867 1.949-.334.384-.64.75-.993 1.04-.35.289-.741.523-1.161.695-.445.184-.956.304-1.557.433h-.005a.226.226 0 0 0-.082.038.219.219 0 0 0-.083.284.22.22 0 0 0 .069.082c.534.38 1.208.557 1.907.515.716-.055 1.399-.33 1.953-.79.092-.074.165-.158.246-.241.154.307.317.613.435.919.156.365.28.73.48 1.095.045.08.145.119.184.112 0 .007.157-.031.202-.112.2-.365.342-.73.498-1.095.118-.306.28-.612.434-.92.082.084.155.168.246.243.272.226.583.412.913.546.334.137.687.222 1.04.243.7.042 1.374-.135 1.908-.515a.221.221 0 0 0 .06-.29.22.22 0 0 0-.074-.076.235.235 0 0 0-.082-.037l-.006-.001c-.6-.13-1.111-.25-1.556-.433a4.487 4.487 0 0 1-1.161-.695c-.353-.29-.66-.656-.993-1.04-.33-.38-.742-1.516-.867-1.95l-.006-.025.033.05a7.033 7.033 0 0 0 2.777 2.36c.686.335 1.43.54 2.19.605 1.014.057 2.065-.247 2.776-1.015a.233.233 0 0 0-.045-.354.226.226 0 0 0-.085-.04l-.006-.001c-.97-.23-1.71-.328-2.452-.463a7.316 7.316 0 0 1-2.161-.657 9.067 9.067 0 0 1-1.97-1.311c-.18-.165-.36-.34-.534-.518-.506-.72-.256-1.731.364-2.22.036-.023.069-.051.105-.073l.017-.012c1.314-.833 2.952-1.002 5.18-1.113.06-.003.094-.05.129-.097.159-.215.32-.58.383-.87.023-.104.016-.21-.077-.262-.015-.008-.036-.016-.054-.024l-.02-.015c-.27-.157-.756-.467-1.37-.682a5.391 5.391 0 0 0-.523-.1c2.387-2.137 3.956-5.703 3.956-9.738 0-2.056-.412-3.986-1.127-5.672 1.679.51 3.305.516 3.988.47.918-.06 2.34-.187 3.206-.406a.227.227 0 0 1 .208.05.212.212 0 0 1 .06.194c-.242 1.28-1.097 5.8-1.606 8.622-.32 1.77-.51 4.049-.587 5.462a.412.412 0 0 0 .025.095c.003.006 0 .013.005.019.219.359.573 1.238.316 2.429-.002.009 0 .017 0 .025-.018.082-.03.16-.053.246.357-.011.756.046.956-.203.24-.3.174-2.856.408-5.078.075-.713.36-2.433.363-2.445l.523.307c.5.358 1.026.68 1.573.963l.008.004a.6.6 0 0 0 .733-.92 13.37 13.37 0 0 0-1.278-1.316l-.688-.596-.447-.313.108-.496c.157.07.78.338.939.407.595.26 1.203.552 1.83.76.63.203 1.253.389 1.91.515a.596.596 0 0 0 .396-1.11l-.01-.005c-.555-.301-1.132-.576-1.69-.864l-.01-.005-.001-.001c-.277-.14-.553-.27-.83-.405-.281-.136-.56-.28-.834-.43-.28-.154-.882-.475-1.16-.634l.054-.17c.669.14 1.66.377 2.337.502.67.125 1.38.283 2.084.33.707.044 1.397.064 2.113 0a.595.595 0 0 0 .18-1.14.617.617 0 0 0-.124-.041l-.018-.004c-.641-.133-1.304-.247-1.943-.391-.644-.133-1.264-.255-1.918-.44a65.665 65.665 0 0 1-2.242-.666l.067-.221c.506.018.616.019 1.12.025.729.009 1.457.006 2.185-.01l.545-.008c.19-.002.38-.007.57-.016.378-.016.753-.05 1.123-.104.743-.121 1.459-.27 2.184-.52a.596.596 0 0 0 .1-1.075.584.584 0 0 0-.337-.084h-.023c-.682.038-1.39.086-2.076.093l-1.025.02-.506-.01a13.064 13.064 0 0 1-.531-.024 65.512 65.512 0 0 1-2.118-.173 72.266 72.266 0 0 1-1.313-.146c.693-.075 1.385-.17 2.073-.287.764-.13 1.52-.276 2.275-.441.748-.155 1.56-.334 2.292-.613.742-.288 1.448-.602 2.14-1.03a.595.595 0 0 0 .258-.673ZM26.87 48.464l-.031-.001c-2.651-.014-4.994-1.795-6.411-4.504.66-1.114 2.025-3.545 2.025-3.545.129.498.89 3.794.89 3.794 0 .07.925 2.139 3.828 2.09.603-.01 1.435-.327 1.757-1.06-.962-.375-1.78-1.253-2.092-2.706a8.508 8.508 0 0 1-.186-1.717c-.007-.637.046-1.305.17-1.991l.016-.071c.452-2.38 1.93-4.196 2.359-4.351-.133-.306-.077-1.081-1.113-1.51-.223-.091-.917-.132-.982-.451.327-.222.575-.64.636-1.14.082-.672-.201-1.274-.654-1.49.109-.248.375-.587.375-.587l-.517-.554-.104.055-.565.302s.17.485.169.747c-.446.148-.777.499-.853 1.123-.037.305.13.779.478 1.127.188.188.225.347.109.464-.255.255-.783.192-1.054.588-.171.249-.377.824-.377.824-.128.259-.878 2.058-1.246 2.692-.093.16-.467.749-.467.749s-.163.112-.345.259c-.15.119-.31.26-.41.387-.283.364-.168 1.015.005 1.29l-2.183 3.99c-.085-.181-.126-.282-.126-.282-.614-1.5-.963-3.217-.963-5.043 0-5.591 3.274-10.175 7.39-10.503h.953c.454.038.897.128 1.327.264.226.072.447.156.664.252 3.128 1.39 5.39 5.34 5.39 9.987 0 5.802-3.527 10.522-7.862 10.522Zm-.81-11.397s-1.53.58-2.26.875l1.493-2.586c.003.013.07.363.676.617-.018.093.092 1.094.092 1.094Z" fill="#fff"></path><path fill-rule="evenodd" clip-rule="evenodd" d="M32.455 40.07c-.44 2.638-1.877 4.597-3.212 4.375-1.335-.222-2.061-2.541-1.623-5.18.439-2.637 1.877-4.596 3.212-4.374 1.335.222 2.06 2.54 1.623 5.179Z" fill="#fff"></path><path fill-rule="evenodd" clip-rule="evenodd" d="M31.912 39.946c-.33 1.983-1.345 3.467-2.267 3.314-.922-.154-1.402-1.886-1.072-3.87.33-1.983 1.345-3.467 2.267-3.313.922.153 1.402 1.885 1.072 3.869Z" fill="#fff"></path><path fill-rule="evenodd" clip-rule="evenodd" d="m31.032 42.94-.669.089-.912-6.925.67-.088.911 6.925Z" fill="#fff"></path><path fill-rule="evenodd" clip-rule="evenodd" d="m28.833 43.19-.53-.26 3.35-6.785.529.262-3.35 6.784Z" fill="#fff"></path></svg><svg fill="none" id="RutubeIcon" viewBox="0 0 51 12"><path d="M23 2.9V0l-2.7.4v2.5h-1.1v2.4h1.1v6.5H23V5.3h2V2.9h-2ZM8.1 7.2c.8-.7 1.4-1.6 1.4-2.7V4C9.5 2 7.9.5 5.8.5H0v11.3h2.7V7.9h2.8l1.8 3.9h3.2L8.1 7.2ZM6.6 4.4c0 .8-.7 1.3-1.5 1.3H2.6V3h2.5c.9-.1 1.5.5 1.5 1.4ZM38.7 2.9h-1.4V0l-2.7.4v11.5h4.1c2 0 3.7-1.6 3.7-3.6V6.6c0-2.1-1.7-3.7-3.7-3.7ZM39.8 8c0 .9-.6 1.4-1.4 1.4h-1.1V5.3h1.1c.9 0 1.4.5 1.4 1.4V8ZM30.8 2.9v5.2c0 .9-.3 1.4-1.2 1.4-.9 0-1.2-.6-1.2-1.4V2.9h-2.7v5.4c0 2 .9 3.7 3.6 3.7h.5c2.8 0 3.7-1.6 3.7-3.7V2.9h-2.7ZM15.6 2.9v5.2c0 .9-.3 1.4-1.2 1.4-.9 0-1.2-.6-1.2-1.4V2.9h-2.7v5.4c0 2 .9 3.7 3.6 3.7h.5c2.8 0 3.7-1.6 3.7-3.7V2.9h-2.7ZM49.2 8.8s-.8 1-2.2.9c-.9-.1-1.4-.5-1.4-1.4V8h5.3V6.5c0-2-1.4-3.7-3.9-3.7s-3.9 1.6-3.9 3.6v1.9c0 2 1.4 3.7 3.9 3.7 2.8 0 4-1.9 4-1.9l-1.8-1.3ZM45.7 6c0-.8.5-1.3 1.3-1.4h.1c.8 0 1.4.5 1.4 1.4v.1L45.7 6Z" fill="#492984"></path></svg><svg fill="none" id="SearchIcon" viewBox="0 0 26 26"><path d="M10.201 19c4.5 3.2 10.7 2.1 13.8-2.4 3.2-4.5 2.1-10.7-2.4-13.8-4.5-3.2-10.7-2.1-13.8 2.4-1.2 1.7-1.8 3.7-1.8 5.7 0 2.1.7 4.1 1.8 5.8l-6.4 6.5c-.6.6-.6 1.7 0 2.3.6.6 1.7.6 2.3 0l6.5-6.5Zm5.8-.5c-4.2 0-7.6-3.4-7.6-7.6 0-4.2 3.4-7.6 7.6-7.6 4.2 0 7.6 3.4 7.6 7.6 0 4.2-3.4 7.6-7.6 7.6Z" fill="#fff"></path></svg><svg fill="none" id="TelegramIcon" viewBox="0 0 25 21"><path opacity=".4" d="M14.334 3.7c.2-.1 3.2-1.3 4.2-1.7.9-.4 1.9-.8 2.8-1.2 0 0 .1 0 .1-.1.4-.1.8-.3 1.1-.5.4-.2.8-.2 1.2-.2.6 0 1 .6 1 1.3 0 .5-2.4 15.9-2.7 17.4 0 .1-.2.8-.3.9-.3.7-.9.9-1.6.8-.8-.2-1.5-.5-2.2-1l-3.6-2.4c-1-.7-2-1.4-3-2.2-.4-.4-.6-.8-.5-1.4.1-.4.4-.7.7-.9.2-.2 6.2-5.9 6.6-6.4.2-.2.3-.4.4-.7.1-.2 0-.3-.3-.3-.3.1-.6.2-.8.3-.5.3-5.8 3.9-7.5 5-.5.3-1 .7-1.5 1-.2.2-.5.3-.7.4-1 .6-2 .5-3.1.2l-3.9-1.2c-.4-.1-.6-.3-.7-.7-.1-.4.1-.6.4-.8 1.2-.7 2.6-1.1 3.9-1.7 1.5-.4 9.9-3.9 10-3.9Z" fill="#000"></path></svg><svg fill="none" id="VimeoIcon" viewBox="0 0 41 12"><g opacity=".4" fill="#000"><path d="M11.937 0h.139a.92.92 0 0 1 .7.375c.094.122.165.25.212.383.02.057.031.125.035.202.005.11.005.179 0 .207-.038.22-.12.42-.246.6-.16.23-.354.422-.584.578a1.743 1.743 0 0 1-.845.29c-.259.022-.5-.006-.723-.086a.802.802 0 0 1-.285-.167.825.825 0 0 1-.254-.495 2.93 2.93 0 0 1-.025-.198.842.842 0 0 1 .01-.201c.037-.237.134-.45.29-.638a2.63 2.63 0 0 1 .459-.44A2.066 2.066 0 0 1 11.937 0ZM7.8 3.76l.113.014c.614.043 1 .367 1.158.97.041.157.065.272.072.345.01.111.018.183.023.214 0 .007.004.008.009.003.386-.37.705-.662.958-.873.178-.148.338-.266.48-.354.157-.095.297-.157.421-.184.06-.013.157-.017.292-.012a.932.932 0 0 1 .81.503c.089.154.149.322.18.503.035.202.04.403.016.604-.003.028-.028.165-.075.413a87.15 87.15 0 0 0-.487 2.862 1.341 1.341 0 0 0 .02.5c.015.075.037.14.064.194a.53.53 0 0 0 .533.312.595.595 0 0 0 .218-.055 1.71 1.71 0 0 0 .279-.157 5.93 5.93 0 0 0 .505-.394.154.154 0 0 0 .05-.074.258.258 0 0 0 .01-.062c0-.032.002-.052.004-.063.073-.502.15-1.003.23-1.504a3.04 3.04 0 0 0 .027-.231.685.685 0 0 0 .024-.21.712.712 0 0 0 .017-.206c0-.006.001-.013.004-.02a.12.12 0 0 0 .01-.043c.005-.074.008-.176.013-.304a.533.533 0 0 0-.024-.218c-.041-.09-.124-.114-.248-.07a.43.43 0 0 0-.087.041c-.177.112-.349.23-.516.356a.011.011 0 0 1-.008.002.01.01 0 0 1-.007-.004l-.48-.565a.026.026 0 0 1 .01-.026c.398-.368.79-.743 1.174-1.125l.09-.085.326-.298c.172-.16.355-.305.548-.436.018-.012.07-.04.155-.081a.569.569 0 0 1 .356-.051.94.94 0 0 1 .65.427c.248.377.361.804.34 1.28a2.426 2.426 0 0 1-.023.284c0 .002.001.004.003.005.003.001.006 0 .009-.005.186-.282.402-.537.647-.767l.081-.073c.461-.419.99-.704 1.59-.856.252-.064.515-.096.788-.096.196 0 .383.03.561.088.14.047.262.11.364.188.144.111.258.25.344.42.097.189.159.39.186.603.021.172.033.352.035.54 0 .008.003.009.009.004.199-.175.38-.358.542-.55l.076-.083c.202-.218.421-.415.657-.593.4-.301.84-.495 1.321-.58.195-.035.394-.046.596-.032.15.01.285.033.403.07.386.118.659.368.818.747.049.117.087.251.114.403.044.238.052.476.027.715a.957.957 0 0 0-.006.077 1.178 1.178 0 0 1-.004.077 9.245 9.245 0 0 1-.15.97 174.277 174.277 0 0 0-.25 1.161 6.27 6.27 0 0 0-.105.622c-.019.156-.016.322.009.498.01.072.034.133.072.184a.342.342 0 0 0 .15.11.616.616 0 0 0 .214.045c.062.002.105.002.13.002a.363.363 0 0 0 .128-.026 1.69 1.69 0 0 0 .364-.205c.01-.008.012-.016.006-.025.001-.002 0-.007-.003-.014.009-.004.011-.01.008-.02a.064.064 0 0 1-.005-.017 4.262 4.262 0 0 1 .47-2.394c.096-.185.188-.344.275-.477a6.555 6.555 0 0 1 1.296-1.455 4.93 4.93 0 0 1 3.459-1.174c.091.004.232.022.423.055.18.032.354.084.522.157.299.13.526.326.683.588.133.223.216.464.25.723a2.23 2.23 0 0 1 .01.55c.001.017 0 .03-.001.038a2.679 2.679 0 0 1-.488 1.111 5.753 5.753 0 0 1-1.768 1.562 6.559 6.559 0 0 1-2.175.767c-.023.003-.027.015-.013.033.265.329.601.495 1.009.498.346.003.645-.013.897-.048a7.707 7.707 0 0 0 1.443-.345c.377-.129.75-.278 1.122-.447a.015.015 0 0 0 .008-.015 6.314 6.314 0 0 1-.022-.6c.002-.147.011-.287.028-.42a4.42 4.42 0 0 1 .705-1.895 6.436 6.436 0 0 1 1.068-1.241 4.692 4.692 0 0 1 2.822-1.18c.291-.023.556-.02.795.008l.082.01c.437.056.835.213 1.194.47.132.108.254.225.368.352.311.358.526.766.646 1.226.08.31.123.63.129.962v.163c-.016 1.29-.43 2.42-1.241 3.39l-.05.061c-.367.429-.78.77-1.237 1.025-.39.217-.802.368-1.237.453a.575.575 0 0 1-.11.01l-1.485.001a.941.941 0 0 1-.214-.023c-.854-.198-1.485-.703-1.893-1.515a.015.015 0 0 0-.004-.005.016.016 0 0 0-.005-.002h-.005l-.006.001c-.268.161-.538.318-.81.471a8.693 8.693 0 0 1-3.132 1.05 2.78 2.78 0 0 1-.37.023h-.977c-.117 0-.22-.008-.307-.024a2.956 2.956 0 0 1-.62-.188 2.274 2.274 0 0 1-.962-.77 2.994 2.994 0 0 1-.19-.296.016.016 0 0 0-.007-.003h-.008a2.72 2.72 0 0 1-2.951 1.262 1.515 1.515 0 0 1-.401-.078 1.013 1.013 0 0 1-.597-.559 1.61 1.61 0 0 1-.112-.403 2.86 2.86 0 0 1-.016-.77c.042-.388.099-.732.17-1.034.084-.362.162-.725.235-1.09.027-.136.051-.31.072-.52l.009-.095c.022-.191.012-.38-.03-.566a.592.592 0 0 0-.038-.117.575.575 0 0 0-.065-.105.358.358 0 0 0-.237-.144.607.607 0 0 0-.17 0 .493.493 0 0 0-.166.054c-.073.04-.134.08-.184.122a2.377 2.377 0 0 0-.37.403 7.51 7.51 0 0 0-.947 1.72 5.77 5.77 0 0 0-.367 1.514 2.88 2.88 0 0 0-.013.294v.295c0 .175.006.314.02.419a3.221 3.221 0 0 0 .14.608l-.002.004a.007.007 0 0 1-.002.002h-.004l-.388.002a2.69 2.69 0 0 1-.312-.022 6.945 6.945 0 0 1-.31-.042 2.261 2.261 0 0 1-.745-.258 1.279 1.279 0 0 1-.605-.78 2.372 2.372 0 0 1-.099-.528 4.992 4.992 0 0 1 .048-1.055 8.63 8.63 0 0 1 .17-.844c.047-.191.091-.406.13-.645.029-.17.044-.335.045-.498 0-.15-.002-.25-.009-.298a.616.616 0 0 0-.112-.282.437.437 0 0 0-.275-.178.702.702 0 0 0-.21-.01.49.49 0 0 0-.203.066c-.08.048-.155.105-.224.172a1.71 1.71 0 0 0-.181.218 5.113 5.113 0 0 0-.47.8 6.498 6.498 0 0 0-.625 2.302c-.037.467-.029.933.025 1.398a3.188 3.188 0 0 0 .092.469.015.015 0 0 1-.002.006.015.015 0 0 1-.005.004 2.567 2.567 0 0 1-1.555-.285 1.44 1.44 0 0 1-.671-.717 2.996 2.996 0 0 1-.14-.373.012.012 0 0 0-.005-.003h-.006a4.016 4.016 0 0 1-2.345 1.37l-.088.017a2.577 2.577 0 0 1-.717.043 1.118 1.118 0 0 1-.867-.489 1.39 1.39 0 0 1-.18-.376 1.92 1.92 0 0 1-.086-.495.33.33 0 0 0-.002-.139c.002-.129.011-.258.029-.388.055-.41.132-.814.232-1.215.066-.265.135-.53.207-.793.106-.388.209-.776.308-1.166a.88.88 0 0 0 .022-.501c-.052-.21-.175-.304-.37-.283a.305.305 0 0 0-.125.047c-.163.1-.321.209-.475.328a.049.049 0 0 0-.017.023c-.1.296-.217.578-.352.847-.203.4-.428.786-.676 1.158l-.217.325-.076.11c-.23.328-.503.691-.819 1.09-.367.464-.76.878-1.177 1.241a3.708 3.708 0 0 1-.85.558c-.16.076-.293.12-.398.134a3.049 3.049 0 0 1-.49-.001.33.33 0 0 1-.123-.03 1.371 1.371 0 0 1-.557-.493 3.943 3.943 0 0 1-.443-.885 6.295 6.295 0 0 1-.117-.402l-.655-2.477a6.813 6.813 0 0 0-.322-.971 1.725 1.725 0 0 0-.272-.449.517.517 0 0 0-.173-.134.24.24 0 0 0-.127-.026.298.298 0 0 0-.128.045c-.212.13-.405.261-.577.392a.01.01 0 0 1-.015-.002L0 6.002v-.01c.21-.204.424-.405.64-.602.098-.09.199-.184.303-.283.259-.246.487-.452.686-.619.186-.156.383-.298.59-.424.094-.057.193-.102.295-.135a.979.979 0 0 1 .316-.046c.372.008.657.183.856.525.1.172.174.35.223.535a4.945 4.945 0 0 1 .115.568c.085.554.175 1.107.272 1.66.052.291.125.62.22.988.067.262.162.5.286.713A.54.54 0 0 0 4.92 9c.087.068.178.072.274.012a.953.953 0 0 0 .202-.171c.1-.113.195-.232.281-.355a7.736 7.736 0 0 0 .689-1.225c.061-.138.11-.282.145-.43.021-.089.03-.18.028-.272a8.597 8.597 0 0 1-.004-.157.612.612 0 0 0-.018-.155.494.494 0 0 0-.26-.325.817.817 0 0 0-.376-.063c-.208.005-.41.05-.61.137-.034.014-.04.006-.02-.024a.247.247 0 0 0 .026-.063c.055-.184.12-.364.196-.54.13-.306.303-.581.516-.827a2.153 2.153 0 0 1 1.473-.763c.147-.014.26-.021.338-.02Zm28.207 6.266c.12.147.27.223.452.229.27.007.52-.058.752-.196.17-.101.32-.226.454-.374.114-.128.225-.277.333-.447.35-.554.565-1.152.644-1.795.01-.085.016-.183.016-.294v-.294a2.235 2.235 0 0 0-.206-.902.732.732 0 0 0-.144-.22.452.452 0 0 0-.24-.123 1.159 1.159 0 0 0-.367.022c-.311.056-.589.19-.833.406-.13.114-.245.24-.348.38a4.412 4.412 0 0 0-.728 1.538c-.101.392-.143.763-.127 1.112.012.253.072.491.182.717.037.075.09.156.16.241Zm-6.8-3.523-.046.062a3.975 3.975 0 0 0-.588.956 2.598 2.598 0 0 0-.205 1.175.012.012 0 0 0 .015.006c.458-.177.879-.42 1.262-.73.304-.244.572-.534.804-.869.117-.168.201-.346.254-.535a.634.634 0 0 0 .024-.176c0-.06-.005-.119-.014-.178a.4.4 0 0 0-.151-.276.468.468 0 0 0-.267-.08.812.812 0 0 0-.283.035c-.129.041-.26.111-.395.21a2.327 2.327 0 0 0-.41.4Z"></path></g></svg><svg fill="none" id="VKIcon" viewBox="0 0 29 16"><path opacity=".4" d="M26.475.838c1.3-.2 1.5.4 1.5.4.2.6-.5 2-2.4 4.1-2.8 3.8-3.1 3.4-.8 5.6 1.1.9 2 2 2.8 3.2 0 0 1 1.6-1 1.6l-3.7.1c-.7 0-1.3-.2-1.9-.6-1.4-.9-2.7-3.4-3.7-3.1 0 0-1 .4-1 2.6 0 .2-.1.5-.2.7-.2.2-.5.3-.8.3h-1.7c-3.7.3-6.9-3.1-6.9-3.1-2.8-3.3-5-7-6.6-11-.1-.2-.1-.5 0-.7.2-.2.5-.3.8-.3h4l.6.3c.1.2.2.3.3.5.7 1.6 1.5 3.1 1.5 3.1 1.4 3 2.4 3.5 3 3.2 0 0 .8-.5.6-4.1 0-.7-.1-1.3-.4-1.9-.3-.4-.7-.6-1.2-.6-.2 0 .1-.6.6-.8 1.1-.3 2.3-.4 3.5-.3.7 0 1.3 0 2 .2 1.4.3.9 1.6.9 4.7 0 1-.2 2.4.5 2.8.3.2 1 .1 2.9-3.1.6-1.1 1.1-2.2 1.6-3.3.1-.2.2-.3.4-.4.2-.1.4-.1.6-.1h4.2Z" fill="#000"></path></svg></svg>