<svg width="53" height="61" viewBox="0 0 53 61" fill="none" xmlns="http://www.w3.org/2000/svg">
<path fill-rule="evenodd" clip-rule="evenodd" d="M21.3521 7.28982C21.3701 7.33483 21.3881 7.37682 21.4061 7.41582C21.7331 8.10882 22.3301 8.77983 22.3301 8.77983L22.3401 8.77183L22.3421 8.77383C22.3421 8.77383 22.4281 8.70883 22.6021 8.60983C22.9037 8.44144 23.22 8.30086 23.5471 8.18983C24.2661 7.93582 25.2231 7.85483 25.2231 7.85483C25.2231 7.85483 24.3321 6.61483 24.1641 4.82282C24.0691 3.80783 24.1081 3.27483 24.1191 3.24383C24.0591 3.24083 23.9991 3.23483 23.9381 3.23483C23.2611 3.23483 22.6401 3.47183 22.1501 3.86583L22.1141 3.89483C21.6983 4.24015 21.3893 4.69671 21.2234 5.21114C21.0575 5.72557 21.0414 6.27661 21.1771 6.79983C21.2231 6.94483 21.2871 7.13182 21.3521 7.28982ZM26.3481 7.53683C26.5291 7.73283 26.7111 7.81882 26.8761 7.81882H26.9191C27.0841 7.81882 27.2661 7.73283 27.4481 7.53683C27.8481 7.14983 28.2691 6.49482 28.5541 5.70283C28.9641 4.55482 28.8451 3.58483 28.3651 3.12483C28.1283 2.90856 27.8323 2.76789 27.5151 2.72083C27.4095 2.70951 27.3034 2.70284 27.1971 2.70083C27.5005 2.62713 27.7663 2.44449 27.9438 2.18764C28.1214 1.93079 28.1983 1.61764 28.1601 1.30775C28.1218 0.997864 27.971 0.71285 27.7363 0.506914C27.5016 0.300977 27.1993 0.188483 26.8871 0.190825C26.7122 0.147131 26.5301 0.141047 26.3527 0.172975C26.1752 0.204903 26.0066 0.274116 25.8579 0.37604C25.7093 0.477964 25.5839 0.610279 25.4902 0.764241C25.3964 0.918204 25.3364 1.09031 25.3141 1.26918C25.2918 1.44806 25.3077 1.62963 25.3608 1.8019C25.4138 1.97417 25.5029 2.13322 25.622 2.26854C25.741 2.40385 25.8875 2.51236 26.0516 2.58687C26.2158 2.66139 26.3939 2.70023 26.5741 2.70083C26.4671 2.70383 26.3551 2.71083 26.2811 2.72083C25.9637 2.76811 25.6674 2.90873 25.4301 3.12483C24.9511 3.58583 24.8311 4.55482 25.2411 5.70283C25.5261 6.49482 25.9471 7.14983 26.3481 7.53683ZM38.5261 15.9818C38.8181 16.4448 38.8041 17.0248 38.8041 17.0248C38.8081 17.0258 39.3941 17.1268 39.6831 17.4158L39.7351 17.3628C40.1301 16.8758 40.8591 16.0788 41.0691 14.9208C41.2401 13.9778 41.1291 12.6568 40.9301 12.2348C40.9231 12.2198 40.9171 12.1968 40.9091 12.1838C41.0981 11.9638 41.4101 11.4568 42.2741 11.4568C42.5911 11.4568 42.8731 11.5428 43.1031 11.6518C43.4821 11.8348 43.7151 12.0758 43.7151 12.0758C43.7151 12.0758 42.9711 13.4008 42.5811 14.0328C42.3811 14.3558 42.2361 14.6068 41.8351 15.4908C41.5011 16.2278 41.4111 16.7168 41.4691 17.2438C41.5171 17.6868 41.7521 18.5348 41.8541 19.3858C42.0491 21.0178 41.7271 21.8148 41.7271 21.8148L41.7461 21.8018L41.7391 21.8208C41.7391 21.8208 43.6741 20.5428 44.8971 17.6898L44.8841 17.6868L44.8851 17.6838C44.6871 17.6504 44.495 17.5881 44.3151 17.4988C44.1543 17.4144 44.0017 17.3153 43.8591 17.2028C42.7771 16.3748 43.0211 15.4948 43.3731 15.0808C43.4731 14.9628 43.5771 14.8488 43.6841 14.7338C43.9571 14.4428 44.2511 14.1508 44.5601 13.7898C44.9501 13.3348 45.0921 12.8798 45.1421 12.4778C45.1591 12.3398 45.1781 12.2008 45.1781 12.0578C45.1781 10.8578 44.5961 10.0408 43.8551 9.63183C43.6136 9.49633 43.3509 9.40267 43.0781 9.35483C42.2481 9.21183 41.2321 9.52383 40.4901 10.0288C40.2081 10.2218 39.7421 10.6488 39.6111 10.9708C39.4491 11.7798 39.6901 11.9858 39.9361 12.8218C39.9411 12.8388 39.9511 12.8518 39.9561 12.8688C40.4651 14.7278 40.2041 15.6278 38.5261 15.9818ZM30.2211 14.3208C30.4391 14.7848 30.8391 15.2338 30.8391 15.2338L30.8431 15.2308L30.9021 15.2898C30.9021 15.2898 31.1201 15.0988 31.6961 14.8748C32.1721 14.6898 32.7801 14.6248 32.7801 14.6248C32.7801 14.6248 32.1831 13.7948 32.0711 12.5958C32.0061 11.9008 32.0351 11.5408 32.0411 11.5358L32.0281 11.5348L32.0291 11.5298C31.7191 11.4841 31.4025 11.5347 31.1221 11.6748C30.9345 11.7768 30.7588 11.8992 30.5981 12.0398C30.3411 12.2688 30.1681 12.5258 30.1011 12.8008C29.9897 13.1053 29.9621 13.4341 30.0211 13.7528C30.0271 13.7818 30.1301 14.1278 30.2211 14.3208ZM32.8701 13.0918C33.1281 13.8108 33.5551 14.4148 33.8851 14.5408C33.9308 14.5614 33.98 14.5729 34.0301 14.5748C34.3711 14.5348 34.8241 13.8468 35.0421 13.0038C35.2471 12.2158 35.1081 11.5568 34.7631 11.2778C34.6838 11.2177 34.5975 11.1674 34.5061 11.1278C34.4129 11.0848 34.3154 11.0519 34.2151 11.0298C34.1981 11.0268 34.1831 11.0198 34.1681 11.0158C34.3141 10.9401 34.435 10.8236 34.5161 10.6806C34.5972 10.5375 34.6351 10.374 34.6251 10.2098C34.6203 10.0469 34.5688 9.88883 34.4768 9.7543C34.3848 9.61977 34.2562 9.51445 34.1061 9.45083C34.005 9.40823 33.8957 9.38842 33.7861 9.39283C33.3511 9.41283 33.0131 9.80682 33.0351 10.2748C33.0511 10.6308 33.2701 10.9248 33.5651 11.0368C33.3471 11.0938 33.1551 11.2038 32.9961 11.3458C32.6751 11.6548 32.5951 12.3238 32.8701 13.0918ZM35.2011 14.5608C35.2011 14.5608 36.2181 14.5688 37.2341 14.9658C37.2521 14.9728 37.2651 14.9818 37.2821 14.9908C37.4181 14.8168 37.6151 14.5428 37.7471 14.2628C37.8381 14.0698 37.9421 13.7238 37.9471 13.6948C38.0066 13.3761 37.979 13.0472 37.8671 12.7428C37.8001 12.4678 37.6271 12.2108 37.3701 11.9818C37.2094 11.8412 37.0337 11.7188 36.8461 11.6168L36.8391 11.6138L36.8341 11.6108C36.5538 11.4707 36.2372 11.4201 35.9271 11.4658C35.9341 11.4708 35.9631 11.8308 35.8981 12.5258C35.7851 13.7248 35.1881 14.5548 35.1881 14.5548L35.2041 14.5558L35.2011 14.5608ZM28.5721 7.85483C28.5721 7.85483 29.5291 7.93582 30.2481 8.18983C30.574 8.30387 30.8901 8.44434 31.1931 8.60983C31.3681 8.70883 31.4531 8.77383 31.4531 8.77383L31.4551 8.77183C31.4588 8.77452 31.4624 8.77719 31.4661 8.77983C31.4661 8.77983 32.0631 8.10882 32.3891 7.41582L32.4441 7.28982C32.5081 7.13182 32.5721 6.94483 32.6181 6.79983C32.7562 6.27671 32.7413 5.72496 32.5752 5.21005C32.4091 4.69515 32.0988 4.23868 31.6811 3.89483L31.6451 3.86583C31.1393 3.45695 30.5085 3.23419 29.8581 3.23483C29.7961 3.23483 29.7371 3.24083 29.6761 3.24383C29.6871 3.27483 29.7271 3.80783 29.6311 4.82282C29.4641 6.61483 28.5721 7.85483 28.5721 7.85483Z" fill="white"/>
<path fill-rule="evenodd" clip-rule="evenodd" d="M29.2039 10.6109C29.2039 10.6109 29.3159 11.1699 29.3829 11.4209C29.406 11.4208 29.4291 11.4228 29.4519 11.4269C29.8769 11.2559 30.7119 11.0059 30.7119 10.7269V9.83495C30.7119 9.67295 30.5489 9.52095 30.2599 9.38895C29.6719 9.11395 28.5679 8.92295 27.3139 8.89995L26.5859 8.89795C25.2909 8.91095 24.1299 9.10495 23.5239 9.38895C23.2349 9.52095 23.0659 9.67295 23.0659 9.83495V10.7269C23.0659 11.0059 23.9099 11.2559 24.3349 11.4269C24.3349 11.4239 24.4029 11.4199 24.4069 11.4209C24.4749 11.1699 24.5889 10.6109 24.5889 10.6109C24.5889 10.6109 24.4969 10.5739 24.4799 10.5369C24.4279 10.4249 24.5229 10.3599 24.6799 10.2719C24.8369 10.1859 25.0959 10.1349 25.3159 10.1259C25.4499 10.6159 25.4689 11.3839 25.4409 12.0439C25.3829 13.3669 25.1329 15.0279 24.3489 16.1569C24.6469 16.4469 24.9759 16.8219 25.3129 17.3029C26.1249 15.7439 26.2529 14.0389 26.3209 12.2819C26.3519 11.5089 26.3209 10.6039 26.3209 9.98395C26.3969 9.98295 26.6489 9.95295 26.8999 9.95295C27.1489 9.95295 27.3979 9.98295 27.4739 9.98395C27.4749 10.6039 27.4439 11.5089 27.4739 12.2819C27.5429 14.0709 27.6709 15.806 28.5229 17.3879C28.8319 16.936 29.1349 16.5719 29.4159 16.2849L29.4749 16.2029C28.6669 15.0719 28.4129 13.3839 28.3539 12.0439C28.3259 11.3839 28.3449 10.6159 28.4789 10.1259C28.6989 10.1349 28.9569 10.1859 29.1139 10.2719C29.2719 10.3599 29.3659 10.4249 29.3139 10.5369C29.2969 10.5739 29.2039 10.6109 29.2039 10.6109ZM9.08089 13.7899C9.39089 14.1509 9.68389 14.4429 9.95689 14.7339C10.0639 14.8489 10.1679 14.9629 10.2679 15.0809C10.6209 15.4949 10.8639 16.3749 9.78189 17.2029C9.63947 17.3156 9.4868 17.4147 9.32589 17.499C9.14597 17.5882 8.95392 17.6505 8.75589 17.6839L8.75689 17.6869L8.74389 17.6899C9.96689 20.5429 11.9019 21.8209 11.9019 21.8209L11.8949 21.8019C11.9014 21.8061 11.9077 21.8104 11.9139 21.8149C11.9139 21.8149 11.5919 21.0179 11.7869 19.3859C11.8889 18.5349 12.1239 17.6869 12.1719 17.2439C12.2299 16.7169 12.1399 16.2279 11.8059 15.4909C11.4049 14.6069 11.2599 14.3559 11.0599 14.0329C10.6699 13.4009 9.92589 12.0759 9.92589 12.0759C9.92589 12.0759 10.1589 11.8349 10.5379 11.6519C10.7679 11.5429 11.0499 11.4569 11.3669 11.4569C12.2309 11.4569 12.5429 11.9639 12.7319 12.1839C12.7239 12.1969 12.7179 12.2199 12.7109 12.2349C12.5119 12.6569 12.4009 13.9779 12.5719 14.9209C12.7819 16.0789 13.5109 16.876 13.9069 17.363C13.9129 17.371 13.9579 17.4159 13.9579 17.4159C14.2469 17.127 14.8329 17.0259 14.8369 17.0249C14.8369 17.0249 14.8229 16.4449 15.1149 15.9819C13.4369 15.6279 13.1759 14.728 13.6849 12.8689C13.6899 12.8519 13.6999 12.8389 13.7049 12.8219C13.9509 11.9859 14.1919 11.7799 14.0299 10.9709C13.8989 10.6489 13.4329 10.2219 13.1499 10.0289C12.4089 9.52395 11.3929 9.21195 10.5629 9.35495C10.2969 9.40095 10.0329 9.49395 9.78689 9.63195C9.04489 10.0409 8.46289 10.8579 8.46289 12.0579C8.46289 12.2009 8.48189 12.3399 8.49889 12.4779C8.54889 12.8799 8.69089 13.3349 9.08089 13.7899Z" fill="white"/>
<path fill-rule="evenodd" clip-rule="evenodd" d="M20.8601 14.6247C20.8601 14.6247 21.4681 14.6897 21.9441 14.8747C22.5201 15.0987 22.7381 15.2897 22.7381 15.2897L22.7971 15.2307L22.8011 15.2337C22.8011 15.2337 23.2011 14.7847 23.4191 14.3207C23.5101 14.1277 23.6141 13.7817 23.6191 13.7527C23.6782 13.4339 23.6505 13.1051 23.5391 12.8007C23.4721 12.5257 23.2991 12.2687 23.0421 12.0397C22.8814 11.8991 22.7057 11.7767 22.5181 11.6747C22.2378 11.5346 21.9212 11.484 21.6111 11.5297L21.6121 11.5347L21.5991 11.5357C21.6061 11.5407 21.6341 11.9007 21.5691 12.5957C21.4571 13.7947 20.8601 14.6247 20.8601 14.6247ZM19.6091 14.5747H19.6101C19.6602 14.5728 19.7094 14.5612 19.7551 14.5407C20.0851 14.4147 20.5121 13.8107 20.7711 13.0917C21.0451 12.3237 20.9651 11.6547 20.6441 11.3457C20.4817 11.199 20.2867 11.093 20.0751 11.0367C20.228 10.9749 20.3596 10.8699 20.4539 10.7346C20.5482 10.5993 20.6011 10.4395 20.6061 10.2747C20.6271 9.80669 20.2891 9.41269 19.8541 9.39269C19.7445 9.38829 19.6353 9.40809 19.5341 9.45069C19.3841 9.51432 19.2555 9.61964 19.1635 9.75417C19.0715 9.8887 19.02 10.0468 19.0151 10.2097C19.0052 10.3738 19.0431 10.5374 19.1242 10.6804C19.2053 10.8235 19.3262 10.94 19.4721 11.0157C19.4571 11.0197 19.4421 11.0267 19.4261 11.0297C19.3231 11.0517 19.2261 11.0857 19.1341 11.1277C19.0421 11.1677 18.9561 11.2177 18.8771 11.2777C18.5321 11.5567 18.3931 12.2157 18.5981 13.0037C18.8171 13.8467 19.2681 14.5347 19.6091 14.5747ZM15.8931 14.2627C16.0251 14.5427 16.2221 14.8167 16.3591 14.9907C16.3751 14.9817 16.3881 14.9727 16.4061 14.9657C17.4221 14.5687 18.4391 14.5607 18.4391 14.5607L18.4361 14.5557L18.4521 14.5547C18.4521 14.5547 17.8551 13.7247 17.7421 12.5257C17.6771 11.8307 17.7061 11.4707 17.7131 11.4657C17.4031 11.42 17.0865 11.4706 16.8061 11.6107L16.8011 11.6137C16.611 11.7162 16.4329 11.8396 16.2701 11.9817C16.0131 12.2107 15.8401 12.4677 15.7731 12.7427C15.6618 13.0471 15.6341 13.3759 15.6931 13.6947C15.6981 13.7237 15.8021 14.0697 15.8931 14.2627ZM19.5211 21.9527C19.543 21.951 19.5641 21.9445 19.5831 21.9337C19.6106 21.9216 19.6337 21.9014 19.6494 21.8759C19.6651 21.8503 19.6727 21.8206 19.6711 21.7907C19.6689 21.763 19.6591 21.7364 19.6426 21.714C19.6262 21.6916 19.6039 21.6742 19.5781 21.6637C19.0371 21.4507 18.5551 21.1747 17.8011 21.2487C17.1321 21.3157 16.4841 21.7857 16.1421 22.1057C16.0571 22.1857 15.5831 22.6037 15.5421 22.6367C15.3688 22.77 15.1763 22.8762 14.9711 22.9517C14.5971 23.0977 14.1461 23.1327 13.6811 23.1037C13.6365 23.0987 13.5919 23.0944 13.5471 23.0907L13.5271 23.0887C13.5141 23.0877 13.5021 23.0907 13.4891 23.0927C13.4851 23.0937 13.4821 23.0977 13.4781 23.0987C13.4466 23.1035 13.4165 23.1187 13.3946 23.1419C13.3727 23.165 13.3591 23.1949 13.3561 23.2267C13.3511 23.2787 13.3741 23.3267 13.4131 23.3567L13.4191 23.3597C13.4811 23.4057 13.5511 23.4387 13.6171 23.4777L13.6301 23.4847C13.7321 23.5447 13.8411 23.5957 13.9541 23.6407C14.0371 23.6717 14.1201 23.7047 14.2061 23.7257L14.2491 23.7387C14.5741 23.8227 14.9211 23.8467 15.2541 23.7897C15.5711 23.7267 15.8151 23.5577 16.0921 23.3817C16.3051 23.2477 16.6241 22.9127 16.9951 22.6487C17.2761 22.4487 17.6331 22.3337 17.9911 22.2247C18.49 22.0799 19.0029 21.9887 19.5211 21.9527Z" fill="white"/>
<path fill-rule="evenodd" clip-rule="evenodd" d="M13.6167 20.49C13.6377 20.583 13.6597 20.669 13.6817 20.752C13.8097 21.229 13.9597 21.569 14.0937 21.797L14.1027 21.785L14.1057 21.791C14.5709 21.1587 15.2218 20.6875 15.9677 20.443C16.346 20.3168 16.7419 20.2517 17.1407 20.25C17.1607 20.25 17.1797 20.252 17.1987 20.253C18.0147 20.265 18.7177 20.537 19.3307 20.988C19.6027 21.188 19.8927 21.459 20.1327 21.746C20.2505 21.8844 20.3219 22.0565 20.3366 22.2377C20.3513 22.419 20.3087 22.6003 20.2147 22.756C19.9107 23.243 19.3947 23.519 19.1707 23.621C18.8657 23.758 18.4987 23.821 18.1397 23.821C17.5067 23.821 17.0567 23.578 17.0537 23.581V23.583L17.0507 23.582C17.0487 23.585 17.0437 23.584 17.0417 23.588C17.0187 23.618 17.0257 23.664 17.1427 23.781C17.2887 23.927 18.6277 24.728 20.0547 23.761C20.1337 23.707 20.4057 23.506 20.6477 23.195C20.844 22.9378 20.9532 22.6247 20.9595 22.3012C20.9658 21.9777 20.8688 21.6606 20.6827 21.396C20.5715 21.2344 20.451 21.0794 20.3217 20.932C19.9307 20.489 18.8077 19.526 17.8547 19.265C16.2297 18.818 15.7707 19.111 15.3307 19.059C14.7277 18.988 14.8707 18.645 15.2747 18.411C15.4017 18.336 15.5157 18.223 15.5497 18.116C15.5837 18.009 15.5387 17.907 15.3507 17.857C15.3187 17.85 15.2857 17.835 15.2537 17.835C13.4887 17.835 13.4357 19.691 13.6167 20.49ZM34.1227 21.953C34.1008 21.9514 34.0796 21.9449 34.0607 21.934C34.0331 21.9221 34.0098 21.902 33.9941 21.8764C33.9783 21.8508 33.9708 21.821 33.9727 21.791C33.9749 21.7633 33.9848 21.7367 34.0012 21.7143C34.0176 21.6919 34.0399 21.6744 34.0657 21.664C34.6067 21.451 35.0877 21.175 35.8427 21.249C36.5117 21.316 37.1597 21.786 37.5017 22.106C37.5867 22.186 38.0597 22.604 38.1017 22.637C38.2787 22.763 38.4607 22.882 38.6727 22.952C39.0457 23.098 39.4977 23.133 39.9627 23.104L40.0957 23.091L40.1167 23.089C40.1297 23.088 40.1417 23.091 40.1537 23.093C40.1587 23.094 40.1617 23.098 40.1657 23.099C40.1972 23.1037 40.2273 23.1189 40.2492 23.1421C40.2712 23.1653 40.2847 23.1952 40.2877 23.227C40.29 23.2517 40.286 23.2766 40.276 23.2994C40.2661 23.3221 40.2505 23.3419 40.2307 23.357L40.2247 23.36C40.1627 23.406 40.0927 23.439 40.0267 23.478L40.0137 23.485C39.9117 23.545 39.8017 23.596 39.6887 23.641C39.6067 23.672 39.5237 23.705 39.4377 23.726L39.3937 23.739C39.0663 23.8263 38.7242 23.8437 38.3897 23.79C38.0727 23.727 37.8277 23.558 37.5517 23.382C37.3387 23.248 37.0197 22.913 36.6487 22.649C36.3677 22.449 36.0107 22.334 35.6517 22.225C35.1532 22.0801 34.6406 21.9889 34.1227 21.953Z" fill="white"/>
<path fill-rule="evenodd" clip-rule="evenodd" d="M40.0268 20.49C40.0069 20.5778 39.9849 20.6652 39.9608 20.752C39.8709 21.117 39.7327 21.4685 39.5498 21.797L39.5408 21.785L39.5378 21.791C39.0718 21.1596 38.4212 20.6885 37.6758 20.443C37.2975 20.3169 36.9016 20.2518 36.5028 20.25C36.4828 20.25 36.4638 20.252 36.4438 20.253C35.6288 20.265 34.9258 20.537 34.3128 20.988C34.0408 21.188 33.7508 21.459 33.5108 21.746C33.393 21.8844 33.3216 22.0565 33.3069 22.2377C33.2922 22.419 33.3348 22.6003 33.4288 22.756C33.7328 23.243 34.2488 23.519 34.4728 23.621C34.7768 23.758 35.1448 23.821 35.5028 23.821C36.1368 23.821 36.5868 23.578 36.5898 23.581V23.583L36.5918 23.582C36.5948 23.585 36.5998 23.584 36.6018 23.588C36.6248 23.618 36.6168 23.664 36.5008 23.781C36.3548 23.927 35.0148 24.728 33.5878 23.761C33.3641 23.6016 33.1644 23.411 32.9948 23.195C32.7988 22.9376 32.6899 22.6245 32.6837 22.301C32.6776 21.9776 32.7747 21.6606 32.9608 21.396C33.0768 21.228 33.2008 21.069 33.3218 20.932C33.7118 20.489 34.8358 19.526 35.7888 19.265C37.4138 18.818 37.8728 19.111 38.3118 19.059C38.9158 18.988 38.7728 18.645 38.3688 18.411C38.2408 18.336 38.1278 18.223 38.0938 18.116C38.0598 18.009 38.1038 17.907 38.2918 17.857C38.3248 17.85 38.3578 17.835 38.3898 17.835C40.1548 17.835 40.2078 19.691 40.0268 20.49ZM35.0908 47.717L35.0938 47.736H35.1038L35.0908 47.717ZM22.0568 54.354C22.4848 54.24 22.8738 54.108 23.2878 53.95C23.4918 53.87 23.6968 53.78 23.9008 53.677C24.1058 53.572 24.3098 53.454 24.5068 53.314C24.7028 53.178 24.8828 53.006 25.0368 52.811C25.1148 52.715 25.1778 52.608 25.2338 52.495C25.2608 52.435 25.2898 52.372 25.3098 52.317L25.3478 52.162L25.3498 52.157C25.3565 52.1304 25.3579 52.1027 25.3539 52.0756C25.3499 52.0484 25.3406 52.0223 25.3265 51.9988C25.3123 51.9753 25.2937 51.9548 25.2716 51.9385C25.2495 51.9223 25.2245 51.9105 25.1978 51.904C25.1565 51.894 25.113 51.8975 25.0738 51.914C25.0361 51.9252 25.0024 51.9471 24.9768 51.977C24.8468 52.129 24.7088 52.233 24.5598 52.314C24.4076 52.3907 24.2486 52.4533 24.0848 52.501C23.7408 52.601 23.3608 52.653 22.9728 52.703C22.5898 52.752 22.1738 52.795 21.7938 52.832C21.4128 52.867 21.0238 52.886 20.6298 52.9L19.4088 52.94C18.9848 52.962 18.5438 52.984 18.0368 53.101C17.8448 53.147 17.6368 53.205 17.4238 53.306C17.3496 53.34 17.2775 53.3784 17.2078 53.421C16.9308 53.594 16.6538 53.875 16.5178 54.202C16.3937 54.4722 16.3532 54.7734 16.4015 55.0669C16.4497 55.3604 16.5846 55.6327 16.7888 55.849C16.8267 55.8878 16.8754 55.9142 16.9286 55.9248C16.9819 55.9353 17.037 55.9294 17.0868 55.908C17.1299 55.8827 17.1705 55.8532 17.2078 55.82C17.5588 55.252 18.3118 54.947 18.4588 54.912C19.0668 54.77 19.9368 54.732 20.7738 54.609C21.1988 54.547 21.6278 54.467 22.0568 54.354ZM18.2268 52.003C18.2232 52.057 18.2412 52.1103 18.2768 52.1512C18.3124 52.192 18.3628 52.2171 18.4168 52.221C18.4622 52.2242 18.5074 52.2119 18.5448 52.186L18.5518 52.181C18.5524 52.1807 18.5531 52.1805 18.5538 52.1805C18.5545 52.1805 18.5552 52.1807 18.5558 52.181L18.6228 52.136C18.7154 52.0729 18.813 52.0177 18.9148 51.971C19.2158 51.834 19.5188 51.785 19.8178 51.778C20.2278 51.766 20.6448 51.816 21.1248 51.902C21.6418 51.995 22.2248 52.037 22.7908 51.991C23.0778 51.97 23.3678 51.915 23.6628 51.835C23.8098 51.785 23.9598 51.736 24.1118 51.656C24.1127 51.6552 24.1137 51.6545 24.1148 51.654L24.1238 51.65C24.2638 51.571 24.4588 51.47 24.5578 51.254C24.5682 51.2309 24.5733 51.2057 24.5726 51.1804C24.5718 51.155 24.5653 51.1302 24.5536 51.1077C24.5418 51.0853 24.5251 51.0658 24.5047 51.0508C24.4843 51.0357 24.4607 51.0255 24.4358 51.021C24.4358 51.021 23.8608 50.913 23.6268 50.845L22.8968 50.658C22.3963 50.5325 21.8913 50.4257 21.3828 50.338C20.8128 50.24 20.1358 50.244 19.5048 50.49C19.4248 50.521 19.3458 50.557 19.2688 50.597C18.7318 50.873 18.2698 51.37 18.2268 52.003ZM19.0518 49.982C19.0778 49.976 19.4128 49.855 19.5718 49.803L19.5678 49.801C19.5738 49.799 17.5928 49.084 18.7168 47.808L18.7218 47.759C18.7178 47.763 18.7158 47.75 18.7128 47.754C18.5221 47.7259 18.3273 47.7492 18.1485 47.8215C17.9698 47.8937 17.8135 48.0123 17.6958 48.165C17.1578 48.832 17.8958 49.556 17.9158 49.57C17.8058 49.561 17.5408 49.522 17.4308 49.51C16.9518 49.182 16.1588 48.376 17.2968 46.669C17.2678 46.665 17.2388 46.664 17.2098 46.662C17.0459 46.655 16.8826 46.6861 16.7328 46.753C16.6458 46.7816 16.5609 46.8164 16.4788 46.857C15.9178 47.13 15.5358 47.66 15.5358 48.275C15.5358 48.526 15.6038 48.76 15.7168 48.972C15.7988 49.126 15.9098 49.264 16.0388 49.386C15.9538 49.379 15.5908 49.356 15.5048 49.33C14.9828 48.731 14.4068 47.609 15.5188 46.296C15.3271 46.2715 15.1323 46.3002 14.9558 46.379C14.8581 46.4146 14.7638 46.4588 14.6738 46.511C14.0588 46.862 13.7578 47.535 13.7578 48.09C13.7578 48.341 13.8488 48.75 13.9398 48.972C14.6698 50.759 18.1188 50.217 19.0518 49.982ZM36.5908 53.421C36.5212 53.3784 36.449 53.34 36.3748 53.306C36.1783 53.2162 35.9728 53.1475 35.7618 53.101C35.2548 52.984 34.8138 52.962 34.3898 52.94L33.1688 52.9C32.7803 52.8881 32.3921 52.8655 32.0048 52.832C31.6248 52.795 31.2088 52.752 30.8258 52.703C30.4378 52.653 30.0578 52.601 29.7138 52.501C29.5501 52.4533 29.3911 52.3907 29.2388 52.314C29.0797 52.229 28.9382 52.1147 28.8218 51.977C28.7962 51.9471 28.7625 51.9252 28.7248 51.914C28.6856 51.8975 28.6422 51.894 28.6008 51.904C28.5742 51.9105 28.5491 51.9223 28.527 51.9385C28.5049 51.9548 28.4863 51.9753 28.4722 51.9988C28.458 52.0223 28.4487 52.0484 28.4447 52.0756C28.4407 52.1027 28.4421 52.1304 28.4488 52.157L28.4508 52.162L28.4888 52.317C28.5088 52.372 28.5378 52.435 28.5648 52.495C28.6208 52.608 28.6828 52.715 28.7618 52.811C28.9158 53.006 29.0958 53.178 29.2918 53.314C29.4888 53.454 29.6928 53.572 29.8978 53.677C30.1018 53.78 30.3068 53.87 30.5108 53.95C30.9248 54.108 31.3138 54.24 31.7418 54.354C32.1708 54.467 32.5998 54.547 33.0258 54.609C33.8628 54.732 34.7318 54.77 35.3398 54.912C35.4868 54.947 36.2398 55.252 36.5908 55.82C36.5908 55.82 36.6778 55.895 36.7118 55.908C36.8118 55.95 36.9308 55.931 37.0098 55.849C37.214 55.6327 37.3489 55.3604 37.3972 55.0669C37.4455 54.7734 37.4049 54.4722 37.2808 54.202C37.1448 53.875 36.8678 53.594 36.5908 53.421ZM29.6748 51.65L29.6828 51.654L29.6858 51.655C29.8388 51.736 29.9888 51.785 30.1358 51.835C30.4308 51.915 30.7208 51.97 31.0068 51.991C31.564 52.0321 32.1242 52.0022 32.6738 51.902C33.1538 51.816 33.5708 51.766 33.9808 51.778C34.2798 51.785 34.5828 51.834 34.8838 51.971C34.9856 52.0177 35.0833 52.0729 35.1758 52.136L35.2408 52.18H35.2448L35.2538 52.186C35.2855 52.2071 35.3224 52.219 35.3605 52.2203C35.3986 52.2216 35.4363 52.2121 35.4692 52.1931C35.5022 52.174 35.5292 52.1461 35.5472 52.1125C35.5651 52.0789 35.5733 52.041 35.5708 52.003C35.5288 51.37 35.0668 50.873 34.5298 50.597C34.4532 50.557 34.3744 50.5213 34.2938 50.49C33.6628 50.244 32.9858 50.24 32.4158 50.338C31.8798 50.429 31.4028 50.535 30.9018 50.658L30.1708 50.845C29.9368 50.913 29.3628 51.021 29.3628 51.021C29.3379 51.0255 29.3143 51.0357 29.2939 51.0508C29.2735 51.0658 29.2568 51.0853 29.2451 51.1077C29.2333 51.1302 29.2268 51.155 29.2261 51.1804C29.2253 51.2057 29.2304 51.2309 29.2408 51.254C29.3388 51.47 29.5348 51.571 29.6748 51.65ZM39.1248 46.511C39.0348 46.4588 38.9405 46.4146 38.8428 46.379C38.6663 46.3003 38.4715 46.2716 38.2798 46.296C39.3918 47.609 38.8148 48.731 38.2938 49.33C38.2068 49.356 37.8448 49.379 37.7598 49.386C37.8888 49.264 37.9998 49.126 38.0818 48.972C38.1938 48.76 38.2628 48.526 38.2628 48.275C38.2628 47.66 37.8808 47.13 37.3198 46.857C37.2377 46.8164 37.1528 46.7816 37.0658 46.753C36.916 46.6861 36.7527 46.655 36.5888 46.662C36.5598 46.664 36.5308 46.665 36.5018 46.669C37.6398 48.376 36.8468 49.182 36.3678 49.51C36.2578 49.522 35.9928 49.561 35.8828 49.57C35.9028 49.556 36.6408 48.832 36.1028 48.165C35.9851 48.0123 35.8288 47.8937 35.6501 47.8215C35.4713 47.7492 35.2766 47.7259 35.0858 47.754C35.0828 47.75 35.0808 47.763 35.0768 47.759L35.0818 47.808C36.2058 49.084 34.2248 49.799 34.2308 49.801L34.2268 49.803C34.3858 49.855 34.7208 49.976 34.7468 49.982C35.6798 50.217 39.1288 50.759 39.8588 48.972C39.9498 48.75 40.0408 48.341 40.0408 48.09C40.0408 47.535 39.7398 46.862 39.1248 46.511ZM30.1138 41.272C30.0948 41.247 30.0348 41.233 30.0348 41.233C30.0071 41.2264 29.9779 41.2303 29.9528 41.244C29.6973 41.4004 29.4994 41.6355 29.3888 41.914C29.3448 42.032 29.3098 42.151 29.3358 42.278C29.3648 42.405 29.4268 42.537 29.6028 42.683C29.6418 42.715 29.7928 42.771 29.8998 42.737C30.1158 42.666 30.2238 42.568 30.2978 42.461C30.3708 42.354 30.3818 42.229 30.3858 42.104C30.389 41.8043 30.2934 41.5119 30.1138 41.272Z" fill="white"/>
<path fill-rule="evenodd" clip-rule="evenodd" d="M52.7676 30.2939C52.7448 30.2175 52.7068 30.1465 52.656 30.0852C52.6051 30.0238 52.5424 29.9734 52.4716 29.9369C52.4027 29.8991 52.3271 29.8753 52.249 29.8669C52.1709 29.8584 52.0919 29.8656 52.0166 29.8879L51.9916 29.8959C51.3076 30.0998 50.5916 30.3138 49.8876 30.4768C49.5356 30.5628 49.1856 30.6469 48.8356 30.7239C48.4866 30.7979 48.1426 30.8579 47.7636 30.9079C47.0275 31.0064 46.2893 31.088 45.5496 31.1529C45.0756 31.1919 44.5906 31.2249 44.1186 31.2459L44.3236 31.1919C44.5286 31.1349 44.7306 31.0759 44.9306 31.0129C45.3296 30.8879 45.7216 30.7539 46.1076 30.6129C46.8761 30.33 47.6355 30.0229 48.3846 29.6918C49.1356 29.3708 49.9216 29.0068 50.6176 28.5568C51.3176 28.0948 51.9756 27.6129 52.5906 27.0129C52.6589 26.946 52.7101 26.8636 52.7397 26.7727C52.7694 26.6818 52.7766 26.5851 52.7608 26.4908C52.745 26.3965 52.7066 26.3074 52.6489 26.2312C52.5913 26.1549 52.516 26.0937 52.4296 26.0528C52.3419 26.0089 52.2446 25.9874 52.1466 25.9901C52.0485 25.9929 51.9526 26.02 51.8676 26.0689L51.8436 26.0829C51.1841 26.4711 50.5103 26.8343 49.8236 27.1719C49.1306 27.5109 48.4736 27.8339 47.7346 28.0859C47.0006 28.3429 46.2526 28.5829 45.5086 28.7909C45.1366 28.8949 44.7636 28.9909 44.3936 29.0759L44.1456 29.1279C44.3326 29.0479 44.5166 28.9658 44.6936 28.8798C45.091 28.6849 45.4819 28.4768 45.8656 28.2559C46.613 27.821 47.3436 27.3577 48.0556 26.8669C48.7816 26.3779 49.5046 25.8449 50.1346 25.2379C50.7636 24.6179 51.3426 23.9839 51.8516 23.2329C51.8996 23.1612 51.9314 23.08 51.9449 22.9948C51.9583 22.9096 51.9529 22.8225 51.9292 22.7396C51.9055 22.6566 51.864 22.5799 51.8076 22.5146C51.7512 22.4494 51.6812 22.3973 51.6026 22.3619C51.4966 22.3108 51.3779 22.2926 51.2615 22.3095C51.1452 22.3265 51.0366 22.3778 50.9496 22.4569L50.9276 22.4769C50.3367 23.023 49.7214 23.5422 49.0836 24.0329C48.4446 24.5259 47.8206 25.0059 47.1206 25.4059C46.9896 25.4829 46.8556 25.5539 46.7246 25.6279C46.1416 25.9589 45.5546 26.2769 44.9616 26.5619C44.8466 26.6169 44.7316 26.6688 44.6166 26.7219C44.4028 26.8202 44.1867 26.9136 43.9686 27.0019L44.0866 26.9219C44.3406 26.7429 44.5796 26.5559 44.8136 26.3669C44.9436 26.2619 45.0736 26.1579 45.1986 26.0509C45.8813 25.4647 46.537 24.8477 47.1636 24.2018L47.1876 24.1778C47.8456 23.5078 48.4626 22.8169 48.9856 22.0549C49.5016 21.2839 49.9626 20.5079 50.3236 19.6249C50.3744 19.5009 50.3817 19.3635 50.3443 19.2349C50.3068 19.1063 50.2269 18.9942 50.1176 18.9169L50.1056 18.9119V18.9109C49.9771 18.8203 49.8179 18.7846 49.663 18.8114C49.5081 18.8382 49.3702 18.9254 49.2796 19.0539L49.2616 19.0789C48.7782 19.7736 48.2609 20.4441 47.7116 21.0879C47.5476 21.2808 47.3816 21.4729 47.2156 21.6629C46.8256 22.1069 46.4246 22.5369 45.9896 22.9229C45.7716 23.1159 45.5516 23.3008 45.3306 23.4868C44.9316 23.8238 44.5286 24.1518 44.1176 24.4588C44.1806 24.3769 44.2456 24.2949 44.3066 24.2119C44.6476 23.7438 44.9606 23.2699 45.2606 22.7909C45.4686 22.4589 45.6706 22.1249 45.8676 21.7889C46.2146 21.2079 46.5306 20.6119 46.8046 19.9999C46.9276 19.7259 47.0446 19.4489 47.1476 19.1669C47.4766 18.2499 47.7416 17.3389 47.8816 16.3459C47.9007 16.2108 47.8725 16.0733 47.8018 15.9566C47.7311 15.84 47.6222 15.7514 47.4936 15.7059H47.4906L47.4816 15.6999C47.4084 15.6739 47.3307 15.6625 47.2532 15.6666C47.1756 15.6706 47.0996 15.6899 47.0294 15.7233C46.9593 15.7568 46.8965 15.8037 46.8445 15.8614C46.7925 15.9192 46.7525 15.9866 46.7266 16.0599L46.7166 16.0889C46.4666 16.7929 46.1656 17.5169 45.8396 18.2149C45.7886 18.3259 45.7426 18.4419 45.6886 18.5509C45.3216 19.3079 44.9376 20.0519 44.4896 20.7509C44.4626 20.7929 44.4386 20.8359 44.4116 20.8769C44.0756 21.3699 43.7246 21.8489 43.3656 22.3159C42.2596 23.5489 40.3946 24.7829 39.3856 25.2739C38.8946 25.5119 38.3926 25.8388 37.8896 26.0848C37.8826 26.0888 37.8746 26.0939 37.8666 26.0969C37.5276 26.2619 37.2366 26.5249 37.0646 26.8599C37.0221 26.9462 36.9857 27.0354 36.9556 27.1269C36.8998 27.2932 36.8708 27.4674 36.8696 27.6428C36.8696 28.2878 37.2216 28.9079 37.7496 29.1839C37.9246 29.2789 38.1206 29.3349 38.3296 29.3408C38.3646 29.3419 38.3916 29.3369 38.4216 29.3338C38.522 29.3263 38.6188 29.2928 38.7026 29.2368C38.7026 29.2368 38.5616 28.8579 38.7776 28.6869C38.8876 28.6163 39.0129 28.5731 39.143 28.5608C39.2731 28.5484 39.4042 28.5673 39.5256 28.6158C39.6847 28.6853 39.8166 28.805 39.9012 28.9565C39.9858 29.1081 40.0184 29.2832 39.994 29.4551C39.9696 29.6269 39.8896 29.7861 39.7661 29.9081C39.6427 30.0302 39.4827 30.1084 39.3106 30.1309C39.1346 30.1999 38.7956 30.2109 38.5796 30.2109C37.5554 30.2091 36.5437 29.9864 35.6136 29.5579C34.9836 29.2669 33.8266 28.4179 33.8436 28.3699C32.6526 27.2639 31.8996 25.7448 31.8346 24.0638C31.8316 23.9858 31.8216 23.9099 31.8216 23.8319C31.8223 23.1674 31.9297 22.5073 32.1396 21.8769C32.3692 21.1776 32.7202 20.5243 33.1766 19.9469C33.2206 19.8919 33.4246 19.6679 33.6876 19.4069L33.7346 19.3609L33.7426 19.3519C34.0336 19.0669 34.3856 18.7469 34.6866 18.5498L34.6886 18.5479C34.6222 18.4936 34.5601 18.4344 34.5026 18.3709C33.9536 18.3169 33.7586 18.0569 33.6666 17.8359L33.6586 17.8149C33.6514 17.7977 33.6447 17.7804 33.6386 17.7629C33.6141 17.6421 33.6081 17.5184 33.6206 17.3959C33.6626 17.1929 33.7836 16.9928 33.8876 16.8938C33.9366 16.8388 33.9876 16.7898 34.0416 16.7478C34.2066 16.6208 34.3946 16.5508 34.5936 16.5118C34.6436 16.5018 34.6936 16.4929 34.7446 16.4869L34.7636 16.4839C35.2726 16.4309 35.7766 16.6519 35.9786 17.1729L35.9796 17.1759C35.9516 17.1959 35.6576 17.2509 35.6576 17.2509H35.6566C35.5516 17.0269 35.3776 16.9329 35.1736 16.9479C35.1008 16.9546 35.0294 16.9717 34.9616 16.9989C34.9171 17.0162 34.8759 17.0409 34.8396 17.0719C34.5126 17.3499 34.7996 18.0539 35.2526 18.1039C35.3285 18.1112 35.4052 18.101 35.4766 18.0739L35.4846 18.0708C35.6836 17.9918 36.9466 17.6889 37.7076 17.5689C37.8536 17.5459 37.9826 17.5289 38.0796 17.5219C38.0829 17.5208 38.0859 17.5191 38.0886 17.5169L38.0896 17.5159L38.0916 17.5149C38.2226 17.3019 38.2286 15.8979 37.1226 15.4409C36.2486 15.0789 35.4896 15.0209 34.8036 15.0199C34.2093 15.0173 33.6166 15.0813 33.0366 15.2109C30.7866 15.7049 29.4166 17.0088 28.1636 19.8278V19.8289C27.3136 21.4949 27.0086 23.0939 26.8856 23.5339L26.7616 23.5349C26.6346 23.0639 26.3306 21.4739 25.4936 19.8309C24.2386 17.0109 22.8636 15.7069 20.6126 15.2129C20.0305 15.0833 19.4358 15.0193 18.8396 15.0219C18.1526 15.0229 17.3936 15.0809 16.5196 15.4429C15.4146 15.8999 15.4196 17.3039 15.5516 17.5169L15.5606 17.5219C15.6576 17.5289 15.7876 17.5459 15.9326 17.5689C16.6936 17.6889 17.9566 17.9918 18.1556 18.0708C18.2292 18.1002 18.3087 18.1115 18.3876 18.1039C18.8866 18.0489 19.1846 17.1999 18.6806 17.0009C18.6128 16.9736 18.5413 16.9564 18.4686 16.9499C18.2646 16.9349 18.0906 17.0289 17.9866 17.2529H17.9846C17.9846 17.2529 17.6746 17.1949 17.6606 17.1769L17.6626 17.1729C17.8646 16.6519 18.3676 16.4309 18.8766 16.4839L18.8956 16.4869C18.9462 16.4932 18.9966 16.5015 19.0466 16.5118C19.3116 16.5638 19.5576 16.6709 19.7556 16.8959C19.8596 16.9939 19.9806 17.1949 20.0216 17.3979C20.0316 17.4329 20.0336 17.6829 20.0046 17.7649L19.9836 17.8169L19.9756 17.8379C19.8836 18.0589 19.6886 18.3189 19.1406 18.3728C19.082 18.4354 19.0199 18.4945 18.9546 18.5498C19.2746 18.7599 19.6536 19.1099 19.9546 19.4089C20.2186 19.6699 20.4226 19.8949 20.4666 19.9499C20.923 20.5271 21.2737 21.1805 21.5026 21.8798C21.7127 22.5116 21.8201 23.173 21.8206 23.8389C21.8206 23.9169 21.8116 23.9969 21.8086 24.0749C21.8025 24.2142 21.7918 24.3532 21.7766 24.4919C21.6276 25.1969 21.3136 26.3409 20.7316 27.3079L20.6406 27.4388H20.6506C20.4356 27.7848 20.1722 28.0984 19.8686 28.3699C19.8866 28.4179 18.7296 29.2669 18.0986 29.5579C17.1685 29.9866 16.1567 30.2093 15.1326 30.2109C14.9176 30.2109 14.5786 30.1999 14.4016 30.1309C14.2295 30.1082 14.0696 30.0299 13.9463 29.9078C13.823 29.7856 13.7431 29.6265 13.7188 29.4547C13.6946 29.2828 13.7273 29.1078 13.8119 28.9563C13.8966 28.8048 14.0285 28.6852 14.1876 28.6158C14.3084 28.5648 14.44 28.5446 14.5705 28.557C14.7011 28.5694 14.8265 28.614 14.9356 28.6869C15.1516 28.8579 15.0106 29.2368 15.0106 29.2368C15.0106 29.2368 15.1106 29.3148 15.2906 29.3338C15.3216 29.3369 15.3486 29.3419 15.3836 29.3408C15.5866 29.3349 15.7853 29.2811 15.9636 29.1839C16.4916 28.9079 16.8436 28.2878 16.8436 27.6428C16.8436 27.4619 16.8106 27.2899 16.7566 27.1269C16.7272 27.0353 16.6911 26.946 16.6486 26.8599C16.4702 26.5255 16.1885 26.2579 15.8456 26.0969L15.8236 26.0848C15.3206 25.8388 14.8186 25.5119 14.3276 25.2739C13.3186 24.7829 11.4536 23.5489 10.3466 22.3159C9.98492 21.846 9.63645 21.3661 9.30157 20.8769C9.27457 20.8359 9.24957 20.7929 9.22357 20.7509C8.77557 20.0519 8.39157 19.3079 8.02457 18.5509C7.97057 18.4419 7.92457 18.3259 7.87257 18.2149C7.54761 17.5202 7.25529 16.8108 6.99657 16.0889L6.98657 16.0599C6.96068 15.9866 6.92061 15.9192 6.86864 15.8614C6.81667 15.8037 6.75383 15.7568 6.68371 15.7233C6.61358 15.6899 6.53755 15.6706 6.45997 15.6666C6.38239 15.6625 6.30477 15.6739 6.23157 15.6999L6.22257 15.7059H6.21957C6.09097 15.7514 5.98207 15.84 5.91135 15.9566C5.84063 16.0733 5.81244 16.2108 5.83157 16.3459C5.97157 17.3389 6.23657 18.2499 6.56557 19.1669C6.66857 19.4489 6.78557 19.7259 6.90857 19.9999C7.18257 20.6119 7.49857 21.2079 7.84557 21.7889C8.04257 22.1249 8.24457 22.4589 8.45257 22.7909C8.75257 23.2699 9.06557 23.7438 9.40657 24.2119C9.46657 24.2949 9.53157 24.3769 9.59557 24.4588C9.18166 24.147 8.77714 23.8228 8.38257 23.4868C8.16157 23.3008 7.94057 23.1159 7.72257 22.9229C7.28881 22.5283 6.87971 22.1075 6.49757 21.6629C6.33064 21.4726 6.1653 21.2809 6.00157 21.0879C5.45219 20.4438 4.93457 19.7734 4.45057 19.0789L4.43357 19.0539C4.38879 18.9903 4.33193 18.9362 4.26624 18.8946C4.20054 18.853 4.1273 18.8247 4.05069 18.8115C3.97408 18.7982 3.8956 18.8001 3.81974 18.8172C3.74388 18.8342 3.67212 18.8661 3.60857 18.9109L3.60757 18.9119L3.59557 18.9169C3.48632 18.9943 3.40643 19.1063 3.36885 19.2348C3.33128 19.3633 3.33823 19.5008 3.38857 19.6249C3.75057 20.5079 4.21157 21.2839 4.72757 22.0549C5.25057 22.8169 5.86757 23.5078 6.52557 24.1778L6.54957 24.2018C7.17603 24.8475 7.83137 25.4644 8.51357 26.0509C8.63957 26.1579 8.76957 26.2619 8.89857 26.3669C9.13357 26.5559 9.37257 26.7429 9.62657 26.9219L9.74457 27.0019C9.52641 26.9136 9.31035 26.8202 9.09657 26.7219C8.98157 26.6688 8.86657 26.6169 8.75157 26.5619C8.15346 26.2706 7.56545 25.9591 6.98857 25.6279C6.85657 25.5539 6.72357 25.4829 6.59257 25.4059C5.89257 25.0059 5.26857 24.5259 4.62957 24.0329C3.99158 23.5425 3.37627 23.0233 2.78557 22.4769L2.76257 22.4569C2.67558 22.3778 2.56694 22.3265 2.45059 22.3095C2.33424 22.2926 2.21549 22.3108 2.10957 22.3619C2.03101 22.3974 1.96114 22.4496 1.90483 22.5149C1.84851 22.5801 1.80711 22.6569 1.7835 22.7398C1.75989 22.8227 1.75464 22.9098 1.76813 22.9949C1.78161 23.0801 1.8135 23.1613 1.86157 23.2329C2.36957 23.9839 2.94957 24.6179 3.57857 25.2379C4.20857 25.8449 4.93157 26.3779 5.65757 26.8669C6.36557 27.3519 7.08957 27.8189 7.84757 28.2559C8.22657 28.4729 8.61457 28.6828 9.01857 28.8798C9.19657 28.9658 9.37957 29.0479 9.56757 29.1279L9.31957 29.0759C8.94957 28.9909 8.57657 28.8949 8.20357 28.7909C7.45458 28.5796 6.71253 28.3445 5.97857 28.0859C5.23957 27.8339 4.58257 27.5109 3.88957 27.1719C3.20281 26.8343 2.529 26.4711 1.86957 26.0829L1.84557 26.0689C1.76032 26.02 1.6643 25.9929 1.56608 25.9901C1.46785 25.9874 1.37046 26.0089 1.28257 26.0528C1.19621 26.0938 1.12105 26.1551 1.06348 26.2314C1.00591 26.3077 0.967633 26.3968 0.951918 26.4911C0.936204 26.5854 0.943515 26.682 0.973228 26.7729C1.00294 26.8637 1.05418 26.9461 1.12257 27.0129C1.73757 27.6129 2.39557 28.0948 3.09557 28.5568C3.79057 29.0068 4.57757 29.3708 5.32757 29.6918C6.07857 30.0218 6.83057 30.3289 7.60557 30.6129C7.99157 30.7539 8.38357 30.8879 8.78257 31.0129C8.98257 31.0759 9.18357 31.1349 9.38957 31.1919L9.59457 31.2459C9.11703 31.2238 8.63995 31.1927 8.16357 31.1529C7.42379 31.0881 6.6856 31.0064 5.94957 30.9079C5.57057 30.8579 5.22657 30.7979 4.87757 30.7239C4.52757 30.6469 4.17657 30.5628 3.82457 30.4768C3.12157 30.3138 2.40557 30.0998 1.72157 29.8959L1.69657 29.8879C1.62107 29.8656 1.54193 29.8585 1.46368 29.8669C1.38543 29.8753 1.30961 29.8991 1.24057 29.9369C1.14774 29.9854 1.06941 30.0576 1.01351 30.1462C0.957611 30.2348 0.926137 30.3366 0.922278 30.4413C0.91842 30.546 0.942315 30.6498 0.991539 30.7423C1.04076 30.8348 1.11357 30.9126 1.20257 30.9679C1.89557 31.3948 2.60157 31.7089 3.34357 31.9969C4.07357 32.2759 4.88757 32.4549 5.63557 32.6099C6.39057 32.7749 7.14657 32.9219 7.90957 33.0508C8.59757 33.1639 9.26557 33.2639 9.98357 33.3379C9.54757 33.3899 9.10757 33.4399 8.67057 33.4839C7.96557 33.5529 7.25857 33.6109 6.55257 33.6569C6.37576 33.6688 6.19872 33.6772 6.02157 33.6819L5.51557 33.6909L4.48957 33.6709C3.80357 33.6639 3.09657 33.6159 2.41457 33.5779H2.39157C2.27297 33.5707 2.15502 33.6 2.05357 33.6618C1.95333 33.7175 1.87148 33.8011 1.81801 33.9025C1.76454 34.0039 1.74177 34.1187 1.75248 34.2329C1.76319 34.347 1.80693 34.4555 1.87833 34.5452C1.94974 34.6349 2.04573 34.7018 2.15457 34.7379C2.87957 34.9869 3.59557 35.1359 4.33757 35.2569C4.70857 35.3109 5.08357 35.3449 5.46157 35.3609C5.65057 35.3699 5.84057 35.3748 6.03157 35.3769L6.57657 35.3848C7.30457 35.4009 8.03257 35.4039 8.76157 35.3949C9.26557 35.3889 9.37557 35.3878 9.88157 35.3699L9.94857 35.5909C9.20523 35.8264 8.45778 36.0488 7.70657 36.2579C7.05257 36.4419 6.43257 36.5639 5.78857 36.6968C5.14957 36.8408 4.48657 36.9549 3.84557 37.0879L3.82757 37.0919C3.78491 37.1011 3.74335 37.1149 3.70357 37.1329C3.58082 37.1842 3.47886 37.2752 3.41401 37.3914C3.34917 37.5075 3.3252 37.6421 3.34595 37.7735C3.3667 37.9049 3.43097 38.0256 3.52845 38.1161C3.62593 38.2067 3.75098 38.2618 3.88357 38.2729C4.59857 38.3368 5.28957 38.3169 5.99657 38.2729C6.69957 38.2258 7.41057 38.0679 8.08057 37.9429C8.75557 37.8179 9.74857 37.5819 10.4176 37.4419L10.4706 37.6109C10.1926 37.7699 9.59057 38.0909 9.31157 38.2449C9.03357 38.3988 8.75557 38.5389 8.47657 38.6749C8.20057 38.8099 7.92457 38.9409 7.64757 39.0799L7.64557 39.0809L7.63457 39.0858C7.07757 39.3738 6.50157 39.6489 5.94557 39.9499L5.93657 39.9549C5.80964 40.0214 5.711 40.1315 5.65877 40.265C5.60654 40.3984 5.60424 40.5463 5.65229 40.6813C5.70034 40.8163 5.79551 40.9295 5.9203 40.9999C6.0451 41.0704 6.19113 41.0934 6.33157 41.0648C6.97842 40.9325 7.6166 40.7608 8.24257 40.5508C8.86857 40.3419 9.47757 40.0509 10.0726 39.7899C10.2306 39.7209 10.8546 39.4529 11.0116 39.3829L11.1196 39.8789C10.9704 39.9834 10.8211 40.0877 10.6716 40.1919L9.98357 40.7878C9.53057 41.1918 9.10757 41.6339 8.70657 42.1039C8.60307 42.225 8.55188 42.3822 8.56426 42.541C8.57663 42.6998 8.65156 42.8472 8.77257 42.9509C8.86382 43.0281 8.97607 43.0763 9.09491 43.0893C9.21375 43.1023 9.33377 43.0795 9.43957 43.0238L9.44757 43.0199L9.45157 43.0179C10.0016 42.7319 10.5246 42.4129 11.0196 42.0569L11.5436 41.7499C11.5456 41.7619 11.8316 43.4819 11.9066 44.1949C12.1406 46.4169 12.0746 48.9739 12.3136 49.2729C12.5146 49.5219 12.9126 49.4649 13.2706 49.4759C13.2466 49.3909 13.2346 49.3119 13.2166 49.2299C13.2166 49.2219 13.2186 49.2139 13.2176 49.2049C12.9606 48.0139 13.3146 47.1349 13.5336 46.7759C13.5376 46.7699 13.5356 46.7629 13.5386 46.7569C13.5502 46.7261 13.5586 46.6943 13.5636 46.6618C13.4856 45.2488 13.2956 42.9699 12.9766 41.1999C12.4676 38.3779 11.6126 33.8579 11.3706 32.5779C11.3637 32.5432 11.3656 32.5074 11.3761 32.4737C11.3866 32.44 11.4053 32.4095 11.4306 32.3848C11.4582 32.36 11.4916 32.3423 11.5277 32.3334C11.5638 32.3245 11.6015 32.3247 11.6376 32.3339C12.5036 32.5529 13.9256 32.6809 14.8446 32.7409C15.5306 32.7859 17.1666 32.7809 18.8536 32.2639C18.1386 33.9509 17.7316 35.8849 17.7316 37.9419C17.7316 41.9719 19.2956 45.5368 21.6786 47.6749C21.4936 47.7005 21.31 47.7356 21.1286 47.7799C20.5146 47.9949 20.0336 48.3049 19.7636 48.4619L19.7466 48.4769C19.7286 48.4849 19.7086 48.4929 19.6936 48.5009C19.5996 48.5528 19.5946 48.6589 19.6166 48.7629C19.6796 49.0539 19.8416 49.4179 19.9996 49.6329C20.0346 49.6809 20.0696 49.7269 20.1286 49.7299C22.3576 49.8409 23.9956 50.0098 25.3086 50.8428L25.3266 50.8549C25.3626 50.8769 25.3956 50.9049 25.4306 50.9289C26.0516 51.4169 26.3016 52.4288 25.7956 53.1479C25.6216 53.3269 25.4406 53.5009 25.2606 53.6659C24.6643 54.187 24.0024 54.6277 23.2916 54.9769C22.6093 55.3066 21.8799 55.5282 21.1296 55.6339C20.3876 55.7688 19.6476 55.8679 18.6786 56.0969L18.6726 56.0989C18.6418 56.1058 18.6129 56.1191 18.5876 56.1379C18.5588 56.1561 18.5345 56.1805 18.5162 56.2093C18.498 56.2381 18.4863 56.2705 18.482 56.3043C18.4777 56.3381 18.4809 56.3724 18.4914 56.4048C18.5019 56.4372 18.5193 56.4669 18.5426 56.4919C19.2536 57.2599 20.3046 57.5639 21.3176 57.5069C22.0789 57.4419 22.8217 57.2367 23.5086 56.9019C24.6254 56.3731 25.5832 55.5595 26.2856 54.5429L26.3186 54.4919L26.3126 54.5179C26.1876 54.9509 25.7756 56.0868 25.4456 56.4669C25.1116 56.8508 24.8056 57.2178 24.4526 57.5069C24.103 57.7959 23.7115 58.0302 23.2916 58.2019C22.8466 58.3858 22.3356 58.5058 21.7346 58.6348L21.7296 58.6359C21.7 58.6426 21.6722 58.6552 21.6476 58.6729C21.6166 58.6918 21.5909 58.718 21.5726 58.7493C21.5542 58.7806 21.5439 58.8159 21.5425 58.8521C21.5412 58.8883 21.5487 58.9243 21.5646 58.9569C21.5805 58.9895 21.6042 59.0176 21.6336 59.0389C22.1676 59.4189 22.8416 59.5959 23.5406 59.5539C24.2575 59.4993 24.9399 59.2236 25.4936 58.7649C25.5856 58.6898 25.6586 58.6059 25.7396 58.5229C25.8936 58.8298 26.0566 59.1359 26.1746 59.4419C26.3306 59.8069 26.4546 60.1718 26.6546 60.5368C26.6996 60.6179 26.7996 60.6558 26.8386 60.6488C26.8386 60.6558 26.9956 60.6179 27.0406 60.5368C27.2406 60.1718 27.3826 59.8069 27.5386 59.4419C27.6566 59.1359 27.8196 58.8298 27.9726 58.5229C28.0546 58.6059 28.1276 58.6898 28.2186 58.7649C28.4906 58.9909 28.8016 59.1769 29.1316 59.3109C29.4656 59.4479 29.8186 59.5329 30.1726 59.5539C30.8716 59.5959 31.5456 59.4189 32.0796 59.0389C32.1089 59.0176 32.1326 58.9895 32.1485 58.9569C32.1644 58.9243 32.172 58.8883 32.1706 58.8521C32.1692 58.8159 32.1589 58.7806 32.1406 58.7493C32.1222 58.718 32.0965 58.6918 32.0656 58.6729C32.0409 58.6554 32.013 58.6428 31.9836 58.6359L31.9776 58.6348C31.3776 58.5058 30.8666 58.3858 30.4216 58.2019C30.0016 58.0302 29.6102 57.7959 29.2606 57.5069C28.9076 57.2178 28.6016 56.8508 28.2676 56.4669C27.9376 56.0868 27.5256 54.9509 27.4006 54.5179L27.3946 54.4919L27.4276 54.5429C28.1299 55.5595 29.0877 56.3731 30.2046 56.9019C30.8914 57.2369 31.6342 57.442 32.3956 57.5069C33.4086 57.5639 34.4596 57.2599 35.1706 56.4919C35.1935 56.4668 35.2107 56.4371 35.2209 56.4047C35.2312 56.3723 35.2343 56.3381 35.23 56.3044C35.2257 56.2708 35.2142 56.2384 35.1961 56.2096C35.1781 56.1809 35.154 56.1564 35.1256 56.1379C35.1002 56.1191 35.0713 56.1058 35.0406 56.0989L35.0346 56.0969C34.0656 55.8679 33.3256 55.7688 32.5826 55.6339C31.8326 55.5281 31.1035 55.3064 30.4216 54.9769C29.7108 54.6277 29.0488 54.187 28.4526 53.6659C28.2726 53.5009 28.0916 53.3269 27.9176 53.1479C27.4116 52.4288 27.6616 51.4169 28.2816 50.9289C28.3176 50.9049 28.3506 50.8769 28.3866 50.8549L28.4036 50.8428C29.7176 50.0098 31.3556 49.8409 33.5836 49.7299C33.6436 49.7269 33.6776 49.6809 33.7126 49.6329C33.8716 49.4179 34.0326 49.0539 34.0956 48.7629C34.1186 48.6589 34.1116 48.5528 34.0186 48.5009C34.0036 48.4929 33.9826 48.4849 33.9646 48.4769L33.9446 48.4619C33.6746 48.3049 33.1886 47.9949 32.5756 47.7799C32.4026 47.7383 32.2278 47.7052 32.0516 47.6809C34.4386 45.5429 36.0076 41.9769 36.0076 37.9419C36.0076 35.8859 35.5956 33.9559 34.8806 32.2699C36.5596 32.7809 38.1856 32.7859 38.8686 32.7409C39.7866 32.6809 41.2096 32.5529 42.0746 32.3339C42.1108 32.3247 42.1487 32.3245 42.1849 32.3334C42.2212 32.3423 42.2547 32.36 42.2826 32.3848C42.3078 32.4095 42.3266 32.44 42.337 32.4737C42.3475 32.5074 42.3494 32.5432 42.3426 32.5779C42.1006 33.8579 41.2456 38.3779 40.7366 41.1999C40.4166 42.9699 40.2276 45.2488 40.1496 46.6618C40.1541 46.6944 40.1625 46.7263 40.1746 46.7569C40.1776 46.7629 40.1756 46.7699 40.1796 46.7759C40.3986 47.1349 40.7526 48.0139 40.4956 49.2049C40.4936 49.2139 40.4966 49.2219 40.4956 49.2299C40.4776 49.3119 40.4666 49.3909 40.4426 49.4759C40.7996 49.4649 41.1986 49.5219 41.3986 49.2729C41.6386 48.9739 41.5726 46.4169 41.8066 44.1949C41.8816 43.4819 42.1676 41.7619 42.1696 41.7499L42.6926 42.0569C43.1932 42.4151 43.7189 42.7369 44.2656 43.0199L44.2736 43.0238C44.3794 43.0795 44.4994 43.1023 44.6182 43.0893C44.7371 43.0763 44.8493 43.0281 44.9406 42.9509C45.0616 42.8472 45.1365 42.6998 45.1489 42.541C45.1613 42.3822 45.1101 42.225 45.0066 42.1039C44.6056 41.6339 44.1826 41.1918 43.7286 40.7878L43.0406 40.1919L42.5936 39.8789L42.7016 39.3829C42.8586 39.4529 43.4826 39.7209 43.6406 39.7899C44.2356 40.0509 44.8436 40.3419 45.4706 40.5508C46.1006 40.7528 46.7236 40.9389 47.3806 41.0648C47.5205 41.0921 47.6656 41.0682 47.7895 40.9976C47.9134 40.927 48.0078 40.8144 48.0557 40.6801C48.1036 40.5458 48.1018 40.3988 48.0506 40.2657C47.9994 40.1326 47.9022 40.0224 47.7766 39.9549L47.7666 39.9499C47.2116 39.6489 46.6346 39.3738 46.0776 39.0858L46.0676 39.0809L46.0656 39.0799C45.7886 38.9409 45.5126 38.8099 45.2366 38.6749C44.9545 38.5389 44.6761 38.3955 44.4016 38.2449C44.1226 38.0909 43.5196 37.7699 43.2426 37.6109L43.2956 37.4419C43.9646 37.5819 44.9566 37.8179 45.6326 37.9429C46.3026 38.0679 47.0136 38.2258 47.7166 38.2729C48.4236 38.3169 49.1136 38.3368 49.8296 38.2729C49.9616 38.261 50.0859 38.2054 50.1827 38.1148C50.2796 38.0243 50.3434 37.904 50.3641 37.773C50.3847 37.6421 50.3611 37.508 50.2969 37.392C50.2326 37.276 50.1315 37.1848 50.0096 37.1329C49.9698 37.1149 49.9282 37.1011 49.8856 37.0919L49.8676 37.0879C49.2266 36.9549 48.5636 36.8408 47.9246 36.6968C47.2806 36.5639 46.6606 36.4419 46.0066 36.2579C45.2553 36.0489 44.5079 35.8265 43.7646 35.5909L43.8316 35.3699C44.3376 35.3878 44.4476 35.3889 44.9516 35.3949C45.6806 35.4039 46.4086 35.4009 47.1366 35.3848L47.6816 35.3769C47.8716 35.3748 48.0626 35.3699 48.2516 35.3609C48.6296 35.3449 49.0046 35.3109 49.3746 35.2569C50.1176 35.1359 50.8336 34.9869 51.5586 34.7379C51.6661 34.7004 51.7607 34.6329 51.831 34.5433C51.9012 34.4536 51.9442 34.3457 51.9549 34.2323C51.9655 34.1189 51.9434 34.0049 51.891 33.9037C51.8386 33.8026 51.7583 33.7186 51.6596 33.6618C51.5581 33.6001 51.4402 33.5708 51.3216 33.5779H51.2986C50.6166 33.6159 49.9096 33.6639 49.2226 33.6709L48.1976 33.6909L47.6916 33.6819C47.5144 33.6772 47.3374 33.6688 47.1606 33.6569C46.4537 33.6107 45.7476 33.553 45.0426 33.4839C44.6045 33.4392 44.1668 33.3906 43.7296 33.3379C44.4233 33.2634 45.1147 33.1677 45.8026 33.0508C46.5666 32.9219 47.3226 32.7749 48.0776 32.6099C48.8256 32.4549 49.6386 32.2759 50.3696 31.9969C51.1116 31.7089 51.8176 31.3948 52.5106 30.9679C52.6213 30.8992 52.7064 30.796 52.7528 30.6742C52.7993 30.5525 52.8044 30.4188 52.7676 30.2939ZM26.8696 48.4639L26.8386 48.4629C24.1876 48.4489 21.8446 46.6679 20.4276 43.9589C21.0876 42.8449 22.4526 40.4139 22.4526 40.4139C22.5816 40.9119 23.3426 44.2079 23.3426 44.2079C23.3436 44.2789 24.2676 46.3469 27.1706 46.2979C27.7736 46.2879 28.6056 45.9708 28.9276 45.2388C27.9656 44.8629 27.1486 43.9849 26.8356 42.5319C26.7155 41.9673 26.6532 41.392 26.6496 40.8148C26.6426 40.1779 26.6956 39.5099 26.8206 38.8239C26.8246 38.7999 26.8306 38.7768 26.8356 38.7528C27.2876 36.3728 28.7666 34.5569 29.1946 34.4019C29.0616 34.0959 29.1176 33.3209 28.0816 32.8929C27.8586 32.8009 27.1646 32.7599 27.0996 32.4409C27.4266 32.2189 27.6746 31.8019 27.7356 31.3009C27.8176 30.6289 27.5346 30.0269 27.0816 29.8109C27.1906 29.5629 27.4566 29.2239 27.4566 29.2239L26.9396 28.6699L26.8356 28.7249L26.2706 29.0269C26.2706 29.0269 26.4406 29.5119 26.4396 29.7739C25.9936 29.9219 25.6626 30.2729 25.5866 30.8968C25.5496 31.2018 25.7166 31.6758 26.0646 32.0238C26.2526 32.2118 26.2896 32.3708 26.1736 32.4879C25.9186 32.7428 25.3906 32.6799 25.1196 33.0759C24.9486 33.3249 24.7426 33.8999 24.7426 33.8999C24.6146 34.1589 23.8646 35.9578 23.4966 36.5919C23.4036 36.7519 23.0296 37.3409 23.0296 37.3409C23.0296 37.3409 22.8666 37.4529 22.6846 37.5998C22.5356 37.7188 22.3746 37.8609 22.2756 37.9869C21.9916 38.3509 22.1066 39.0019 22.2796 39.2769L20.0966 43.2668C20.0116 43.0858 19.9706 42.9849 19.9706 42.9849C19.3566 41.4859 19.0076 39.7679 19.0076 37.9419C19.0076 32.3509 22.2816 27.7668 26.3976 27.4388H27.3506C27.8046 27.4768 28.2476 27.5668 28.6776 27.7028C28.9036 27.7748 29.1246 27.8589 29.3416 27.9549C32.4696 29.3458 34.7316 33.2949 34.7316 37.9419C34.7316 43.7439 31.2046 48.4639 26.8696 48.4639ZM26.0606 37.0669C26.0606 37.0669 24.5306 37.6469 23.8006 37.9419L25.2926 35.3559C25.2956 35.3689 25.3626 35.7189 25.9686 35.9729C25.9506 36.0659 26.0606 37.0669 26.0606 37.0669Z" fill="white"/>
<path fill-rule="evenodd" clip-rule="evenodd" d="M32.4548 40.0697C32.0158 42.7077 30.5778 44.6667 29.2428 44.4447C27.9078 44.2227 27.1818 41.9037 27.6198 39.2657C28.0588 36.6277 29.4968 34.6687 30.8318 34.8907C32.1668 35.1127 32.8928 37.4317 32.4548 40.0697Z" fill="white"/>
<path fill-rule="evenodd" clip-rule="evenodd" d="M31.9119 39.9459C31.5819 41.9289 30.5669 43.4129 29.6449 43.2599C28.7229 43.1059 28.2429 41.3739 28.5729 39.3899C28.9029 37.4069 29.9179 35.9229 30.8399 36.0769C31.7619 36.2299 32.2419 37.9619 31.9119 39.9459Z" fill="white"/>
<path fill-rule="evenodd" clip-rule="evenodd" d="M31.0322 42.9406L30.3632 43.0286L29.4512 36.1036L30.1202 36.0156L31.0322 42.9406Z" fill="white"/>
<path fill-rule="evenodd" clip-rule="evenodd" d="M28.8327 43.1908L28.3027 42.9298L31.6527 36.1448L32.1817 36.4068L28.8327 43.1908Z" fill="white"/>
</svg>
