<svg width="225" height="82" viewBox="0 0 225 82" fill="none" xmlns="http://www.w3.org/2000/svg">
<path d="M82.8 7.16406H84.4V15.4641C84.4 16.9641 84.4 18.3641 84.3 19.6641H84.4L92.8 7.16406H94.7V22.1641H93.1V13.864C93.1 12.464 93.2 11.0641 93.3 9.56406H93.1L84.7 22.1641H82.8V7.16406Z" fill="white"/>
<path d="M100.2 10.9641V15.6641H106.5V10.9641H108.2V22.1641H106.5V17.0641H100.2V22.1641H98.5V10.9641H100.2Z" fill="white"/>
<path d="M116.3 22.364C114.7 22.364 113.4 21.864 112.5 20.864C111.6 19.864 111.2 18.4641 111.2 16.5641C111.2 14.6641 111.7 13.2641 112.6 12.1641C113.5 11.1641 114.8 10.6641 116.5 10.6641C117 10.6641 117.6 10.764 118.1 10.864C118.6 10.964 119.1 11.1641 119.4 11.2641L118.9 12.6641C118.5 12.4641 118.1 12.3641 117.7 12.2641C117.3 12.1641 116.9 12.1641 116.5 12.1641C114.2 12.1641 113.1 13.6641 113.1 16.5641C113.1 17.9641 113.4 18.9641 113.9 19.7641C114.5 20.4641 115.3 20.864 116.4 20.864C117.3 20.864 118.3 20.6641 119.3 20.2641V21.7641C118.4 22.1641 117.4 22.364 116.3 22.364Z" fill="white"/>
<path d="M129.4 12.364H125.7V22.1641H124V12.364H120.4V10.864H129.4V12.364Z" fill="white"/>
<path d="M133.2 10.9641V18.0641L133.1 19.9641V20.5641L139.2 10.9641H141.3V22.1641H139.7V13.864L139.8 12.5641L133.7 22.1641H131.6V10.9641H133.2Z" fill="white"/>
<path d="M152.5 12.364H148.8V22.1641H147.1V12.364H143.5V10.864H152.5V12.364Z" fill="white"/>
<path d="M152.9 10.9641H154.7L157.2 17.364C157.7 18.864 158.1 19.8641 158.2 20.5641H158.3C158.4 20.2641 158.6 19.6641 158.9 18.7641C159.2 17.9641 160.1 15.364 161.7 10.9641H163.5L158.7 23.7641C158.2 25.0641 157.7 25.9641 157 26.4641C156.4 26.9641 155.6 27.2641 154.6 27.2641C154.1 27.2641 153.6 27.1641 153.1 27.0641V25.6641C153.5 25.7641 153.9 25.7641 154.4 25.7641C155.6 25.7641 156.4 25.0641 156.9 23.7641L157.5 22.1641L152.9 10.9641Z" fill="white"/>
<path d="M172.9 12.364H169.2V22.1641H167.5V12.364H163.9V10.864H172.9V12.364Z" fill="white"/>
<path d="M89 35.9641H90.9L86.1 41.364L91.3 47.1641H89.3L84.2 41.4641V47.1641H82.5V35.9641H84.2V41.4641L89 35.9641Z" fill="white"/>
<path d="M103.1 41.5641C103.1 43.3641 102.6 44.864 101.7 45.864C100.8 46.864 99.5 47.364 97.9 47.364C96.9 47.364 96 47.1641 95.2 46.6641C94.3999 46.1641 93.8 45.5641 93.4 44.6641C93 43.7641 92.8 42.7641 92.8 41.5641C92.8 39.7641 93.2999 38.2641 94.2 37.2641C95.1 36.2641 96.4 35.7641 98 35.7641C99.6 35.7641 100.8 36.264 101.7 37.364C102.6 38.364 103.1 39.7641 103.1 41.5641ZM94.5 41.5641C94.5 42.9641 94.8 44.064 95.4 44.864C96 45.664 96.8 45.9641 97.9 45.9641C99 45.9641 99.9 45.564 100.4 44.864C101 44.164 101.3 43.0641 101.3 41.5641C101.3 40.1641 101 39.0641 100.4 38.2641C99.8 37.5641 99 37.1641 97.8 37.1641C96.7 37.1641 95.8 37.5641 95.3 38.2641C94.8 38.9641 94.5 40.0641 94.5 41.5641Z" fill="white"/>
<path d="M107.7 37.364V47.1641H106.1V35.9641H112.9V37.364H107.7Z" fill="white"/>
<path d="M116.8 35.9641V40.6641H123.1V35.9641H124.8V47.1641H123.1V42.0641H116.8V47.1641H115.1V35.9641H116.8Z" fill="white"/>
<path d="M130 35.9641V43.0641L129.9 44.9641V45.5641L136 35.9641H138.1V47.1641H136.5V38.864L136.6 37.5641L130.5 47.1641H128.4V35.9641H130Z" fill="white"/>
<path d="M149.3 37.364H145.6V47.1641H143.9V37.364H140.3V35.864H149.3V37.364Z" fill="white"/>
<path d="M153.1 35.9641V43.0641L153 44.9641V45.5641L159.1 35.9641H161.2V47.1641H159.6V38.864L159.7 37.5641L153.6 47.1641H151.5V35.9641H153.1Z" fill="white"/>
<path d="M173.9 38.7641C173.9 39.4641 173.7 40.064 173.3 40.464C172.9 40.864 172.3 41.0641 171.5 41.2641V41.364C172.5 41.464 173.2 41.7641 173.6 42.1641C174 42.5641 174.3 43.164 174.3 43.964C174.3 44.964 173.9 45.864 173.1 46.364C172.3 46.964 171.2 47.2641 169.7 47.2641H164.7V36.064H169.6C172.5 35.9641 173.9 36.8641 173.9 38.7641ZM172.2 38.964C172.2 38.464 172 38.0641 171.6 37.7641C171.2 37.5641 170.5 37.464 169.7 37.464H166.5V40.6641H169.4C170.5 40.6641 171.2 40.5641 171.6 40.2641C172 39.9641 172.2 39.464 172.2 38.964ZM172.6 43.7641C172.6 43.1641 172.4 42.664 171.9 42.464C171.4 42.164 170.7 42.064 169.6 42.064H166.5V45.7641H169.6C171.6 45.7641 172.6 45.0641 172.6 43.7641Z" fill="white"/>
<path d="M178.4 35.9641V40.6641H184.7V35.9641H186.4V47.1641H184.7V42.0641H178.4V47.1641H176.7V35.9641H178.4Z" fill="white"/>
<path d="M191.8 40.5641H194.9C196.3 40.5641 197.4 40.864 198.1 41.364C198.8 41.864 199.1 42.6641 199.1 43.7641C199.1 44.8641 198.7 45.764 198 46.364C197.3 46.964 196.2 47.2641 194.8 47.2641H190.1V36.0641H191.8V40.5641ZM191.8 42.0641V45.7641H194.7C196.5 45.7641 197.4 45.164 197.4 43.864C197.4 43.264 197.2 42.764 196.8 42.4641C196.4 42.1641 195.7 42.0641 194.7 42.0641H191.8ZM202.6 47.1641H200.9V35.9641H202.6V47.1641Z" fill="white"/>
<path d="M208.9 41.4641L205 35.9641H206.9L209.9 40.2641L212.9 35.9641H214.8L210.9 41.4641L215 47.2641H213.1L210 42.6641L206.8 47.2641H204.9L208.9 41.4641Z" fill="white"/>
<path d="M84.1 60.9641V68.0641L84 69.9641V70.5641L90.1 60.9641H92.2V72.164H90.6V63.864L90.7 62.5641L84.6 72.164H82.5V60.9641H84.1Z" fill="white"/>
<path d="M100.3 72.364C98.7 72.364 97.4 71.864 96.5 70.864C95.6 69.864 95.2 68.4641 95.2 66.5641C95.2 64.6641 95.7 63.264 96.6 62.164C97.5 61.164 98.8 60.664 100.5 60.664C101 60.664 101.6 60.764 102.1 60.864C102.6 60.964 103.1 61.1641 103.4 61.2641L102.9 62.664C102.5 62.464 102.1 62.3641 101.7 62.2641C101.3 62.1641 100.9 62.164 100.5 62.164C98.2 62.164 97.1 63.6641 97.1 66.5641C97.1 67.9641 97.4 68.9641 97.9 69.7641C98.5 70.4641 99.3 70.864 100.4 70.864C101.3 70.864 102.3 70.6641 103.3 70.2641V71.7641C102.4 72.1641 101.4 72.364 100.3 72.364Z" fill="white"/>
<path d="M110.3 72.364C108.7 72.364 107.4 71.864 106.5 70.864C105.6 69.864 105.2 68.4641 105.2 66.5641C105.2 64.6641 105.7 63.264 106.6 62.164C107.5 61.164 108.8 60.664 110.5 60.664C111 60.664 111.6 60.764 112.1 60.864C112.6 60.964 113.1 61.1641 113.4 61.2641L112.9 62.664C112.5 62.464 112.1 62.3641 111.7 62.2641C111.3 62.1641 110.9 62.164 110.5 62.164C108.2 62.164 107.1 63.6641 107.1 66.5641C107.1 67.9641 107.4 68.9641 107.9 69.7641C108.5 70.4641 109.3 70.864 110.4 70.864C111.3 70.864 112.3 70.6641 113.3 70.2641V71.7641C112.4 72.1641 111.4 72.364 110.3 72.364Z" fill="white"/>
<path d="M124.2 72.164H122.5V62.364H119.1C118.9 64.764 118.7 66.764 118.3 68.164C117.9 69.564 117.5 70.6641 117 71.2641C116.5 71.9641 115.8 72.2641 115 72.2641C114.6 72.2641 114.3 72.264 114.1 72.164V70.864C114.3 70.864 114.4 70.9641 114.6 70.9641C115.4 70.9641 116 70.1641 116.5 68.4641C117 66.7641 117.3 64.264 117.6 60.864H124.2V72.164Z" fill="white"/>
<path d="M132.5 72.364C130.8 72.364 129.5 71.864 128.6 70.864C127.6 69.864 127.2 68.464 127.2 66.664C127.2 64.864 127.6 63.464 128.5 62.364C129.4 61.264 130.6 60.7641 132.1 60.7641C133.5 60.7641 134.6 61.264 135.4 62.164C136.2 63.064 136.6 64.264 136.6 65.864V66.9641H128.9C128.9 68.2641 129.3 69.2641 129.9 69.9641C130.5 70.6641 131.4 70.9641 132.6 70.9641C133.8 70.9641 135 70.664 136.2 70.164V71.664C135.6 71.964 135 72.0641 134.5 72.2641C133.9 72.3641 133.3 72.364 132.5 72.364ZM132.1 62.164C131.2 62.164 130.5 62.4641 129.9 63.0641C129.4 63.6641 129 64.4641 129 65.4641H134.9C134.9 64.3641 134.7 63.5641 134.2 62.9641C133.6 62.4641 133 62.164 132.1 62.164Z" fill="white"/>
<path d="M149.3 76.0641H147.6V72.164H139.7V76.0641H138.1V70.664H139C139.9 69.464 140.6 67.9641 141.2 66.2641C141.8 64.5641 142 62.764 142 60.864H147.7V70.664H149.3V76.0641ZM146.1 70.664V62.2641H143.6C143.5 63.7641 143.2 65.364 142.7 66.864C142.2 68.464 141.6 69.664 140.8 70.664H146.1Z" fill="white"/>
<path d="M161.3 66.5641C161.3 68.3641 160.8 69.864 159.9 70.864C159 71.864 157.7 72.364 156.1 72.364C155.1 72.364 154.2 72.164 153.4 71.664C152.6 71.164 152 70.564 151.6 69.664C151.2 68.764 151 67.7641 151 66.5641C151 64.7641 151.5 63.2641 152.4 62.2641C153.3 61.2641 154.6 60.7641 156.2 60.7641C157.8 60.7641 159 61.264 159.9 62.364C160.8 63.364 161.3 64.7641 161.3 66.5641ZM152.7 66.5641C152.7 67.9641 153 69.064 153.6 69.864C154.2 70.664 155 70.9641 156.1 70.9641C157.2 70.9641 158.1 70.564 158.6 69.864C159.2 69.164 159.5 68.0641 159.5 66.5641C159.5 65.1641 159.2 64.0641 158.6 63.2641C158 62.5641 157.2 62.164 156 62.164C154.9 62.164 154 62.5641 153.5 63.2641C153 63.9641 152.7 65.0641 152.7 66.5641Z" fill="white"/>
<path d="M173.4 63.7641C173.4 64.4641 173.2 65.0641 172.8 65.4641C172.4 65.8641 171.8 66.0641 171 66.2641V66.364C172 66.464 172.7 66.764 173.1 67.164C173.5 67.564 173.8 68.1641 173.8 68.9641C173.8 69.9641 173.4 70.864 172.6 71.364C171.8 71.964 170.7 72.2641 169.2 72.2641H164.2V61.064H169.1C172 60.9641 173.4 61.8641 173.4 63.7641ZM171.7 63.9641C171.7 63.4641 171.5 63.0641 171.1 62.7641C170.7 62.5641 170 62.4641 169.2 62.4641H166V65.664H168.9C170 65.664 170.7 65.5641 171.1 65.2641C171.5 64.9641 171.7 64.4641 171.7 63.9641ZM172 68.7641C172 68.1641 171.8 67.6641 171.3 67.4641C170.8 67.1641 170.1 67.064 169 67.064H165.9V70.7641H169C171 70.7641 172 70.0641 172 68.7641Z" fill="white"/>
<path d="M183.1 72.164L182.8 70.5641H182.7C182.1 71.2641 181.6 71.7641 181 71.9641C180.4 72.1641 179.7 72.364 178.9 72.364C177.8 72.364 176.9 72.0641 176.3 71.4641C175.7 70.8641 175.4 70.0641 175.4 68.9641C175.4 66.6641 177.2 65.464 180.8 65.364L182.7 65.2641V64.5641C182.7 63.6641 182.5 63.0641 182.1 62.5641C181.7 62.1641 181.1 61.9641 180.3 61.9641C179.4 61.9641 178.3 62.264 177.1 62.864L176.6 61.5641C177.2 61.2641 177.8 61.064 178.4 60.864C179.1 60.664 179.7 60.5641 180.4 60.5641C181.7 60.5641 182.7 60.8641 183.4 61.4641C184 62.0641 184.4 62.964 184.4 64.364V72.0641H183.1V72.164ZM179.3 70.9641C180.4 70.9641 181.2 70.6641 181.8 70.0641C182.4 69.4641 182.7 68.664 182.7 67.664V66.664L181 66.7641C179.6 66.7641 178.7 67.064 178.1 67.364C177.5 67.764 177.2 68.3641 177.2 69.0641C177.2 69.6641 177.4 70.1641 177.8 70.4641C178.1 70.7641 178.6 70.9641 179.3 70.9641Z" fill="white"/>
<path d="M189.6 60.9641V65.664H195.9V60.9641H197.6V72.164H195.9V67.0641H189.6V72.164H187.9V60.9641H189.6Z" fill="white"/>
<path d="M202.8 60.9641V68.0641L202.7 69.9641V70.5641L208.8 60.9641H210.9V72.164H209.3V63.864L209.4 62.5641L203.3 72.164H201.2V60.9641H202.8Z" fill="white"/>
<path d="M216.1 60.9641V68.0641L216 69.9641V70.5641L222.1 60.9641H224.2V72.164H222.6V63.864L222.7 62.5641L216.6 72.164H214.5V60.9641H216.1ZM219.3 59.4641C218 59.4641 217.1 59.2641 216.5 58.7641C215.9 58.2641 215.6 57.464 215.5 56.364H217.1C217.2 57.064 217.3 57.564 217.7 57.864C218 58.164 218.6 58.2641 219.3 58.2641C220 58.2641 220.5 58.0641 220.9 57.7641C221.2 57.4641 221.4 56.9641 221.5 56.2641H223.1C223 57.3641 222.7 58.164 222.1 58.664C221.5 59.164 220.6 59.4641 219.3 59.4641Z" fill="white"/>
<path d="M27.7763 9.62114C27.8015 9.67948 27.8262 9.73825 27.8513 9.79224C28.2921 10.7317 29.0983 11.6381 29.0983 11.6381C29.0983 11.6381 29.107 11.6342 29.1109 11.6298H29.1148C29.1148 11.6298 29.2314 11.5423 29.4642 11.4087C29.543 11.3669 29.6388 11.3168 29.7429 11.2628C30.0008 11.1331 30.3293 10.9868 30.7407 10.841C31.7094 10.4945 33.0028 10.3861 33.0028 10.3861C33.0028 10.3861 31.797 8.70735 31.5724 6.2768C31.4437 4.90284 31.4979 4.1806 31.5144 4.13837C31.4311 4.13446 31.3518 4.12618 31.269 4.12618C30.3545 4.12618 29.5144 4.44791 28.8573 4.98251C28.8409 4.9947 28.8244 5.00733 28.8075 5.01995C27.9592 5.73001 27.4187 6.79878 27.4187 7.99338C27.4187 8.32729 27.4642 8.64901 27.5436 8.95811C27.6055 9.15358 27.6888 9.40391 27.7763 9.62114Z" fill="white"/>
<path d="M34.5203 9.95554C34.7656 10.2228 35.0109 10.3399 35.2316 10.3399H35.2896C35.5142 10.3399 35.7591 10.2228 36.0048 9.95554C36.5453 9.42964 37.1149 8.54414 37.4972 7.47057C38.0503 5.9129 37.8881 4.59727 37.2436 3.97516C36.9237 3.68696 36.5284 3.49106 36.0963 3.42837C35.9966 3.41574 35.8345 3.40312 35.668 3.3992C36.4127 3.21113 36.9697 2.53895 36.9697 1.72877C36.9697 0.772307 36.2003 0 35.2485 0C34.2962 0 33.5268 0.772307 33.5268 1.72877C33.5268 2.53895 34.0799 3.21113 34.828 3.3992C34.6828 3.40355 34.5289 3.41618 34.4288 3.42837C33.9962 3.49106 33.6014 3.6874 33.2815 3.97516C32.6369 4.59771 32.4748 5.9129 33.0279 7.47057C33.4102 8.5437 33.9798 9.4292 34.5203 9.95554Z" fill="white"/>
<path d="M50.9561 21.4021C51.351 22.0285 51.3302 22.8135 51.3302 22.8135C51.3345 22.8178 52.1242 22.9554 52.5152 23.3437C52.5152 23.3437 52.5776 23.2854 52.5859 23.2727C53.1181 22.6128 54.1034 21.5314 54.386 19.9654C54.6187 18.6872 54.4688 16.8958 54.1987 16.3237C54.1901 16.3028 54.1818 16.2693 54.1697 16.2528C54.4276 15.9563 54.8472 15.2671 56.0118 15.2671C56.4401 15.2671 56.8224 15.3842 57.1301 15.5344C57.6416 15.7808 57.9571 16.1065 57.9571 16.1065C57.9571 16.1065 56.9516 17.9023 56.4275 18.7582C56.157 19.1966 55.9616 19.5392 55.4215 20.7377C54.9681 21.7355 54.8476 22.3955 54.9265 23.1138C54.9928 23.7111 55.3088 24.8596 55.4462 26.0163C55.708 28.2257 55.2754 29.3071 55.2754 29.3071C55.2754 29.3071 55.2841 29.2988 55.3005 29.2906C55.2962 29.2988 55.2919 29.3158 55.2919 29.3158C55.2919 29.3158 57.903 27.5827 59.5496 23.7155C59.5453 23.7155 59.541 23.7155 59.5332 23.7111H59.5371C59.2293 23.6528 58.9844 23.5692 58.7681 23.4565C58.5479 23.3476 58.3564 23.214 58.1526 23.0555C56.6889 21.9362 57.0179 20.7421 57.496 20.1822C57.629 20.0194 57.7703 19.8648 57.9155 19.7103C58.2818 19.318 58.681 18.921 59.0967 18.4326C59.6251 17.8144 59.8158 17.1962 59.8825 16.6537C59.9038 16.4657 59.9328 16.278 59.9328 16.0817C59.9328 14.457 59.147 13.3503 58.1448 12.7948C57.8119 12.6072 57.4544 12.4818 57.0972 12.4191C55.9785 12.2271 54.6062 12.649 53.604 13.3338C53.2256 13.5928 52.5937 14.1735 52.4194 14.6119C52.1988 15.706 52.5274 15.9855 52.8559 17.1174C52.8646 17.1426 52.8767 17.1592 52.8849 17.1844C53.5715 19.7025 53.2183 20.9214 50.9561 21.4021Z" fill="white"/>
<path d="M39.7471 19.1515C40.0423 19.778 40.5828 20.3875 40.5828 20.3875L40.5871 20.3836C40.591 20.3875 40.666 20.4667 40.666 20.4667C40.666 20.4667 40.9616 20.2038 41.7392 19.9034C42.3794 19.6526 43.2025 19.5651 43.2025 19.5651C43.2025 19.5651 42.3963 18.4375 42.242 16.8133C42.1549 15.8694 42.1965 15.3849 42.2048 15.3766C42.2004 15.3766 42.1922 15.3766 42.1878 15.3766V15.3679C41.7765 15.2969 41.3522 15.3805 40.9616 15.5642C40.6955 15.7144 40.4541 15.8816 40.259 16.061C39.9092 16.3701 39.6769 16.721 39.5854 17.0928C39.4437 17.4894 39.3938 17.9278 39.4771 18.3792C39.4849 18.4206 39.6262 18.8886 39.7471 19.1515Z" fill="white"/>
<path d="M43.322 17.485C43.6714 18.458 44.2453 19.2765 44.69 19.448C44.7607 19.4772 44.827 19.4937 44.8898 19.4937C45.3471 19.4393 45.9583 18.5081 46.2534 17.3679C46.5282 16.2987 46.341 15.4054 45.8755 15.0253C45.7715 14.9461 45.6549 14.8795 45.53 14.8207C45.4056 14.7663 45.2721 14.7206 45.1351 14.6914C45.1143 14.687 45.0935 14.6788 45.0727 14.6705C45.455 14.4824 45.7129 14.0606 45.6878 13.5804C45.6713 13.1046 45.38 12.7075 44.9895 12.5491C44.8564 12.4946 44.7108 12.4659 44.5569 12.4698C43.9705 12.499 43.5136 13.0336 43.5427 13.6683C43.5678 14.1485 43.8626 14.5495 44.2574 14.6997H44.2618C43.9666 14.7789 43.7048 14.9252 43.4928 15.1172C43.0598 15.5347 42.9519 16.4454 43.322 17.485Z" fill="white"/>
<path d="M46.4655 19.477C46.4655 19.477 47.8421 19.4857 49.2097 20.0242C49.2348 20.0325 49.2517 20.0495 49.276 20.0577C49.4593 19.824 49.7255 19.4522 49.9041 19.0721C50.0246 18.8092 50.1659 18.3412 50.1741 18.3037C50.2573 17.8484 50.2075 17.41 50.0662 17.0134C49.9747 16.6376 49.742 16.2911 49.3969 15.982C49.1971 15.8022 48.9557 15.6355 48.6895 15.4853C48.6856 15.4853 48.6813 15.4853 48.6774 15.4809C48.6774 15.4809 48.6731 15.477 48.6692 15.477C48.2821 15.2933 47.8582 15.2141 47.4464 15.2807C47.4551 15.2889 47.4962 15.7774 47.4091 16.7169C47.2557 18.3416 46.4486 19.4692 46.4486 19.4692C46.4486 19.4692 46.4651 19.4692 46.4694 19.4692L46.4655 19.477Z" fill="white"/>
<path d="M37.5218 10.3856C37.5218 10.3856 38.8108 10.4944 39.7839 10.8405C40.1953 10.9863 40.5238 11.1326 40.7817 11.2623C40.8857 11.3163 40.9815 11.3668 41.0604 11.4082C41.2936 11.5418 41.4102 11.6293 41.4102 11.6293H41.4146C41.4185 11.6337 41.4267 11.6376 41.4267 11.6376C41.4267 11.6376 42.2329 10.7312 42.6742 9.79174C42.6993 9.73732 42.724 9.67899 42.7448 9.62065C42.8363 9.40341 42.9191 9.15265 42.9819 8.95674C43.0608 8.64764 43.1063 8.32592 43.1063 7.99201C43.1063 6.79742 42.5658 5.72864 41.7175 5.01858C41.7011 5.00596 41.6846 4.99333 41.6681 4.98114C41.0071 4.44654 40.1714 4.12481 39.2564 4.12481C39.1736 4.12481 39.0943 4.13309 39.0115 4.137C39.028 4.17923 39.0822 4.90104 38.953 6.27543C38.7233 8.70642 37.5218 10.3856 37.5218 10.3856Z" fill="white"/>
<path d="M38.3746 14.123C38.3746 14.123 38.5242 14.8792 38.6161 15.2214C38.6204 15.2175 38.7075 15.2214 38.7075 15.2258C39.2853 14.9959 40.4079 14.6577 40.4079 14.278V13.0712C40.4079 12.8497 40.1917 12.645 39.8011 12.4657C39.007 12.0939 37.5186 11.8349 35.8264 11.8013H34.8407C33.0944 11.8183 31.5266 12.0813 30.7078 12.4657C30.3207 12.645 30.0923 12.8497 30.0923 13.0712V14.278C30.0923 14.6581 31.2314 14.9959 31.8053 15.2258C31.8053 15.2214 31.8967 15.2175 31.9007 15.2214C31.9921 14.8792 32.146 14.123 32.146 14.123C32.146 14.123 32.0216 14.073 32.0008 14.0229C31.9301 13.8684 32.0589 13.7809 32.2712 13.6638C32.4832 13.5466 32.8326 13.4757 33.1277 13.4631C33.3107 14.1313 33.3354 15.1714 33.2985 16.0647C33.2196 17.8566 32.8828 20.1073 31.8222 21.6402C32.2257 22.0329 32.6661 22.5422 33.1234 23.1935C34.2213 21.0803 34.3917 18.7669 34.4875 16.3864C34.5247 15.3381 34.4831 14.1104 34.4875 13.2711C34.5867 13.2711 34.9283 13.2293 35.2646 13.2293C35.601 13.2293 35.9382 13.2711 36.0418 13.2711C36.0418 14.1104 36.0002 15.3381 36.0418 16.3864C36.1333 18.813 36.3036 21.1639 37.4557 23.3067C37.8714 22.6968 38.2832 22.2001 38.6616 21.8113C38.6867 21.7738 38.711 21.7403 38.7405 21.7029C37.6512 20.17 37.3062 17.8818 37.2273 16.0647C37.19 15.1714 37.2147 14.1313 37.3976 13.4631C37.6933 13.4757 38.0422 13.5466 38.2546 13.6638C38.4665 13.7809 38.5953 13.8684 38.5246 14.0229C38.4995 14.073 38.3746 14.123 38.3746 14.123Z" fill="white"/>
<path d="M53.1646 31.0491C53.1559 31.0491 53.1559 31.0408 53.1481 31.0408C53.1312 31.0365 53.1148 31.0321 53.0983 31.0365H53.0693C53.0068 31.0447 52.9488 31.0491 52.8907 31.0574C52.2626 31.0948 51.6519 31.0491 51.1482 30.8488C50.8613 30.757 50.6155 30.5941 50.3793 30.4226C50.3208 30.3769 49.6845 29.8088 49.5683 29.7043C49.1071 29.2698 48.2337 28.6312 47.3317 28.5432C46.3127 28.4387 45.6604 28.8144 44.9326 29.1026C44.8663 29.1318 44.8121 29.1989 44.8078 29.2742C44.8034 29.3617 44.8533 29.437 44.9244 29.4705C44.9495 29.4827 44.9785 29.4958 45.0115 29.4958C45.731 29.5502 46.421 29.6712 47.0742 29.8632C47.5562 30.0134 48.0387 30.1679 48.4171 30.4392C48.916 30.794 49.3481 31.2493 49.6355 31.4331C50.01 31.6712 50.3424 31.9011 50.7664 31.9846C51.2154 32.0639 51.6853 32.0303 52.1222 31.9176C52.1425 31.9093 52.1638 31.905 52.1803 31.8967C52.2969 31.8715 52.4087 31.8257 52.5214 31.7839C52.6748 31.7213 52.8205 31.6546 52.9622 31.5711C52.9661 31.5711 52.9704 31.5667 52.9787 31.5628C53.0658 31.5084 53.1616 31.467 53.2448 31.4043C53.2448 31.4 53.2491 31.4 53.253 31.4C53.3029 31.3582 53.3363 31.2911 53.328 31.2202C53.3224 31.1327 53.2517 31.0613 53.1646 31.0491Z" fill="white"/>
<path d="M50.366 24.2963C50.4116 24.4383 50.5659 24.5928 50.7401 24.6929C51.2806 25.0103 51.4761 25.4779 50.6608 25.5741C50.0665 25.6451 49.451 25.2484 47.2561 25.8497C45.9709 26.2045 44.4534 27.5118 43.9254 28.113C43.7633 28.2968 43.5969 28.514 43.4387 28.7395C42.9316 29.4787 42.9359 30.4722 43.4842 31.1783C43.8128 31.6002 44.179 31.8714 44.2869 31.9467C46.2119 33.2536 48.0207 32.1722 48.2161 31.9715C48.3739 31.8131 48.3826 31.7504 48.3531 31.7129C48.3488 31.7042 48.3444 31.7086 48.341 31.7042H48.3362C48.3323 31.6959 47.7255 32.0259 46.8729 32.0259C46.3866 32.0259 45.8916 31.9424 45.4798 31.7543C45.1764 31.6167 44.482 31.2449 44.0702 30.5849C43.8045 30.1548 43.8583 29.6037 44.1825 29.2149C44.5071 28.8266 44.8977 28.4591 45.2639 28.1879C46.091 27.5741 47.0393 27.2066 48.1412 27.1897C48.1663 27.1897 48.191 27.1853 48.22 27.1853C48.7731 27.1853 49.3011 27.2815 49.8043 27.4487C50.054 27.5318 50.2993 27.6324 50.5321 27.7534C51.2347 28.117 51.8502 28.6389 52.3157 29.2737L52.32 29.2693C52.3244 29.2737 52.3283 29.2776 52.3322 29.2819C52.5112 28.9728 52.7149 28.5136 52.8852 27.8662C52.9186 27.7534 52.9477 27.6368 52.9767 27.5114C53.2181 26.43 53.1475 23.9115 50.7644 23.9115C50.7228 23.9115 50.6773 23.932 50.6356 23.9446C50.3829 24.0121 50.3201 24.1501 50.366 24.2963Z" fill="white"/>
<path d="M11.219 18.433C11.6347 18.9219 12.0339 19.3185 12.3997 19.7108C12.5449 19.8653 12.6823 20.0198 12.8197 20.1827C13.2939 20.7425 13.6225 21.9367 12.1626 23.056C11.9589 23.2144 11.7678 23.3481 11.5476 23.4569C11.3313 23.5697 11.086 23.6533 10.7782 23.7116H10.7825C10.7743 23.7159 10.77 23.7159 10.7617 23.7159C12.4127 27.5831 15.0238 29.3163 15.0238 29.3163C15.0238 29.3163 15.0195 29.2993 15.0152 29.291C15.0321 29.2993 15.0403 29.3076 15.0403 29.3076C15.0403 29.3076 14.6077 28.2261 14.8695 26.0168C15.0069 24.86 15.3229 23.7116 15.3897 23.1143C15.4685 22.396 15.348 21.736 14.8947 20.7382C14.3541 19.5397 14.1587 19.197 13.8886 18.7586C13.365 17.9028 12.3586 16.1069 12.3586 16.1069C12.3586 16.1069 12.6706 15.7809 13.1817 15.5349C13.4938 15.3847 13.8761 15.2676 14.3043 15.2676C15.4685 15.2676 15.8886 15.9567 16.1465 16.2532C16.1339 16.2698 16.1256 16.3033 16.1174 16.3242C15.8469 16.8962 15.6974 18.6877 15.9302 19.9659C16.2128 21.5318 17.1984 22.6136 17.7303 23.2732C17.7385 23.2858 17.8009 23.3442 17.8009 23.3442C18.1876 22.9558 18.9821 22.8183 18.986 22.8139C18.986 22.8139 18.9652 22.029 19.36 21.4025C17.0983 20.9219 16.7446 19.7029 17.4308 17.1849C17.439 17.1596 17.4516 17.1431 17.4598 17.1178C17.7883 15.9859 18.1169 15.7064 17.8963 14.6124C17.7216 14.174 17.0896 13.5932 16.7112 13.3342C15.7091 12.6494 14.3372 12.2276 13.2185 12.4195C12.857 12.4822 12.5033 12.6076 12.1709 12.7953C11.1687 13.3508 10.3829 14.4574 10.3829 16.0821C10.3829 16.2785 10.408 16.4661 10.4327 16.6542C10.4995 17.1966 10.6906 17.8148 11.219 18.433Z" fill="white"/>
<path d="M27.1149 19.5646C27.1149 19.5646 27.9337 19.6526 28.5782 19.9029C29.3554 20.2033 29.651 20.4662 29.651 20.4662C29.651 20.4662 29.726 20.387 29.7303 20.3831L29.7342 20.387C29.7342 20.387 30.2747 19.7775 30.5699 19.1511C30.6904 18.8881 30.8317 18.4201 30.8404 18.3787C30.9236 17.9277 30.8737 17.4893 30.732 17.0923C30.6405 16.7205 30.4074 16.3696 30.0584 16.0605C29.8586 15.8807 29.6219 15.714 29.3515 15.5638C28.9648 15.3801 28.5409 15.2965 28.1291 15.3674V15.3762C28.1252 15.3762 28.117 15.3762 28.1127 15.3762C28.1209 15.3844 28.1625 15.8685 28.0711 16.8128C27.9215 18.4371 27.1149 19.5646 27.1149 19.5646Z" fill="white"/>
<path d="M25.4264 19.4937C25.4888 19.4937 25.5551 19.4767 25.6219 19.448C26.0709 19.2765 26.6448 18.4585 26.9942 17.485C27.3643 16.4454 27.256 15.5351 26.8238 15.1172C26.6075 14.9252 26.3501 14.7789 26.0545 14.6997C26.4537 14.5495 26.7488 14.1485 26.774 13.6683C26.7991 13.0336 26.3457 12.499 25.7593 12.4698C25.6059 12.4659 25.4602 12.4951 25.3267 12.549C24.9362 12.7075 24.6449 13.1046 24.6241 13.5804C24.6033 14.0606 24.8612 14.4824 25.2439 14.6705C25.2231 14.6788 25.2023 14.6875 25.1815 14.6914C25.0402 14.7206 24.911 14.7663 24.7866 14.8207C24.6618 14.8795 24.5452 14.9461 24.4416 15.0253C23.9761 15.4054 23.7845 16.2991 24.0632 17.3679C24.358 18.5081 24.9691 19.4397 25.4264 19.4937Z" fill="white"/>
<path d="M20.4119 19.0716C20.5909 19.4517 20.8566 19.8235 21.04 20.0573C21.0651 20.049 21.0816 20.032 21.1063 20.0238C22.4743 19.4852 23.8466 19.4765 23.8466 19.4765L23.8427 19.4682C23.8509 19.4682 23.863 19.4682 23.863 19.4682C23.863 19.4682 23.0607 18.3407 22.9068 16.716C22.8193 15.7765 22.857 15.288 22.8696 15.2798C22.4578 15.2127 22.0339 15.292 21.6429 15.4761L21.6386 15.48C21.6342 15.4844 21.6303 15.4844 21.626 15.4844C21.3599 15.6346 21.1189 15.8017 20.9191 15.9811C20.574 16.2902 20.3413 16.6367 20.2498 17.0124C20.1085 17.4095 20.0582 17.8474 20.1415 18.3028C20.1501 18.3411 20.2914 18.8087 20.4119 19.0716Z" fill="white"/>
<path d="M25.3059 29.4958C25.3393 29.4958 25.3683 29.4831 25.393 29.4705C25.4637 29.437 25.5135 29.3617 25.5096 29.2742C25.5053 29.1989 25.4515 29.1322 25.3848 29.1026C24.6531 28.8144 24.0043 28.4387 22.9857 28.5432C22.0832 28.6307 21.2103 29.2698 20.7486 29.7043C20.632 29.8088 19.9962 30.3765 19.9381 30.4226C19.701 30.5941 19.4518 30.7565 19.1687 30.8488C18.6616 31.0491 18.0543 31.0952 17.4267 31.0574C17.3682 31.0491 17.3101 31.0447 17.2477 31.0365H17.2186C17.2022 31.0321 17.1853 31.0365 17.1688 31.0408C17.1601 31.0408 17.1601 31.0491 17.1519 31.0491C17.0648 31.0613 16.9941 31.1322 16.9859 31.2202C16.9815 31.2911 17.0106 31.3582 17.0648 31.4C17.0687 31.4 17.0687 31.4 17.073 31.4043C17.1558 31.467 17.252 31.5088 17.3391 31.5628C17.3478 31.5667 17.3517 31.5711 17.356 31.5711C17.493 31.6546 17.643 31.7217 17.7969 31.7839C17.9091 31.8257 18.017 31.8719 18.1336 31.8967C18.1544 31.905 18.1753 31.9093 18.1961 31.9176C18.6325 32.0303 19.0985 32.0639 19.5515 31.9846C19.9758 31.9011 20.3082 31.6712 20.6823 31.4331C20.9693 31.2493 21.3975 30.794 21.9007 30.4392C22.2791 30.1675 22.7577 30.0134 23.244 29.8632C23.8963 29.6712 24.5864 29.5497 25.3059 29.4958Z" fill="white"/>
<path d="M17.3391 27.5117C17.3681 27.637 17.3972 27.7537 17.4305 27.8665C17.6013 28.5138 17.8046 28.9731 17.9836 29.2822C17.988 29.2779 17.9919 29.2739 17.9962 29.2696L18.0001 29.2739C18.4656 28.6392 19.0768 28.1172 19.7837 27.7537C20.0165 27.6327 20.2618 27.5326 20.5115 27.449C21.0104 27.2818 21.5427 27.1856 22.0953 27.1856C22.1243 27.1856 22.1495 27.1899 22.1746 27.1899C23.2765 27.2069 24.2244 27.5743 25.0519 28.1882C25.4177 28.4594 25.8087 28.8268 26.1329 29.2152C26.4532 29.6039 26.5117 30.1551 26.2456 30.5852C25.8338 31.2452 25.1394 31.6166 24.836 31.7546C24.4242 31.9426 23.9297 32.0262 23.4433 32.0262C22.5907 32.0262 21.9835 31.6962 21.9796 31.7045H21.9752C21.9713 31.7088 21.967 31.7045 21.9627 31.7132C21.9293 31.7506 21.9419 31.8133 22.0996 31.9718C22.2951 32.1721 24.1039 33.2539 26.0288 31.947C26.1372 31.8717 26.503 31.6004 26.8273 31.1786C27.3803 30.4725 27.3842 29.479 26.8771 28.7398C26.7193 28.5143 26.5529 28.297 26.3869 28.1133C25.8628 27.5121 24.3453 26.2047 23.0606 25.8499C20.8652 25.2487 20.2454 25.6453 19.6554 25.5744C18.8406 25.4781 19.0317 25.0106 19.5765 24.6932C19.7512 24.5931 19.9047 24.4385 19.9506 24.2966C19.9966 24.1503 19.9341 24.0123 19.6806 23.9457C19.639 23.9331 19.593 23.9126 19.5514 23.9126C17.1687 23.9122 17.0981 26.4303 17.3391 27.5117Z" fill="white"/>
<path d="M46.3203 64.4166L46.3246 64.444C46.3294 64.444 46.3342 64.4488 46.3385 64.444C46.3337 64.4349 46.3289 64.4252 46.3203 64.4166Z" fill="white"/>
<path d="M36.512 40.0276C36.5913 40.1865 36.903 40.4368 36.9697 40.9257C36.9784 40.9758 38.1712 39.6519 38.1712 39.6519V38.378L36.8986 38.9209L36.512 40.0276Z" fill="white"/>
<path d="M28.7281 73.4119C29.3059 73.2578 29.8343 73.0819 30.3913 72.8647C30.6656 72.7563 30.9443 72.6352 31.2187 72.4972C31.4974 72.3553 31.7718 72.1925 32.0379 72.0044C32.2997 71.8207 32.5451 71.5865 32.7531 71.324C32.8571 71.1942 32.9443 71.0479 33.0192 70.8938C33.0565 70.8142 33.0942 70.7267 33.1189 70.6513L33.1731 70.4428V70.4341C33.2104 70.2839 33.1189 70.1293 32.9694 70.0919C32.9109 70.0797 32.8528 70.0876 32.803 70.1041C32.7531 70.1211 32.7076 70.1503 32.6699 70.192C32.4952 70.3967 32.3084 70.5386 32.1086 70.647C31.9092 70.7558 31.6968 70.8307 31.4679 70.9017C31.0024 71.0358 30.4909 71.1067 29.9669 71.1777C29.4515 71.2443 28.8902 71.2987 28.3744 71.3492C27.8591 71.3993 27.3389 71.4245 26.8066 71.445L25.1561 71.4955C24.5865 71.5286 23.9879 71.5582 23.3057 71.7166C23.0478 71.7793 22.7652 71.8542 22.4782 71.9922C22.3824 72.0379 22.2827 72.0884 22.1874 72.1511C21.8133 72.3849 21.4388 72.7645 21.2559 73.2077C21.0648 73.6505 21.0396 74.0889 21.1146 74.4606C21.2022 74.8363 21.3517 75.1581 21.6217 75.4419C21.7301 75.5508 21.8879 75.5795 22.0253 75.5216C22.0669 75.5046 22.1874 75.4006 22.1874 75.4006C22.6616 74.6317 23.6758 74.2186 23.8757 74.1729C24.6949 73.9765 25.8674 73.9265 26.9982 73.7597C27.5721 73.6748 28.1499 73.566 28.7281 73.4119Z" fill="white"/>
<path d="M23.5644 70.2251C23.5518 70.3797 23.6684 70.5133 23.8179 70.522C23.8847 70.5259 23.9428 70.5094 23.9926 70.4763L24.0009 70.4676C24.0048 70.4676 24.0048 70.4676 24.0048 70.4676L24.0962 70.4049C24.2249 70.317 24.358 70.246 24.4911 70.1833C24.899 69.9996 25.3064 69.933 25.7095 69.9243C26.2626 69.9034 26.8239 69.9743 27.4723 70.0915C28.1711 70.2168 28.9569 70.2708 29.7219 70.2125C30.1086 70.1833 30.4995 70.108 30.8987 69.9996C31.0981 69.933 31.298 69.866 31.506 69.7571C31.506 69.7528 31.5099 69.7528 31.5099 69.7528C31.5142 69.7528 31.5181 69.7488 31.5225 69.7488C31.7097 69.64 31.9715 69.5024 32.1046 69.2099C32.1588 69.0971 32.1089 68.9639 31.9923 68.9134C31.9754 68.9047 31.959 68.8964 31.9425 68.8964C31.9425 68.8964 31.1649 68.7506 30.8489 68.6587L29.8637 68.4041C29.1901 68.2365 28.5456 68.0906 27.8221 67.9696C27.0532 67.8355 26.1382 67.8399 25.2856 68.1742C25.1772 68.2164 25.0736 68.2661 24.9696 68.3205C24.2419 68.6927 23.622 69.3692 23.5644 70.2251Z" fill="white"/>
<path d="M24.6745 67.486C24.7118 67.4773 25.1651 67.3145 25.3775 67.2435H25.3732C25.3814 67.2392 22.7079 66.2705 24.2254 64.5413L24.2298 64.4747C24.2254 64.479 24.2215 64.4625 24.2172 64.4664C23.9636 64.4329 23.7057 64.4577 23.4686 64.5539C23.2276 64.6501 23.0196 64.8086 22.8449 65.0258C22.1215 65.9279 23.1154 66.9092 23.1401 66.9301C22.9944 66.9174 22.6368 66.8635 22.4873 66.8465C21.8432 66.4037 20.7704 65.3101 22.3087 62.9963C22.2671 62.9919 22.2294 62.9919 22.1921 62.9875C21.9676 62.9754 21.7513 63.0167 21.5476 63.1086C21.4271 63.1504 21.3109 63.1961 21.2026 63.2505C20.4458 63.6223 19.9304 64.3406 19.9304 65.1712C19.9304 65.5139 20.0214 65.8312 20.1753 66.1194C20.2876 66.3284 20.4332 66.5121 20.6079 66.6793C20.4956 66.6667 20.005 66.6371 19.8888 66.604C19.1862 65.7895 18.4086 64.2697 19.9096 62.4904C19.868 62.4865 19.8307 62.4821 19.793 62.4821C19.5685 62.4695 19.3522 62.5152 19.1485 62.6031C19.0115 62.6528 18.8867 62.7115 18.7662 62.7825C17.9387 63.2588 17.5313 64.1691 17.5313 64.9205C17.5313 65.2631 17.6518 65.8143 17.7762 66.119C18.7618 68.5426 23.4145 67.8077 24.6745 67.486Z" fill="white"/>
<path d="M48.345 72.1506C48.2492 72.0875 48.1495 72.0374 48.0542 71.9917C47.7672 71.8541 47.4846 71.7788 47.2267 71.7161C46.5406 71.5577 45.9463 71.5281 45.3724 71.495L43.7258 71.4445C43.1935 71.424 42.6695 71.3992 42.1541 71.3487C41.6426 71.2986 41.0813 71.2442 40.5655 71.1772C40.0419 71.1062 39.5304 71.0353 39.0645 70.9012C38.8361 70.8302 38.6237 70.7553 38.4243 70.6465C38.2206 70.5381 38.0338 70.3962 37.8586 70.1916C37.8253 70.1498 37.7793 70.1206 37.7295 70.1036C37.6757 70.0871 37.6216 70.0788 37.5635 70.0914C37.4096 70.1289 37.3181 70.2834 37.3554 70.4336L37.3597 70.4423L37.4096 70.6508C37.4386 70.7262 37.4763 70.8137 37.5132 70.8933C37.5886 71.0474 37.6714 71.1937 37.7793 71.3235C37.9874 71.5864 38.2284 71.8206 38.4945 72.0039C38.7607 72.192 39.035 72.3548 39.3137 72.4967C39.5881 72.6343 39.8625 72.7557 40.1412 72.8641C40.6982 73.0814 41.2222 73.2568 41.8 73.4114C42.3778 73.5659 42.9599 73.6743 43.5338 73.7584C44.6607 73.9251 45.8371 73.9752 46.6563 74.1715C46.8518 74.2172 47.8708 74.6308 48.3446 75.3992C48.3446 75.3992 48.4612 75.5032 48.5067 75.5202C48.6437 75.5785 48.8023 75.5494 48.9102 75.4405C49.1764 75.1567 49.3303 74.835 49.4135 74.4593C49.4924 74.0875 49.4677 73.6491 49.2761 73.2063C49.0932 72.764 48.7191 72.3844 48.345 72.1506Z" fill="white"/>
<path d="M39.0104 69.7496C39.0104 69.7496 39.019 69.7535 39.0225 69.7535H39.0268C39.231 69.8667 39.4343 69.9333 39.6337 69.9999C40.029 70.1083 40.4239 70.1836 40.8105 70.2128C41.5716 70.2711 42.3614 70.2171 43.0597 70.0918C43.7085 69.9746 44.2698 69.9037 44.8225 69.9246C45.226 69.9333 45.6335 69.9999 46.0409 70.1836C46.1744 70.2463 46.3027 70.3173 46.4358 70.4052L46.5233 70.4679H46.5277L46.5398 70.4766C46.5896 70.5097 46.6477 70.5262 46.7145 70.5223C46.864 70.5136 46.9802 70.3804 46.968 70.2254C46.9095 69.3691 46.2862 68.6926 45.5628 68.3212C45.4588 68.2668 45.3509 68.2171 45.2468 68.1749C44.3947 67.8406 43.4801 67.8367 42.7103 67.9703C41.9869 68.0913 41.3428 68.2372 40.6687 68.4048L39.6792 68.6595C39.3632 68.7513 38.5899 68.8972 38.5899 68.8972C38.5735 68.8972 38.5522 68.9059 38.5358 68.9141C38.4235 68.9642 38.3736 69.0979 38.4235 69.2106C38.557 69.5027 38.8236 69.6407 39.0104 69.7496Z" fill="white"/>
<path d="M51.7625 62.7838C51.6459 62.7128 51.521 62.654 51.3841 62.6044C51.1803 62.5165 50.9597 62.4703 50.7395 62.4834C50.7023 62.4834 50.6602 62.4877 50.6229 62.4916C52.124 64.2709 51.3464 65.7907 50.6437 66.6052C50.5271 66.6383 50.0369 66.6679 49.9203 66.6806C50.095 66.5134 50.2445 66.3297 50.3568 66.1207C50.5068 65.8325 50.6021 65.5151 50.6021 65.1725C50.6021 64.3419 50.0868 63.6231 49.3295 63.2518C49.2173 63.1973 49.105 63.1516 48.9845 63.1098C48.7808 63.018 48.5602 62.9762 48.3404 62.9888C48.3027 62.9932 48.2611 62.9932 48.2234 62.9975C49.7621 65.311 48.6889 66.405 48.0448 66.8477C47.8948 66.8647 47.5372 66.9187 47.3877 66.9313C47.4167 66.9104 48.4102 65.9291 47.6868 65.0271C47.5125 64.8099 47.3001 64.6514 47.0635 64.5552C46.8268 64.459 46.5685 64.4342 46.3149 64.4677C46.3106 64.4633 46.3062 64.4799 46.3023 64.476L46.3067 64.5426C47.8242 66.2718 45.1507 67.2404 45.1593 67.2448H45.155C45.367 67.3157 45.8203 67.4786 45.8576 67.4873C47.1133 67.8085 51.7703 68.5439 52.7555 66.1211C52.876 65.8164 53.0008 65.2652 53.0008 64.9226C53.0017 64.1699 52.5938 63.2596 51.7625 62.7838Z" fill="white"/>
<path d="M39.605 55.6796C39.5794 55.6465 39.4967 55.63 39.4967 55.63C39.4594 55.6208 39.4178 55.6256 39.3844 55.6421C39.1599 55.7797 39.0186 55.9303 38.8894 56.0849C38.7771 56.2355 38.6818 56.394 38.6233 56.5525C38.5652 56.7109 38.5197 56.8742 38.5526 57.0453C38.5942 57.2168 38.6774 57.3962 38.9145 57.5925C38.9687 57.6382 39.1724 57.7135 39.3137 57.6678C39.605 57.5716 39.7502 57.4384 39.8543 57.2921C39.95 57.1458 39.9665 56.9787 39.9708 56.8076C39.9791 56.6404 39.95 56.461 39.9002 56.2773C39.8378 56.0849 39.7632 55.8929 39.605 55.6796Z" fill="white"/>
<path d="M39.9921 46.1457C39.9877 46.1418 39.9834 46.1374 39.9834 46.1335L39.9045 46.1836C39.5716 46.3298 39.2474 46.5384 38.9271 46.8061C37.6345 47.9084 36.5158 49.9672 36.0291 52.4356C35.5631 54.7995 35.7798 56.992 36.4902 58.4534C36.9644 59.4221 37.6545 60.0738 38.511 60.2196C39.3549 60.3616 40.2326 59.9985 41.0345 59.2719C42.2781 58.1443 43.3383 56.1478 43.8081 53.7595C44.2901 51.3202 44.0448 49.0525 43.2754 47.5998C42.8056 46.706 42.1407 46.113 41.321 45.9755C40.8863 45.8993 40.4368 45.9663 39.9921 46.1457ZM37.2358 52.5523C37.2644 52.3851 37.3727 51.9006 37.4061 51.7421C37.4148 51.7508 37.514 52.0011 37.7637 52.1722C38.0593 52.3725 38.2418 52.3807 38.3874 52.4016C38.3874 52.4016 38.1755 52.0969 38.1213 51.7042C38.0546 51.2031 38.2878 50.8022 38.2878 50.8022C38.4083 51.0029 39.0068 52.4643 39.2396 52.9489C39.198 53.0786 39.1607 53.2118 39.1317 53.3581C39.1152 53.4373 39.1065 53.5122 39.0983 53.5919C39.0901 53.6376 39.0818 53.6794 39.0775 53.7212C39.0398 53.7591 37.4061 55.7508 37.0195 56.1474C36.7945 54.7904 37.0607 53.5505 37.2358 52.5523ZM38.8239 58.975C38.2709 58.904 37.9635 58.5827 37.7845 58.3694C37.2774 57.7765 37.2189 57.2083 37.215 57.2044L39.1863 54.7904C39.2899 55.0908 39.5101 55.1957 39.5686 55.2035C39.5729 55.2035 39.5729 55.2079 39.5773 55.2079C39.7602 55.2458 39.9513 55.1369 40.1299 54.9367C40.1798 55.0616 41.3232 57.1792 41.3687 57.2127C40.6531 58.3859 39.5638 59.0708 38.8239 58.975ZM42.6781 53.813C42.5949 54.285 42.5117 54.6193 42.3786 55.0451C42.275 55.3751 42.0878 55.8513 41.9508 56.1474C41.6803 55.7843 41.165 54.9158 40.6284 53.9258C40.6492 53.8422 40.6739 53.7543 40.6908 53.6668C40.7242 53.487 40.745 53.312 40.7536 53.1491C41.3063 52.6019 41.8303 51.9628 42.3834 51.3363C42.3834 51.3363 42.6374 51.5871 42.5455 52.0342C42.4627 52.4517 42.08 52.7147 42.08 52.7147C42.4376 52.7234 42.5832 52.7399 42.9031 52.6019C42.8654 52.928 42.7362 53.4752 42.6781 53.813ZM41.9465 47.7369C42.0423 47.8248 42.1294 47.9289 42.2165 48.0416C42.2499 48.0961 42.2707 48.1291 42.2958 48.1792C42.3292 48.2423 42.3622 48.3046 42.3955 48.3712C42.5741 48.7469 42.6864 49.1357 42.7735 49.5906C42.6946 49.5619 42.624 49.5532 42.5325 49.5532C41.4515 49.524 40.8525 50.1422 40.6695 51.1108C40.6695 51.1108 41.015 50.8479 41.3058 50.7726C41.5637 50.7099 41.9257 50.756 41.9257 50.756C41.5182 51.2532 41.0818 51.7334 40.6284 52.2053C40.5412 51.9881 40.4077 51.8461 40.2456 51.8126C40.0671 51.7795 39.8798 51.8792 39.7095 52.0673C39.5265 51.6585 39.1104 50.6311 39.0233 50.389C39.0233 50.389 39.3393 50.3599 39.6015 50.4804C39.8924 50.6145 40.1793 50.9859 40.1793 50.9859C40.2248 50.7478 40.1793 50.2885 40.0965 50.0338C39.9257 49.5074 39.5391 49.1731 38.9032 49.0899C38.7741 49.0773 38.6536 49.0812 38.5287 49.0982C39.0155 48.3425 39.5768 47.7869 40.1425 47.5114C39.9834 48.706 41.6136 48.948 41.9465 47.7369Z" fill="white"/>
<path d="M70.4671 40.8521C70.4047 40.6349 70.2551 40.4677 70.0679 40.3715C69.8893 40.2714 69.6687 40.2379 69.4567 40.3049L69.4194 40.3136C68.4962 40.5892 67.5318 40.8813 66.5838 41.0985C66.1053 41.22 65.6354 41.3328 65.1617 41.4368C64.6918 41.5369 64.2263 41.6166 63.7148 41.6876C62.7209 41.8169 61.7231 41.9301 60.7253 42.0176C60.0891 42.0715 59.4324 42.1138 58.7961 42.1425C58.888 42.1177 58.979 42.0968 59.0752 42.0676C59.3496 41.9923 59.624 41.9131 59.8944 41.8295C60.4306 41.658 60.9585 41.4786 61.4826 41.2866C62.5263 40.9022 63.5406 40.4847 64.5553 40.0376C65.5657 39.6031 66.6302 39.1064 67.5656 38.5008C68.514 37.8744 69.3991 37.2187 70.2304 36.4046C70.484 36.1539 70.5507 35.7529 70.3639 35.4273C70.2807 35.281 70.1559 35.1726 70.0141 35.1055C69.7818 34.9884 69.4949 34.9845 69.2534 35.1264L69.2205 35.1469C68.3467 35.6523 67.4199 36.1743 66.4967 36.6214C65.5613 37.0807 64.6715 37.5191 63.6737 37.8617C62.6884 38.2083 61.6781 38.5339 60.6716 38.8138C60.1684 38.9558 59.6651 39.0851 59.1662 39.2022L58.8333 39.2731C59.0869 39.1643 59.3322 39.052 59.5732 38.9349C60.1181 38.6676 60.6421 38.3837 61.1536 38.0912C62.1765 37.4982 63.1535 36.8635 64.1097 36.2074C65.0871 35.5435 66.0641 34.8208 66.9167 33.9985C67.7645 33.1591 68.5465 32.2989 69.2326 31.2841C69.432 30.9837 69.4155 30.5701 69.162 30.2902C69.0826 30.2066 68.9955 30.1439 68.8958 30.1021C68.6132 29.9641 68.2639 30.002 68.0146 30.2314L67.9856 30.2566C67.1998 30.975 66.3558 31.7142 65.4993 32.3659C64.6346 33.0342 63.7907 33.6854 62.8466 34.2283C62.672 34.3328 62.489 34.4286 62.3144 34.5291C61.5285 34.9758 60.734 35.4059 59.936 35.7947C59.7778 35.8696 59.624 35.9405 59.4705 36.0119C59.1792 36.1456 58.8841 36.271 58.5932 36.392C58.6474 36.3546 58.7016 36.321 58.7553 36.2832C59.0965 36.0411 59.4207 35.7864 59.7367 35.5313C59.9113 35.3894 60.0864 35.2475 60.2568 35.1012C61.1917 34.2993 62.0695 33.4556 62.9047 32.5953C62.9173 32.5827 62.9299 32.5744 62.9381 32.5618C63.828 31.6554 64.6598 30.7159 65.3663 29.6842C66.0611 28.6406 66.6848 27.588 67.1712 26.3895C67.3081 26.0512 67.2002 25.6502 66.892 25.4334C66.8881 25.4291 66.8799 25.4291 66.8755 25.4252C66.514 25.1661 66.0151 25.2536 65.7616 25.6171L65.7364 25.6507C65.0958 26.5653 64.3893 27.5092 63.645 28.3733C63.4244 28.6363 63.2003 28.8953 62.9758 29.1543C62.4518 29.7556 61.9113 30.3402 61.3209 30.8622C61.0296 31.1212 60.7305 31.3716 60.431 31.6267C59.8949 32.0816 59.35 32.5283 58.7965 32.9462C58.8797 32.8335 58.9673 32.7207 59.0501 32.608C59.5117 31.9732 59.9317 31.3298 60.3396 30.6828C60.6183 30.2318 60.8922 29.7808 61.1588 29.3259C61.6243 28.5366 62.053 27.7303 62.4227 26.8992C62.5892 26.5275 62.7469 26.1518 62.8839 25.7717C63.3286 24.527 63.6867 23.2911 63.8735 21.9463C63.9277 21.5789 63.7157 21.2114 63.3538 21.0817L63.3455 21.0778C63.3412 21.0778 63.3412 21.0734 63.333 21.0734C62.9216 20.9232 62.4639 21.1405 62.3144 21.558L62.3018 21.5998C61.9654 22.5519 61.5576 23.5331 61.1206 24.4813C61.05 24.6315 60.9876 24.7861 60.9169 24.9363C60.418 25.9598 59.9022 26.9702 59.2954 27.9184C59.2625 27.9728 59.2291 28.0312 59.1918 28.0899C58.7384 28.7582 58.2642 29.4051 57.7818 30.0398C56.2894 31.7103 53.7698 33.3807 52.4101 34.049C51.7448 34.3707 51.0712 34.813 50.3894 35.1469C50.3807 35.1513 50.3681 35.1595 50.3603 35.1639C49.9026 35.3855 49.5077 35.7442 49.275 36.1996C49.2169 36.3123 49.1709 36.4377 49.1293 36.5587C49.0587 36.7799 49.0127 37.0137 49.0127 37.2601C49.0127 38.133 49.4869 38.9723 50.2021 39.348C50.4388 39.4773 50.7006 39.5526 50.9836 39.5609C51.0291 39.5609 51.0668 39.5565 51.1084 39.5526C51.3533 39.5274 51.4868 39.419 51.4868 39.419C51.4868 39.419 51.2957 38.9053 51.5865 38.6754C51.636 38.6419 51.6862 38.6127 51.74 38.5923C51.877 38.5296 52.0226 38.496 52.1808 38.496C52.3308 38.496 52.4677 38.5252 52.5969 38.5757C52.9749 38.7468 53.241 39.1225 53.241 39.5652C53.241 40.1125 52.8336 40.5596 52.31 40.6301C52.0685 40.7263 51.6117 40.7389 51.3204 40.7389C50.7175 40.7389 50.1271 40.6763 49.5576 40.5718C48.7717 40.4259 48.0193 40.1752 47.3206 39.8535C46.4684 39.4608 44.9049 38.3123 44.9297 38.2457C43.3207 36.7464 42.306 34.6876 42.2189 32.4073C42.2145 32.3028 42.2024 32.1983 42.2024 32.0938C42.2024 31.7643 42.2232 31.409 42.2648 31.0916C42.3272 30.5279 42.4555 29.9763 42.6306 29.4421C42.9427 28.49 43.4208 27.5962 44.0281 26.8278C44.0905 26.753 44.3644 26.4478 44.7181 26.0969C44.7389 26.076 44.7636 26.0551 44.7844 26.0342C44.7888 26.0303 44.7888 26.0259 44.7931 26.022C45.188 25.6333 45.6622 25.1992 46.0696 24.9358C46.0696 24.9358 46.0653 24.9358 46.0653 24.9319C46.0696 24.9319 46.0696 24.9319 46.0696 24.9319C46.0445 24.9154 45.999 24.8736 45.953 24.8318C45.8988 24.7774 45.849 24.7229 45.8195 24.6899C45.0796 24.6185 44.8174 24.2637 44.6926 23.9672C44.6887 23.9546 44.6843 23.9463 44.6804 23.938C44.6718 23.9128 44.6596 23.8879 44.6514 23.867C44.6141 23.7543 44.6141 23.416 44.6306 23.3699C44.6848 23.0943 44.8508 22.8231 44.9882 22.6894C45.0545 22.6141 45.1251 22.5475 45.1958 22.4931C45.4203 22.3176 45.6739 22.2258 45.9444 22.1714C46.0107 22.1587 46.0774 22.1466 46.1437 22.1383C46.1563 22.1383 46.165 22.1339 46.1728 22.1339C46.8589 22.0625 47.5364 22.3594 47.8112 23.0651V23.0695C47.7735 23.0987 47.3786 23.174 47.3786 23.174H47.3743C47.233 22.8692 47.0002 22.7438 46.7259 22.7647C46.6344 22.7691 46.5386 22.7939 46.4389 22.8318C46.3726 22.8566 46.3184 22.8901 46.2725 22.9315C45.8317 23.3072 46.2183 24.2641 46.8338 24.3307C46.9252 24.339 47.0293 24.3263 47.1329 24.2889C47.1372 24.2889 47.1415 24.2845 47.1454 24.2845C47.4116 24.1757 49.1163 23.7669 50.1432 23.6041C50.3386 23.5749 50.5133 23.5497 50.6464 23.5414C50.6464 23.5414 50.6546 23.5371 50.6585 23.5331H50.6629C50.8371 23.241 50.8458 21.3407 49.3534 20.7186C48.1766 20.2297 47.1498 20.1505 46.2265 20.1505C45.3865 20.1461 44.6215 20.2336 43.84 20.4095C40.8045 21.0778 38.9546 22.844 37.262 26.6655C36.1185 28.9249 35.7068 31.0921 35.5407 31.6894C35.5407 31.6894 35.4783 31.6894 35.37 31.6937C35.1992 31.0507 34.7879 28.8957 33.6613 26.6698C31.9687 22.8488 30.1105 21.0821 27.0751 20.41C26.2931 20.2384 25.5199 20.1509 24.6803 20.1509C23.7531 20.1548 22.7302 20.2341 21.5491 20.723C20.0563 21.3412 20.0645 23.2454 20.2435 23.5336C20.2479 23.5375 20.2522 23.5375 20.2561 23.5418C20.3848 23.5501 20.5595 23.5754 20.7593 23.6045C21.7862 23.7674 23.4909 24.1766 23.757 24.285C23.7614 24.285 23.7653 24.2893 23.7696 24.2893C23.8736 24.3268 23.9733 24.3394 24.0691 24.3311C24.7427 24.2562 25.1458 23.1034 24.4683 22.8361C24.3686 22.7943 24.2728 22.7735 24.1814 22.7652C23.907 22.7443 23.6699 22.874 23.5286 23.1744C23.5286 23.1744 23.1086 23.0995 23.0878 23.0743L23.0917 23.0656C23.3661 22.3599 24.044 22.0634 24.7301 22.1344C24.7384 22.1344 24.7466 22.1387 24.7553 22.1387C24.8259 22.147 24.8922 22.1592 24.959 22.1718C25.3166 22.2428 25.649 22.389 25.9152 22.6938C26.0565 22.8274 26.2229 23.0991 26.2771 23.3742C26.2897 23.4204 26.2936 23.7586 26.252 23.8714C26.2476 23.8923 26.2351 23.9171 26.2268 23.9424C26.2225 23.9506 26.2186 23.9593 26.2143 23.9676C26.0894 24.268 25.8276 24.6232 25.0873 24.6942C25.0583 24.7273 25.0041 24.7817 24.9542 24.8318C24.9087 24.8779 24.8632 24.9154 24.8337 24.9363C25.2663 25.2205 25.7773 25.6925 26.1848 26.0973C26.5424 26.4521 26.8167 26.7573 26.8753 26.8322C27.4864 27.6006 27.9602 28.4944 28.2766 29.4465C28.4508 29.9811 28.5757 30.5366 28.6424 31.096C28.6797 31.4134 28.7048 31.7769 28.7048 32.1025C28.7048 32.207 28.6927 32.3198 28.6884 32.4238C28.6801 32.6119 28.6632 32.7999 28.6468 32.9876C28.443 33.9436 28.0187 35.493 27.2329 36.8047C27.1956 36.863 27.154 36.9257 27.1124 36.9841H27.1249C26.8254 37.456 26.4761 37.8905 26.0686 38.2453C26.0933 38.3119 24.5299 39.4603 23.6821 39.853C22.9794 40.1747 22.2309 40.4251 21.445 40.5713C20.8716 40.6758 20.2808 40.7385 19.6779 40.7385C19.387 40.7385 18.9293 40.7259 18.6926 40.6297C18.1647 40.5587 17.7573 40.112 17.7573 39.5648C17.7573 39.1221 18.0234 38.7464 18.4018 38.5753C18.5305 38.5252 18.6723 38.4956 18.8175 38.4956C18.9753 38.4956 19.1252 38.5291 19.2583 38.5918C19.3125 38.6123 19.3623 38.6419 19.4122 38.675C19.703 38.9044 19.5119 39.4185 19.5119 39.4185C19.5119 39.4185 19.6488 39.5274 19.8946 39.5522C19.9319 39.5561 19.9691 39.5605 20.0151 39.5605C20.2977 39.5522 20.5638 39.4769 20.8009 39.3476C21.5118 38.9719 21.9855 38.1321 21.9855 37.2597C21.9855 37.0132 21.94 36.7795 21.8689 36.5583C21.8273 36.4373 21.7818 36.3119 21.7233 36.1991C21.4905 35.7442 21.1 35.385 20.6423 35.1634C20.6302 35.1591 20.6219 35.1508 20.6093 35.1465C19.9314 34.8126 19.254 34.3698 18.5925 34.0485C17.2289 33.3803 14.7132 31.7098 13.2204 30.0394C12.734 29.4047 12.2598 28.7573 11.8065 28.0895C11.7731 28.0307 11.7401 27.9724 11.7024 27.918C11.0995 26.9698 10.5798 25.9593 10.0852 24.9358C10.0107 24.7856 9.95217 24.6311 9.88152 24.4809C9.44071 23.5327 9.03327 22.5514 8.69648 21.5993L8.68391 21.5575C8.5387 21.14 8.08098 20.9228 7.6653 21.073C7.6614 21.073 7.65707 21.0773 7.65317 21.0773C7.65317 21.0773 7.64883 21.0773 7.64883 21.0813C7.28257 21.211 7.07495 21.5784 7.12479 21.9459C7.31595 23.2906 7.67354 24.5266 8.11436 25.7713C8.25566 26.1513 8.41387 26.527 8.57988 26.8988C8.95004 27.7299 9.37439 28.5357 9.84424 29.3254C10.1104 29.7804 10.3804 30.2314 10.6635 30.6824C11.067 31.3298 11.4909 31.9728 11.9482 32.6075C12.0314 32.7203 12.119 32.833 12.2061 32.9458C11.6491 32.5283 11.1086 32.0812 10.5681 31.6262C10.269 31.3716 9.97341 31.1208 9.67824 30.8618C9.09221 30.3398 8.55127 29.7551 8.02377 29.1539C7.79924 28.8949 7.57471 28.6363 7.35409 28.3729C6.60986 27.5087 5.90334 26.5649 5.26271 25.6502L5.23757 25.6167C4.984 25.2536 4.4851 25.1657 4.12317 25.4247C4.11884 25.4286 4.11494 25.4286 4.1106 25.433C3.79895 25.6502 3.69059 26.0508 3.82799 26.389C4.31866 27.5875 4.93849 28.6402 5.63677 29.6837C6.34372 30.7155 7.17508 31.655 8.06104 32.5614C8.07318 32.574 8.08618 32.5823 8.09442 32.5949C8.93444 33.4551 9.8074 34.2989 10.7471 35.1008C10.9179 35.2466 11.0921 35.389 11.2668 35.5309C11.5828 35.7856 11.9031 36.0402 12.2481 36.2827C12.298 36.3202 12.3522 36.3537 12.4059 36.3916C12.1151 36.2705 11.8238 36.1452 11.533 36.0115C11.3747 35.9405 11.2213 35.8696 11.0674 35.7943C10.2647 35.4055 9.47495 34.9758 8.68911 34.5287C8.51009 34.4286 8.33151 34.3324 8.1525 34.2279C7.20888 33.685 6.36453 33.0337 5.50413 32.3655C4.64331 31.7138 3.79939 30.975 3.01355 30.2562L2.9845 30.231C2.73917 30.0015 2.38981 29.9637 2.10287 30.1017C2.00708 30.1435 1.91606 30.2061 1.84107 30.2897C1.5875 30.5697 1.5667 30.9828 1.77042 31.2836C2.45657 32.2984 3.23807 33.1587 4.08633 33.998C4.93459 34.8208 5.91158 35.5431 6.8929 36.207C7.84952 36.8626 8.82651 37.4973 9.84511 38.0907C10.3605 38.3828 10.8802 38.6671 11.4294 38.9344C11.666 39.0515 11.9157 39.1639 12.1697 39.2727L11.8329 39.2017C11.334 39.0846 10.8308 38.9558 10.3275 38.8134C9.32541 38.5335 8.31504 38.2078 7.32591 37.8613C6.32768 37.5187 5.44215 37.0803 4.50677 36.621C3.58396 36.1739 2.65638 35.6519 1.77909 35.1465L1.74571 35.126C1.50428 34.9841 1.22167 34.988 0.988912 35.1051C0.847608 35.1722 0.722776 35.2806 0.639554 35.4268C0.448403 35.7525 0.514721 36.1534 0.772622 36.4042C1.60007 37.2187 2.48994 37.8739 3.43356 38.5004C4.37327 39.106 5.43392 39.6027 6.44818 40.0372C7.45855 40.4843 8.47282 40.9018 9.52089 41.2862C10.0406 41.4782 10.5685 41.658 11.1095 41.8291C11.3799 41.9122 11.65 41.9919 11.9287 42.0672C12.0245 42.0959 12.1159 42.1173 12.2074 42.1421C11.5672 42.1133 10.9144 42.0711 10.2742 42.0171C9.28033 41.9296 8.27863 41.8164 7.28474 41.6871C6.77327 41.6162 6.31208 41.5365 5.83832 41.4364C5.36847 41.3323 4.89427 41.2196 4.42052 41.0981C3.47257 40.8809 2.50381 40.5888 1.58057 40.3132L1.54719 40.3045C1.3309 40.2379 1.11461 40.271 0.932131 40.3711C0.749216 40.4673 0.599243 40.634 0.532926 40.8517C0.428898 41.2065 0.578438 41.5779 0.881851 41.7659C1.81766 42.3467 2.76951 42.7685 3.76774 43.1608C4.7573 43.5408 5.85479 43.7833 6.86126 43.9919C7.87986 44.2135 8.9028 44.4137 9.93397 44.5892C10.8611 44.7433 11.7636 44.8769 12.7319 44.9775C12.1415 45.0485 11.5512 45.1151 10.9569 45.1782C10.0085 45.27 9.05234 45.3493 8.10049 45.412C7.86339 45.4285 7.63063 45.4372 7.3853 45.4451L6.69915 45.4577L5.31862 45.4324C4.39148 45.4198 3.43486 45.3528 2.51638 45.3027H2.48734C2.32133 45.2944 2.16312 45.3362 2.03005 45.4159C1.80119 45.5495 1.63908 45.7877 1.62651 46.0715C1.60571 46.439 1.83414 46.7607 2.16702 46.8778C3.14401 47.2156 4.10887 47.4163 5.111 47.5791C5.61423 47.6544 6.11703 47.7002 6.62806 47.7211C6.88163 47.7337 7.13953 47.7376 7.39743 47.742L8.13343 47.7541C9.11475 47.7755 10.1 47.7794 11.0813 47.7668C11.7636 47.7581 11.9088 47.7581 12.5949 47.7337L12.682 48.0302C11.5594 48.385 10.79 48.6192 9.65916 48.9365C8.77363 49.1869 7.93751 49.3497 7.06845 49.5291C6.20805 49.7254 5.31385 49.8804 4.44479 50.0593L4.42398 50.0685C4.36547 50.0806 4.30739 50.1015 4.25321 50.1224C3.90818 50.2687 3.70446 50.6444 3.78335 51.0245C3.854 51.3836 4.15351 51.6383 4.49854 51.6675C5.46339 51.7554 6.39487 51.7306 7.35106 51.6675C8.29901 51.6048 9.25952 51.3876 10.162 51.2208C11.0726 51.0497 12.4155 50.7324 13.3179 50.5404L13.3885 50.7698C13.014 50.9866 12.1992 51.4211 11.8251 51.63C11.4467 51.8386 11.0726 52.0271 10.6981 52.2151C10.3241 52.3941 9.94957 52.5739 9.57984 52.7619H9.57551C9.57161 52.7663 9.56727 52.7663 9.56337 52.7707C8.81091 53.159 8.0333 53.5347 7.2804 53.94L7.26783 53.9487C6.87686 54.1616 6.73166 54.6501 6.94361 55.0427C7.11439 55.3601 7.46722 55.519 7.80444 55.452C8.68997 55.2809 9.52956 55.0301 10.3822 54.7545C11.2261 54.4703 12.0453 54.078 12.8519 53.7228C13.0639 53.6309 13.9039 53.2674 14.1202 53.1716L14.2615 53.8438C14.1323 53.9356 13.6625 54.2656 13.6586 54.27L12.731 55.0763C12.1198 55.6278 11.5464 56.2247 11.0059 56.8594C10.715 57.206 10.7562 57.7158 11.0973 58.0079C11.3552 58.2295 11.7124 58.2587 11.9954 58.108C11.9998 58.108 12.0037 58.1041 12.008 58.1041L12.0119 58.0997C12.7561 57.711 13.4588 57.2765 14.1284 56.7967L14.835 56.3836C14.8393 56.3958 15.2259 58.7306 15.3256 59.6949C15.6416 62.7057 15.5501 66.172 15.8744 66.5773C16.1448 66.9155 16.6853 66.8402 17.1673 66.8533C17.134 66.7401 17.1175 66.6317 17.0928 66.5189C17.0928 66.5102 17.0967 66.4976 17.0928 66.4854C16.7478 64.8738 17.2259 63.6792 17.5206 63.1946C17.5249 63.1859 17.5249 63.1776 17.5293 63.1694C17.5336 63.1567 17.5626 63.0605 17.5626 63.0396C17.4543 61.1232 17.2012 58.0327 16.7686 55.6352C16.0824 51.8103 14.9308 45.6836 14.6022 43.9505C14.5814 43.846 14.6191 43.7542 14.6815 43.6876C14.7561 43.6249 14.8562 43.5913 14.9641 43.6166C16.1323 43.9131 18.0494 44.0885 19.2882 44.1682C20.2158 44.2309 22.4233 44.2265 24.702 43.5247C23.7375 45.809 23.1845 48.4315 23.1845 51.2173C23.1845 56.684 25.2966 61.5155 28.515 64.414C28.1323 64.4728 27.8497 64.5268 27.7708 64.5559C26.9433 64.8485 26.2944 65.266 25.9286 65.4789C25.9199 65.4828 25.9117 65.4911 25.9078 65.4998C25.8831 65.5085 25.8536 65.5207 25.8328 65.5333C25.708 65.6043 25.6998 65.7458 25.7288 65.8877C25.8164 66.2804 26.0326 66.7732 26.2485 67.0657C26.294 67.1323 26.34 67.195 26.4188 67.1994C29.4291 67.3496 31.641 67.5794 33.4125 68.707C33.4208 68.7113 33.429 68.7157 33.4377 68.7235C33.4832 68.7527 33.5291 68.7901 33.579 68.8237C34.4151 69.4837 34.7519 70.8532 34.0696 71.8302C33.8325 72.0727 33.5915 72.3108 33.3462 72.5315C32.5231 73.2459 31.6293 73.8558 30.6896 74.3108C29.7499 74.7705 28.7686 75.0544 27.7747 75.2006C26.7725 75.3844 25.7704 75.518 24.4653 75.8267L24.4566 75.831C24.415 75.8393 24.3738 75.8602 24.3405 75.885C24.2321 75.956 24.174 76.0857 24.2031 76.2194C24.22 76.2738 24.2447 76.3238 24.2824 76.3656C25.2429 77.4057 26.6607 77.8145 28.0243 77.7396C29.0598 77.6599 30.0659 77.3595 30.9809 76.9207C31.2882 76.7705 31.5881 76.6077 31.8751 76.4322C33.0142 75.7265 33.9916 74.8036 34.7315 73.7218C34.7484 73.6965 34.7605 73.6761 34.777 73.6508C34.7731 73.6634 34.7688 73.676 34.7688 73.6882C34.598 74.2733 34.041 75.8145 33.5963 76.3278C33.1473 76.8493 32.7355 77.3469 32.2574 77.7392C31.8998 78.0313 31.5296 78.2777 31.114 78.491C30.9765 78.5576 30.8352 78.6203 30.6896 78.6791C30.091 78.9294 29.4005 79.0922 28.59 79.2681H28.5813C28.5397 79.2807 28.5024 79.2973 28.4734 79.3182C28.3694 79.3848 28.3069 79.5062 28.336 79.6355C28.3529 79.7108 28.3945 79.7731 28.4526 79.8153C29.1721 80.329 30.0823 80.5711 31.0264 80.5127C31.5045 80.484 31.9787 80.3708 32.4316 80.1828C32.8763 80.0034 33.2968 79.7483 33.6626 79.4435C33.7875 79.3438 33.8828 79.2307 33.9951 79.1179C34.2031 79.5311 34.4233 79.949 34.5815 80.3621C34.7935 80.8554 34.9599 81.3517 35.2304 81.8449C35.2885 81.9577 35.4259 82.0077 35.4757 81.999C35.4757 82.0077 35.6877 81.9572 35.7501 81.8449C36.0206 81.3517 36.2113 80.8554 36.4198 80.3621C36.5819 79.949 36.8025 79.5311 37.0097 79.1179C37.1181 79.2307 37.2178 79.3438 37.3383 79.4435C37.7084 79.7483 38.1284 80.0034 38.5736 80.1828C39.0226 80.3708 39.5012 80.4836 39.9745 80.5127C40.9185 80.5715 41.8288 80.329 42.5483 79.8153C42.6064 79.7731 42.6519 79.7108 42.6684 79.6355C42.6939 79.5062 42.6354 79.3852 42.5318 79.3182C42.4984 79.2973 42.4607 79.2807 42.4191 79.2681H42.4148C41.6042 79.0927 40.9138 78.9298 40.3108 78.6791C40.1652 78.6203 40.0239 78.558 39.8908 78.491C39.4747 78.2781 39.1011 78.0313 38.7435 77.7392C38.2693 77.3469 37.858 76.8493 37.4046 76.3278C36.9599 75.814 36.4024 74.2729 36.2364 73.6882C36.2321 73.676 36.2278 73.6634 36.2278 73.6508C36.2399 73.6761 36.2568 73.6965 36.2694 73.7218C37.0093 74.8032 37.991 75.7261 39.1301 76.4322C39.4171 76.6077 39.7127 76.7705 40.02 76.9207C40.9389 77.3595 41.941 77.6599 42.9765 77.7396C44.3441 77.8145 45.7623 77.4052 46.7228 76.3656C46.7562 76.3238 46.7852 76.2738 46.7978 76.2194C46.8308 76.0857 46.7688 75.9564 46.6604 75.885C46.6275 75.8602 46.5898 75.8393 46.5438 75.831L46.5399 75.8267C45.2305 75.5176 44.2322 75.3839 43.2301 75.2006C42.2362 75.0544 41.251 74.7705 40.3113 74.3108C39.3716 73.8558 38.4778 73.2459 37.6542 72.5315C37.4128 72.3104 37.1679 72.0722 36.9352 71.8302C36.249 70.8532 36.5858 69.4832 37.4258 68.8237C37.4713 68.7901 37.5173 68.7527 37.5671 68.7235C37.5758 68.7153 37.5836 68.7113 37.5923 68.707C39.3633 67.5794 41.5752 67.3496 44.5816 67.1994C44.6609 67.195 44.7064 67.1328 44.7563 67.0657C44.9682 66.7732 45.1845 66.2804 45.2716 65.8877C45.3007 65.7458 45.2924 65.6043 45.1676 65.5333C45.1468 65.5207 45.1178 65.5081 45.0926 65.4998C45.0844 65.4911 45.0762 65.4828 45.0675 65.4789C44.7017 65.266 44.0489 64.8485 43.2171 64.5559C43.1421 64.5268 42.8677 64.4763 42.5102 64.4184C45.7328 61.5246 47.8489 56.6884 47.8489 51.2178C47.8489 48.4324 47.2963 45.8181 46.331 43.5295C48.5975 44.223 50.7886 44.2309 51.7114 44.1686C52.9502 44.0889 54.8716 43.9135 56.0398 43.617C56.1434 43.5918 56.2474 43.6257 56.3185 43.688C56.3848 43.7546 56.4182 43.8465 56.4013 43.9509C56.0727 45.6836 54.9172 51.8107 54.231 55.6357C53.8028 58.0331 53.5449 61.1232 53.4413 63.0401C53.4413 63.061 53.4664 63.1572 53.4742 63.1698C53.4785 63.1781 53.4742 63.1864 53.4785 63.1951C53.7776 63.6792 54.2518 64.8738 53.9068 66.4858C53.9068 66.498 53.9111 66.5111 53.9068 66.5194C53.8816 66.6321 53.8695 66.7405 53.8361 66.8537C54.3181 66.8411 54.8547 66.9164 55.1252 66.5777C55.4494 66.1724 55.3623 62.7062 55.6779 59.6953C55.7775 58.7306 56.1646 56.3962 56.1646 56.384L56.8711 56.7972C57.5408 57.2774 58.2478 57.7119 58.9881 58.1002L58.9963 58.1045C59.0007 58.1045 59.0007 58.1085 59.005 58.1085C59.2915 58.2591 59.6491 58.2295 59.907 58.0083C60.2477 57.7162 60.2854 57.2064 59.9941 56.8599C59.454 56.2251 58.8841 55.6283 58.2729 55.0767L57.3414 54.2704C57.3414 54.2661 56.8716 53.9361 56.7385 53.8442L56.8841 53.172C57.0961 53.2678 57.9404 53.6313 58.1524 53.7232C58.9552 54.0784 59.7739 54.4707 60.6222 54.755C61.4704 55.0305 62.3144 55.2813 63.1999 55.4524C63.5367 55.519 63.886 55.3605 64.0564 55.0432C64.2683 54.6509 64.1231 54.1625 63.7322 53.9491L63.72 53.9404C62.971 53.5351 62.1939 53.1594 61.4414 52.7711C61.4371 52.7667 61.4327 52.7667 61.4249 52.7624C61.0504 52.5743 60.6759 52.3945 60.3062 52.2156C59.9278 52.0275 59.5537 51.8394 59.1792 51.6305C58.8008 51.4219 57.9903 50.987 57.6119 50.7702L57.6869 50.5408C58.5893 50.7324 59.9278 51.0502 60.8385 51.2213C61.7448 51.3884 62.7053 51.6057 63.6533 51.6679C64.6051 51.731 65.5366 51.7559 66.5054 51.6679C66.8504 51.6392 67.146 51.3845 67.2201 51.0249C67.2994 50.6449 67.0914 50.2691 66.7464 50.1229C66.6922 50.102 66.638 50.0811 66.5799 50.0689L66.5548 50.0597C65.69 49.8808 64.7959 49.7258 63.9311 49.5295C63.0621 49.3501 62.2259 49.1873 61.3447 48.937C60.2095 48.6196 59.4445 48.3854 58.318 48.0306L58.4094 47.7341C59.0913 47.7589 59.2412 47.7589 59.9187 47.7672C60.9035 47.7794 61.8853 47.7759 62.8709 47.7546L63.6069 47.7424C63.8605 47.738 64.1184 47.7341 64.3719 47.7215C64.8834 47.7006 65.391 47.6549 65.8894 47.5796C66.8916 47.4167 67.8603 47.2161 68.8377 46.8782C69.1663 46.7611 69.3947 46.4394 69.3783 46.072C69.3614 45.7881 69.1992 45.55 68.9747 45.4163C68.8417 45.3367 68.6834 45.2953 68.517 45.3031H68.4841C67.5652 45.3532 66.6133 45.4202 65.6857 45.4329L64.3013 45.4581L63.6195 45.4455C63.3741 45.4372 63.1375 45.4289 62.9 45.4124C61.9481 45.3493 60.9958 45.2705 60.0435 45.1786C59.4536 45.1155 58.8589 45.0489 58.2725 44.9779C59.2412 44.8778 60.1432 44.7441 61.0708 44.5896C62.1015 44.4142 63.1206 44.2139 64.1392 43.9923C65.1495 43.7838 66.247 43.5413 67.2327 43.1612C68.2348 42.769 69.1871 42.3471 70.1225 41.7664C70.4211 41.5787 70.5711 41.2069 70.4671 40.8521ZM35.516 65.4828C35.5035 65.4828 35.4909 65.4789 35.4744 65.4789C31.8985 65.4623 28.7387 63.0483 26.8259 59.3736C27.7157 57.8655 29.5579 54.5708 29.5579 54.5708C29.7325 55.2478 30.7594 59.7118 30.7594 59.7118C30.7594 59.7118 29.4582 60.2756 30.1149 60.6809C30.7715 61.0819 32.169 60.7854 32.169 60.7854C32.169 60.7854 32.5222 61.1067 32.905 61.3744C33.3622 61.721 33.8737 61.9756 34.4311 62.1263C34.6431 62.2055 34.7844 62.256 34.7844 62.256C34.7844 62.256 34.6556 62.8738 34.855 63.1955C34.93 63.3204 35.0046 63.4293 35.2542 63.4293C35.3249 63.4293 35.3999 63.4123 35.4705 63.3875C35.6868 63.3039 35.8944 63.1324 36.0149 63.0113C36.314 62.6983 36.4219 62.4767 36.6469 62.1763C36.6348 62.1637 36.6469 62.1428 36.6677 62.1219C37.2004 61.9756 37.7609 61.7797 38.2936 61.1115C36.9963 60.6017 35.8944 59.4119 35.4705 57.4406C35.3167 56.7223 35.2291 55.9413 35.2209 55.1141C35.2122 54.2539 35.2833 53.3479 35.4536 52.4167C35.4575 52.3832 35.4658 52.3536 35.4705 52.3205C36.0817 49.0968 38.0773 46.6327 38.6555 46.4194C38.4765 46.0101 38.5515 44.9579 37.1545 44.3776C36.8506 44.2522 35.9152 44.1939 35.8277 43.7637C36.2685 43.4634 36.6053 42.8991 36.6846 42.2187C36.7969 41.3079 36.4141 40.4895 35.803 40.1974C35.9525 39.863 36.3101 39.4037 36.3101 39.4037L35.6118 38.6519L35.4705 38.7272L34.7098 39.1364C34.7098 39.1364 34.9383 39.7921 34.9383 40.1469C34.3353 40.3515 33.8906 40.8234 33.7866 41.6715C33.7367 42.0846 33.9613 42.7281 34.4311 43.2C34.6847 43.4546 34.7345 43.6719 34.5768 43.826C34.2356 44.1725 33.5205 44.0889 33.1546 44.624C32.9262 44.9618 32.6475 45.7428 32.6475 45.7428C32.4728 46.0937 31.4624 48.5325 30.9635 49.3928C30.8387 49.6057 30.3359 50.4032 30.3359 50.4032C30.3359 50.4032 30.1157 50.5578 29.87 50.758C29.6706 50.9165 29.4543 51.1089 29.3212 51.2844C28.9346 51.7728 29.0928 52.6583 29.3255 53.0301L26.3777 58.438C26.2654 58.192 26.2069 58.054 26.2069 58.054C25.3794 56.0244 24.9096 53.694 24.9096 51.2178C24.9096 43.6423 29.3255 37.4281 34.8802 36.9854H36.1688C36.78 37.0354 37.379 37.1569 37.9568 37.3402C38.2645 37.4403 38.5597 37.5531 38.8549 37.6828C43.0749 39.5661 46.1268 44.92 46.1268 51.2178C46.1268 59.0849 41.3702 65.4828 35.516 65.4828ZM34.4264 50.0354C34.4264 50.0354 32.3597 50.8203 31.3745 51.2173L33.3869 47.7132C33.3952 47.7302 33.4827 48.2065 34.3015 48.5486C34.2768 48.6784 34.4264 50.0354 34.4264 50.0354Z" fill="white"/>
<path d="M18.2174 52.8612H17.5313V52.3096H18.8698V54.9739H18.2174V52.8612Z" fill="white"/>
<path d="M19.8013 55.684L21.2316 52.8987H19.6599V52.3096H21.8887V52.7694L20.3669 55.876L19.8013 55.684Z" fill="white"/>
<path d="M48.403 54.4982C48.7398 54.2387 49.7459 53.6336 49.7459 53.2701C49.7459 52.9823 49.5422 52.8983 49.2556 52.8983C49.0103 52.8983 48.7481 52.9901 48.6276 53.0402L48.4698 52.5848C48.599 52.5017 48.9518 52.3802 49.2803 52.3802C50.1412 52.3802 50.357 52.8234 50.357 53.2487C50.357 53.8208 49.592 54.2888 49.1928 54.506H50.4858V55.0154H48.4026L48.403 54.4982Z" fill="white"/>
<path d="M52.2244 55.0157H50.7896V54.502L51.9413 52.4515H52.8481V54.502H53.3344V55.0157H52.8481V55.9138H52.2244V55.0157ZM52.2244 54.502V53.1115L51.4424 54.502H52.2244Z" fill="white"/>
</svg>
