<svg width="51" height="12" viewBox="0 0 51 12" fill="none" xmlns="http://www.w3.org/2000/svg">
<path d="M23.0002 2.9V0L20.3002 0.400002V2.9H19.2002V5.3H20.3002C20.3002 7.1 20.3002 10.5 20.3002 11.8H23.0002V5.3H25.0002V2.9H23.0002Z" fill="#492984"/>
<path d="M8.10001 7.2C8.90001 6.5 9.5 5.6 9.5 4.5V4C9.5 2 7.89999 0.5 5.79999 0.5H0V11.8H2.69998V7.9H5.5L7.29999 11.8H10.5L8.10001 7.2ZM6.60001 4.4C6.60001 5.2 5.90001 5.7 5.10001 5.7H2.60001V3H5.10001C6.00001 2.9 6.60001 3.5 6.60001 4.4Z" fill="#492984"/>
<path d="M38.6999 2.9H37.2999V0L34.5999 0.400002V11.9H38.6999C40.6999 11.9 42.3999 10.3 42.3999 8.3V6.6C42.3999 4.5 40.6999 2.9 38.6999 2.9ZM39.7999 7.99999C39.7999 8.89999 39.1999 9.4 38.3999 9.4H37.2999V5.3H38.3999C39.2999 5.3 39.7999 5.8 39.7999 6.7V7.99999Z" fill="#492984"/>
<path d="M30.7999 2.89999V8.09999C30.7999 8.99999 30.4999 9.49998 29.5999 9.49998C28.6999 9.49998 28.3999 8.89999 28.3999 8.09999V2.89999H25.6999V8.29999C25.6999 10.3 26.5999 12 29.2999 12H29.7999C32.5999 12 33.4999 10.4 33.4999 8.29999V2.89999H30.7999Z" fill="#492984"/>
<path d="M15.6 2.89999V8.09999C15.6 8.99999 15.3 9.49998 14.4 9.49998C13.5 9.49998 13.2 8.89999 13.2 8.09999V2.89999H10.5V8.29999C10.5 10.3 11.4 12 14.1 12H14.6C17.4 12 18.3 10.4 18.3 8.29999V2.89999H15.6Z" fill="#492984"/>
<path d="M49.1999 8.79999C49.1999 8.79999 48.3999 9.8 46.9999 9.7C46.0999 9.6 45.5999 9.19999 45.5999 8.29999V7.99998H50.8999V6.49999C50.8999 4.49999 49.4999 2.79999 46.9999 2.79999C44.4999 2.79999 43.0999 4.39999 43.0999 6.39999V8.29999C43.0999 10.3 44.4999 12 46.9999 12C49.7999 12 50.9999 10.1 50.9999 10.1L49.1999 8.79999ZM45.6999 5.99999C45.6999 5.19999 46.1999 4.69999 46.9999 4.59999H47.0999C47.8999 4.59999 48.4999 5.09999 48.4999 5.99999V6.09999L45.6999 5.99999Z" fill="#492984"/>
</svg>
