<svg width="26" height="26" viewBox="0 0 26 26" fill="none" xmlns="http://www.w3.org/2000/svg">
<path d="M10.2012 18.9998C14.7012 22.1998 20.9012 21.0998 24.0012 16.5998C27.2012 12.0998 26.1012 5.89983 21.6012 2.79983C17.1012 -0.400168 10.9012 0.699826 7.80117 5.19983C6.60117 6.89983 6.00117 8.89983 6.00117 10.8998C6.00117 12.9998 6.70117 14.9998 7.80117 16.6998L1.40117 23.1998C0.801172 23.7998 0.801172 24.8998 1.40117 25.4998C2.00117 26.0998 3.10117 26.0998 3.70117 25.4998L10.2012 18.9998ZM16.0012 18.4998C11.8012 18.4998 8.40117 15.0998 8.40117 10.8998C8.40117 6.69983 11.8012 3.29983 16.0012 3.29983C20.2012 3.29983 23.6012 6.69983 23.6012 10.8998C23.6012 15.0998 20.2012 18.4998 16.0012 18.4998Z" fill="white"/>
</svg>
