<svg width="25" height="21" viewBox="0 0 25 21" fill="none" xmlns="http://www.w3.org/2000/svg">
<path opacity="0.4" d="M14.3338 3.7C14.5338 3.6 17.5338 2.4 18.5338 2C19.4338 1.6 20.4338 1.2 21.3338 0.800003C21.3338 0.800003 21.4338 0.800005 21.4338 0.700005C21.8338 0.600005 22.2338 0.400005 22.5338 0.200005C22.9338 4.57466e-06 23.3338 0 23.7338 0C24.3338 0 24.7338 0.600003 24.7338 1.3C24.7338 1.8 22.3338 17.2 22.0338 18.7C22.0338 18.8 21.8338 19.5 21.7338 19.6C21.4338 20.3 20.8338 20.5 20.1338 20.4C19.3338 20.2 18.6338 19.9 17.9338 19.4C16.7338 18.6 15.5338 17.8 14.3338 17C13.3338 16.3 12.3338 15.6 11.3338 14.8C10.9338 14.4 10.7338 14 10.8338 13.4C10.9338 13 11.2338 12.7 11.5338 12.5C11.7338 12.3 17.7338 6.60001 18.1338 6.10001C18.3338 5.90001 18.4338 5.7 18.5338 5.4C18.6338 5.2 18.5338 5.10001 18.2338 5.10001C17.9338 5.20001 17.6338 5.3 17.4338 5.4C16.9338 5.7 11.6338 9.3 9.93382 10.4C9.43382 10.7 8.93382 11.1 8.43382 11.4C8.23382 11.6 7.93382 11.7 7.73382 11.8C6.73382 12.4 5.73382 12.3 4.63382 12C3.33382 11.6 2.03382 11.2 0.733823 10.8C0.333823 10.7 0.133826 10.5 0.033826 10.1C-0.066174 9.70001 0.13382 9.5 0.43382 9.3C1.63382 8.6 3.03381 8.20001 4.33381 7.60001C5.83381 7.20001 14.2338 3.7 14.3338 3.7Z" fill="black"/>
</svg>
