<svg width="41" height="12" viewBox="0 0 41 12" fill="none" xmlns="http://www.w3.org/2000/svg">
<g opacity="0.4">
<path d="M11.9373 0H12.0757C12.3605 0.0164016 12.5937 0.141236 12.7754 0.374503C12.8704 0.496604 12.9412 0.624453 12.9878 0.758049C13.0077 0.815384 13.0194 0.882813 13.0228 0.960335C13.0276 1.06968 13.0275 1.13858 13.0226 1.16704C12.9845 1.38615 12.9025 1.58612 12.7768 1.76696C12.617 1.99672 12.4225 2.18947 12.1932 2.34522C11.9491 2.51092 11.6674 2.6075 11.348 2.63498C11.0894 2.65727 10.8485 2.62867 10.6253 2.54919C10.51 2.50825 10.4148 2.45253 10.3398 2.38202C10.2001 2.25095 10.1154 2.08581 10.0858 1.88661C10.0731 1.80137 10.0649 1.73535 10.0614 1.68852C10.0563 1.62418 10.0594 1.55724 10.0706 1.48771C10.1085 1.25136 10.2054 1.03891 10.3615 0.85036C10.5039 0.678213 10.6566 0.53165 10.8197 0.410671C11.1527 0.163806 11.5253 0.0269155 11.9373 0Z" fill="black"/>
<path d="M7.80025 3.75955L7.913 3.77364C8.52691 3.81738 8.91285 4.14092 9.07084 4.74428C9.11198 4.90128 9.13603 5.0161 9.143 5.08871C9.1538 5.2003 9.16138 5.27165 9.16576 5.30277C9.16671 5.30992 9.16972 5.31111 9.17478 5.30635C9.56059 4.93556 9.88011 4.6444 10.1334 4.43286C10.3105 4.2851 10.4706 4.16728 10.6139 4.07938C10.7702 3.9835 10.9103 3.92216 11.0341 3.89539C11.0938 3.88249 11.1912 3.87843 11.3263 3.88319C11.5338 3.89048 11.7153 3.953 11.8705 4.07076C11.9725 4.14786 12.0612 4.25286 12.1368 4.38576C12.2248 4.54038 12.2846 4.70804 12.3162 4.88874C12.3515 5.09088 12.3568 5.29226 12.3322 5.49286C12.3288 5.52062 12.3036 5.65842 12.2567 5.90627C12.1052 6.70714 11.9573 7.56311 11.8131 8.47417C11.7954 8.5866 11.7809 8.68459 11.7697 8.76814C11.7548 8.8793 11.7512 8.97799 11.759 9.06421C11.7653 9.13262 11.7754 9.20054 11.7893 9.26797C11.8051 9.34311 11.8266 9.40773 11.8539 9.46184C11.9643 9.67955 12.142 9.78357 12.3869 9.77389C12.4572 9.77109 12.53 9.75286 12.6055 9.71922C12.7026 9.67576 12.7953 9.62333 12.8836 9.56193C13.059 9.43997 13.2274 9.30876 13.389 9.16829C13.4157 9.14502 13.4327 9.12035 13.4398 9.09428C13.4454 9.07395 13.4485 9.05306 13.449 9.03162C13.4498 9.00049 13.451 8.97954 13.4525 8.96874C13.5262 8.46688 13.6028 7.96551 13.6825 7.46463C13.6947 7.38795 13.7039 7.31092 13.7102 7.23354C13.7291 7.16471 13.7371 7.09461 13.7342 7.02326C13.7498 6.95583 13.7554 6.88756 13.7512 6.81845C13.7508 6.81172 13.752 6.80499 13.7549 6.79826C13.7614 6.7834 13.7651 6.76903 13.7657 6.75516C13.7696 6.68072 13.7735 6.57936 13.7776 6.4511C13.7811 6.34708 13.7731 6.27425 13.7539 6.23262C13.7125 6.14276 13.6298 6.11935 13.5058 6.16238C13.4753 6.17304 13.4464 6.18699 13.4189 6.20423C13.2422 6.31596 13.0701 6.43448 12.9027 6.55981C12.9004 6.56154 12.8976 6.56232 12.8948 6.56201C12.8921 6.5617 12.8895 6.56031 12.8877 6.55813L12.4084 5.9929C12.4068 5.98253 12.4099 5.97405 12.4179 5.96746C12.8158 5.59933 13.2073 5.22406 13.5923 4.84164L13.6819 4.75731C13.7912 4.65778 13.8998 4.55832 14.0077 4.45893C14.1801 4.29982 14.363 4.15445 14.5562 4.02282C14.5737 4.0109 14.6255 3.98385 14.7114 3.94165C14.8236 3.88642 14.9422 3.86953 15.0673 3.89097C15.3443 3.93864 15.5609 4.08113 15.7171 4.31847C15.9649 4.69514 16.0781 5.12186 16.0566 5.59863C16.0507 5.73013 16.0431 5.82202 16.0337 5.87431C16.0332 5.87698 16.0332 5.8796 16.0337 5.88178C16.0342 5.88397 16.0352 5.88562 16.0365 5.8865C16.0395 5.88846 16.0426 5.88699 16.0458 5.88209C16.2322 5.60032 16.4479 5.34462 16.6929 5.115L16.7741 5.04224C17.235 4.62337 17.7647 4.33802 18.3633 4.1862C18.616 4.12214 18.8789 4.09004 19.1521 4.0899C19.3476 4.08976 19.5346 4.11919 19.7132 4.17821C19.8538 4.22475 19.9753 4.28749 20.0775 4.36641C20.2206 4.47702 20.3352 4.61664 20.4213 4.78528C20.518 4.97481 20.5798 5.17591 20.6066 5.38857C20.6282 5.56085 20.6402 5.74113 20.6425 5.9294C20.6426 5.93655 20.6453 5.93781 20.6507 5.93318C20.8498 5.75795 21.0305 5.57459 21.1927 5.3831L21.2688 5.29983C21.471 5.08226 21.6902 4.88453 21.9262 4.70664C22.3254 4.40566 22.7657 4.21235 23.247 4.12669C23.442 4.09207 23.6406 4.08141 23.8427 4.09473C23.9935 4.10468 24.1279 4.12789 24.246 4.16433C24.6322 4.28335 24.9048 4.53253 25.0637 4.91187C25.1129 5.0292 25.1512 5.16343 25.1785 5.31455C25.2216 5.55286 25.2303 5.79125 25.2048 6.0297C25.2016 6.059 25.1998 6.08472 25.1992 6.10687C25.1981 6.14556 25.1969 6.17115 25.1955 6.18362C25.1578 6.53871 25.1075 6.86198 25.0446 7.15342C24.9792 7.45622 24.9145 7.75923 24.8507 8.06245C24.8504 8.06385 24.8319 8.14803 24.7952 8.31499C24.7497 8.52036 24.7145 8.72777 24.6898 8.9372C24.6713 9.09337 24.6743 9.25928 24.6986 9.43493C24.7086 9.5067 24.7326 9.5681 24.7706 9.61913C24.8051 9.66553 24.8556 9.70212 24.9219 9.72889C24.9898 9.75637 25.0608 9.7713 25.1348 9.77368C25.1968 9.77564 25.2399 9.77635 25.2644 9.77579C25.3105 9.7748 25.3534 9.76632 25.3931 9.75034C25.5171 9.7003 25.6384 9.63196 25.757 9.54532C25.7677 9.53747 25.7695 9.52913 25.7626 9.5203C25.7643 9.51806 25.7636 9.51329 25.7605 9.506C25.7688 9.50165 25.7712 9.49507 25.7677 9.48623C25.7645 9.47824 25.7628 9.4725 25.7626 9.46899C25.6864 8.62368 25.8435 7.82554 26.2336 7.07457C26.3294 6.88994 26.4209 6.73111 26.5081 6.59808C26.8694 6.04659 27.3014 5.56155 27.8044 5.14296C28.8064 4.309 29.9591 3.91768 31.2625 3.96899C31.3542 3.97263 31.4955 3.99107 31.6862 4.02429C31.8661 4.05569 32.0399 4.10791 32.2078 4.18095C32.5065 4.3109 32.7343 4.50701 32.891 4.7693C33.0239 4.99177 33.1074 5.23261 33.1417 5.49181C33.1655 5.67167 33.1695 5.8422 33.1536 6.00342C33.1521 6.0187 33.1515 6.03159 33.1518 6.04211C33.1522 6.05949 33.1516 6.07218 33.1499 6.08017C33.0658 6.5024 32.903 6.87284 32.6616 7.19148C32.1646 7.84769 31.5752 8.36812 30.8935 8.75279C30.2114 9.13774 29.4864 9.39336 28.7187 9.51967C28.6957 9.52345 28.6916 9.5346 28.7064 9.5531C28.9709 9.88155 29.3071 10.0476 29.7148 10.0512C30.0605 10.0543 30.3595 10.0384 30.6116 10.0033C31.1032 9.9349 31.5843 9.81994 32.0548 9.65845C32.4316 9.52906 32.8056 9.38004 33.1768 9.2114C33.1796 9.21017 33.1819 9.20806 33.1835 9.20538C33.185 9.20269 33.1857 9.19958 33.1854 9.19647C33.1683 8.99391 33.1609 8.79344 33.1631 8.59508C33.1647 8.44915 33.1741 8.30938 33.1913 8.17579C33.2798 7.48972 33.5146 6.85812 33.8959 6.28098C34.201 5.81949 34.5571 5.40567 34.9642 5.03951C35.0717 4.94278 35.1784 4.85523 35.2842 4.77687C36.0195 4.23253 36.8536 3.92644 37.7866 3.85859C38.0772 3.83742 38.342 3.84065 38.581 3.86826L38.663 3.87878C39.0998 3.93401 39.4978 4.09053 39.8571 4.34833C39.9886 4.45571 40.1113 4.57283 40.2253 4.6997C40.5361 5.05773 40.7512 5.46644 40.8706 5.92582C40.9513 6.23605 40.9944 6.55673 41 6.88784V7.05081C40.9844 8.34093 40.5707 9.47074 39.7589 10.4403L39.7085 10.5025C39.342 10.9308 38.9298 11.2723 38.4721 11.5272C38.0829 11.7439 37.6705 11.8947 37.235 11.9795C37.1988 11.9865 37.1623 11.99 37.1255 11.99C36.6302 11.9907 36.135 11.9911 35.6399 11.9911C35.5625 11.9911 35.4911 11.9834 35.4256 11.9681C34.5722 11.7698 33.9413 11.2647 33.5331 10.4529C33.5322 10.4511 33.531 10.4496 33.5295 10.4483C33.528 10.4471 33.5263 10.4462 33.5245 10.4456C33.5226 10.4451 33.5207 10.4449 33.5188 10.4451C33.5169 10.4454 33.5151 10.446 33.5134 10.447C33.2454 10.6081 32.9751 10.7652 32.7026 10.9184C31.7216 11.4699 30.6777 11.8199 29.5708 11.9683C29.4577 11.9835 29.3346 11.9911 29.2016 11.9911C28.8758 11.9911 28.5499 11.9911 28.224 11.9911C28.1066 11.9911 28.0043 11.9829 27.9171 11.9667C27.7045 11.927 27.4979 11.8643 27.2974 11.7787C26.9082 11.6126 26.5875 11.3562 26.3355 11.0097C26.2706 10.9203 26.2087 10.8232 26.1498 10.7185C26.1485 10.7162 26.1468 10.7143 26.1447 10.7128C26.1426 10.7113 26.1402 10.7104 26.1377 10.71C26.1352 10.7096 26.1326 10.7097 26.1302 10.7105C26.1277 10.7112 26.1255 10.7125 26.1236 10.7143C25.9601 10.8669 25.7875 11.0097 25.6057 11.1426C25.4837 11.2319 25.3702 11.31 25.2652 11.3768C24.8924 11.6142 24.4912 11.7872 24.0617 11.8958C23.7698 11.9697 23.4755 11.9952 23.1789 11.9723C23.021 11.9601 22.8872 11.934 22.7778 11.8939C22.5022 11.793 22.3035 11.6067 22.1814 11.3352C22.1318 11.2249 22.0943 11.0906 22.0689 10.9325C22.029 10.6857 22.0236 10.4287 22.0529 10.1616C22.0954 9.77403 22.1518 9.4296 22.2222 9.12834C22.3068 8.76624 22.3853 8.40275 22.4578 8.03785C22.4848 7.90187 22.509 7.72839 22.5303 7.51741L22.5389 7.42279C22.5612 7.23157 22.551 7.04303 22.5084 6.85714C22.4977 6.81046 22.4851 6.77149 22.4705 6.74023C22.4528 6.7028 22.4313 6.66761 22.4059 6.63467C22.3426 6.55266 22.2636 6.50465 22.1689 6.49063C22.1156 6.48278 22.0587 6.48299 21.9981 6.49126C21.9409 6.49925 21.8859 6.51726 21.8333 6.5453C21.7602 6.58427 21.6988 6.62485 21.6492 6.66705C21.5172 6.77962 21.3939 6.91385 21.2792 7.06973C20.889 7.60019 20.5733 8.17389 20.3319 8.79085C20.1413 9.27855 20.0189 9.783 19.965 10.3042C19.9561 10.3901 19.9516 10.4881 19.9516 10.598C19.9516 10.6961 19.9516 10.7943 19.9516 10.8926C19.9516 11.0677 19.9584 11.2074 19.9719 11.3116C19.9987 11.5174 20.045 11.7191 20.1109 11.9166C20.1113 11.9178 20.1114 11.919 20.1113 11.9202C20.1111 11.9214 20.1107 11.9226 20.11 11.9235C20.1094 11.9245 20.1085 11.9253 20.1075 11.9259C20.1064 11.9264 20.1053 11.9267 20.1041 11.9267C19.9747 11.9267 19.8453 11.9271 19.7159 11.928C19.6392 11.9285 19.5353 11.9212 19.4041 11.9059C19.2667 11.8898 19.1637 11.876 19.0949 11.8645C18.8206 11.8185 18.5719 11.7323 18.3487 11.606C18.0512 11.4375 17.8498 11.1775 17.7444 10.8259C17.6893 10.6423 17.6563 10.4664 17.6454 10.2983C17.6234 9.95852 17.6393 9.60686 17.6931 9.24336C17.7354 8.95893 17.7917 8.67737 17.8621 8.39868C17.9102 8.20789 17.9541 7.99299 17.9939 7.75397C18.022 7.58449 18.0367 7.41865 18.0377 7.25646C18.0387 7.10562 18.0359 7.0063 18.0293 6.95849C18.0149 6.85364 17.9774 6.75957 17.917 6.6763C17.8477 6.58084 17.7561 6.52147 17.6423 6.4982C17.5727 6.48404 17.5029 6.48039 17.4328 6.48726C17.3602 6.49441 17.2923 6.5167 17.229 6.55413C17.1488 6.60151 17.074 6.65892 17.0045 6.72635C16.9511 6.77836 16.8908 6.85076 16.8235 6.94356C16.6523 7.17978 16.4957 7.44641 16.3539 7.74346C16.0005 8.48349 15.7922 9.251 15.729 10.046C15.692 10.5128 15.7003 10.9787 15.7538 11.4437C15.7704 11.5867 15.8011 11.741 15.8459 11.9065C15.8464 11.9086 15.8465 11.9107 15.8462 11.9129C15.8458 11.915 15.845 11.917 15.8438 11.9187C15.8425 11.9204 15.841 11.9219 15.8391 11.9229C15.8373 11.9239 15.8353 11.9245 15.8332 11.9246C15.7154 11.9315 15.5963 11.9318 15.4761 11.9257C15.3486 11.9193 15.2301 11.909 15.1206 11.8945C14.8231 11.8554 14.5444 11.7698 14.2846 11.6376C14.1022 11.5448 13.9453 11.4172 13.8139 11.2549C13.7388 11.1621 13.6717 11.0508 13.6128 10.9212C13.5605 10.8059 13.5146 10.6832 13.4751 10.553C13.4745 10.5512 13.4736 10.5496 13.4723 10.5483C13.471 10.547 13.4694 10.546 13.4677 10.5454C13.466 10.5449 13.4641 10.5447 13.4623 10.5451C13.4606 10.5454 13.4589 10.5462 13.4574 10.5473C13.3823 10.6087 13.3074 10.6727 13.233 10.7393C13.1171 10.8426 13.0432 10.9074 13.0114 10.9336C12.796 11.1113 12.5694 11.2732 12.3318 11.4191C11.9528 11.6518 11.5479 11.8174 11.1172 11.9158L11.029 11.9324C10.7801 11.9809 10.541 11.9952 10.3115 11.9753C9.93731 11.9429 9.64846 11.7799 9.44497 11.4862C9.37021 11.3782 9.31035 11.253 9.26539 11.1104C9.21509 10.9506 9.18625 10.7853 9.17887 10.6146C9.18817 10.569 9.18769 10.5229 9.17744 10.4762C9.17867 10.347 9.18803 10.2176 9.20552 10.0883C9.2606 9.67864 9.33802 9.27357 9.43779 8.87307C9.50394 8.60784 9.57302 8.34345 9.64505 8.0799C9.7511 7.69229 9.8536 7.30377 9.95255 6.91434C9.98056 6.80401 9.99594 6.72151 9.99867 6.66684C10.0029 6.58189 9.99478 6.49736 9.97428 6.41325C9.92303 6.20311 9.80016 6.10876 9.60569 6.13021C9.56564 6.13456 9.52389 6.15005 9.48043 6.17668C9.31725 6.2765 9.15865 6.38577 9.00463 6.50451C8.99701 6.5104 8.9913 6.51845 8.98823 6.52764C8.88887 6.82399 8.77134 7.10639 8.63562 7.37484C8.43322 7.77493 8.20806 8.16107 7.96015 8.53326C7.88799 8.64162 7.81562 8.74984 7.74305 8.85793L7.667 8.96748C7.43699 9.29579 7.16407 9.65922 6.84823 10.0578C6.4806 10.5218 6.08809 10.9356 5.67071 11.2992C5.41214 11.5247 5.12903 11.7105 4.8214 11.8567C4.66054 11.9331 4.5277 11.9779 4.42287 11.9911C4.3242 12.0034 4.16123 12.003 3.93395 11.9898C3.88858 11.9871 3.84737 11.977 3.81034 11.9593C3.58593 11.8523 3.4002 11.6881 3.25315 11.4666C3.06468 11.1829 2.91708 10.8881 2.81034 10.5822C2.78137 10.4988 2.74229 10.3646 2.69308 10.1795C2.47428 9.35425 2.25596 8.52877 2.03811 7.70308C1.99137 7.52575 1.95338 7.39117 1.92413 7.29935C1.86304 7.10702 1.79355 6.91777 1.71565 6.73161C1.64554 6.56437 1.55499 6.41493 1.44402 6.28329C1.39578 6.22624 1.33804 6.18159 1.2708 6.14935C1.22597 6.1279 1.1836 6.11914 1.1437 6.12306C1.09983 6.12741 1.05725 6.14227 1.01598 6.16764C0.803737 6.29843 0.61131 6.42909 0.4387 6.5596C0.436517 6.56131 0.433768 6.56206 0.431045 6.56171C0.428321 6.56136 0.425843 6.55992 0.424145 6.55771L0 6.00215V5.99164C0.210467 5.78781 0.423667 5.58714 0.6396 5.38962C0.737727 5.30004 0.83886 5.2057 0.943 5.10658C1.20157 4.8607 1.43008 4.65456 1.62852 4.48816C1.81521 4.33157 2.01228 4.19006 2.21974 4.06361C2.31336 4.00656 2.41155 3.96177 2.51432 3.92924C2.61778 3.89658 2.72308 3.8813 2.83023 3.8834C3.20196 3.89083 3.48712 4.06585 3.6857 4.40846C3.78505 4.57977 3.85953 4.75787 3.90915 4.94278C3.93265 5.03081 3.95465 5.12488 3.97516 5.22497C3.98978 5.2959 4.00618 5.39116 4.02435 5.51074C4.10854 6.06503 4.19922 6.6182 4.29639 7.17024C4.34778 7.46239 4.42069 7.79189 4.51513 8.15875C4.58264 8.42118 4.67824 8.65886 4.80192 8.8718C4.83513 8.92213 4.87449 8.9651 4.92 9.0007C5.00719 9.06911 5.09842 9.07325 5.19368 9.01311C5.26884 8.96559 5.33629 8.90839 5.39601 8.84152C5.49687 8.72882 5.59069 8.6105 5.67748 8.48658C5.73952 8.39798 5.81537 8.28135 5.90503 8.13668C6.07859 7.85659 6.23221 7.56514 6.36587 7.26234C6.42709 7.12356 6.47547 6.98022 6.511 6.83233C6.53246 6.74303 6.54169 6.6524 6.53868 6.56044C6.53704 6.50801 6.53588 6.45558 6.5352 6.40315C6.53424 6.33937 6.52802 6.2875 6.51654 6.24755C6.47253 6.09475 6.38609 5.98652 6.25722 5.92288C6.16401 5.87704 6.03848 5.85601 5.88063 5.8598C5.67344 5.8647 5.47015 5.91033 5.27075 5.99669C5.23713 6.01127 5.23078 6.00321 5.25169 5.97251C5.25975 5.96059 5.26823 5.9397 5.27711 5.90984C5.33219 5.72578 5.39751 5.54557 5.47309 5.36922C5.60361 5.06418 5.77567 4.78879 5.98928 4.54304C6.08659 4.43117 6.18533 4.33459 6.2855 4.25328C6.62157 3.98076 7.01373 3.82291 7.462 3.77974C7.60864 3.76558 7.72139 3.75885 7.80025 3.75955ZM36.007 10.0262C36.1267 10.173 36.2775 10.2491 36.4593 10.2546C36.7286 10.2624 36.9791 10.1973 37.2106 10.059C37.3803 9.95753 37.5317 9.8327 37.6649 9.68453C37.7792 9.55724 37.8903 9.40829 37.998 9.23769C38.3479 8.68368 38.5625 8.08551 38.6421 7.44318C38.6526 7.35809 38.6581 7.26017 38.6585 7.14943C38.659 6.99719 38.6588 6.89906 38.6579 6.85504C38.6515 6.53682 38.5828 6.23619 38.4521 5.95316C38.406 5.85349 38.3581 5.77982 38.3083 5.73216C38.2396 5.66627 38.1595 5.62541 38.0681 5.60957C37.9869 5.59555 37.8645 5.60312 37.7009 5.63228C37.39 5.68751 37.1122 5.82286 36.8676 6.03832C36.7385 6.15201 36.6226 6.27846 36.5199 6.41766C36.1784 6.88083 35.9356 7.39349 35.7916 7.95563C35.6908 8.34828 35.6486 8.71914 35.6649 9.0682C35.6766 9.32054 35.7374 9.55941 35.8471 9.78483C35.8839 9.86011 35.9372 9.94057 36.007 10.0262ZM29.2066 6.50282L29.1612 6.56507C29.0087 6.74618 28.8749 6.94006 28.7597 7.14669C28.6846 7.28099 28.6224 7.40582 28.5731 7.5212C28.4148 7.89072 28.346 8.28051 28.3667 8.69055C28.3668 8.69252 28.3673 8.69445 28.3683 8.69617C28.3693 8.69789 28.3706 8.69935 28.3722 8.70044C28.3738 8.70152 28.3757 8.7022 28.3776 8.70242C28.3795 8.70264 28.3815 8.70239 28.3833 8.70169C28.8408 8.52534 29.2616 8.28226 29.6455 7.97245C29.9489 7.72769 30.2167 7.438 30.4489 7.10338C30.5656 6.93543 30.6502 6.75712 30.7026 6.56843C30.7192 6.50913 30.7272 6.45046 30.7268 6.39243C30.7266 6.33271 30.7221 6.27313 30.7135 6.21369C30.696 6.09285 30.6455 6.00103 30.562 5.93823C30.4967 5.88903 30.4078 5.86204 30.2953 5.85727C30.1951 5.85293 30.1007 5.86484 30.012 5.89302C29.8831 5.93395 29.7516 6.00405 29.6174 6.1033C29.4761 6.20788 29.3391 6.34105 29.2066 6.50282Z" fill="black"/>
</g>
</svg>
