<svg width="29" height="16" viewBox="0 0 29 16" fill="none" xmlns="http://www.w3.org/2000/svg">
<path opacity="0.4" d="M26.475 0.837502C27.775 0.637502 27.975 1.2375 27.975 1.2375C28.175 1.8375 27.475 3.2375 25.575 5.3375C22.775 9.1375 22.475 8.7375 24.775 10.9375C25.875 11.8375 26.775 12.9375 27.575 14.1375C27.575 14.1375 28.575 15.7375 26.575 15.7375L22.875 15.8375C22.175 15.8375 21.575 15.6375 20.975 15.2375C19.575 14.3375 18.275 11.8375 17.275 12.1375C17.275 12.1375 16.275 12.5375 16.275 14.7375C16.275 14.9375 16.175 15.2375 16.075 15.4375C15.875 15.6375 15.575 15.7375 15.275 15.7375H13.575C9.875 16.0375 6.675 12.6375 6.675 12.6375C3.875 9.33751 1.675 5.63751 0.075 1.63751C-0.025 1.43751 -0.025 1.1375 0.075 0.937501C0.275 0.737501 0.575003 0.637506 0.875003 0.637506H4.875L5.475 0.937501C5.575 1.1375 5.675 1.2375 5.775 1.4375C6.475 3.0375 7.275 4.5375 7.275 4.5375C8.675 7.5375 9.675 8.0375 10.275 7.7375C10.275 7.7375 11.075 7.23751 10.875 3.63751C10.875 2.93751 10.775 2.3375 10.475 1.7375C10.175 1.3375 9.775 1.13751 9.275 1.13751C9.075 1.13751 9.375 0.537502 9.875 0.337502C10.975 0.0375025 12.175 -0.0625005 13.375 0.0374995C14.075 0.0374995 14.675 0.037504 15.375 0.237504C16.775 0.537504 16.275 1.8375 16.275 4.9375C16.275 5.9375 16.075 7.3375 16.775 7.7375C17.075 7.9375 17.775 7.83751 19.675 4.63751C20.275 3.53751 20.775 2.4375 21.275 1.3375C21.375 1.1375 21.475 1.0375 21.675 0.937501C21.875 0.837501 22.075 0.837502 22.275 0.837502H26.475Z" fill="black"/>
</svg>
